<svg width="286" height="63" viewBox="0 0 286 63" fill="none" xmlns="http://www.w3.org/2000/svg">
<path d="M101.564 13.7976C101.244 14.5993 100.656 15.264 99.9007 15.6774C99.1459 16.0908 98.2715 16.2272 97.4275 16.0632C96.5835 15.8993 95.8226 15.4451 95.2755 14.7787C94.7283 14.1123 94.4291 13.2753 94.4291 12.4113C94.4291 11.5473 94.7283 10.7103 95.2755 10.0439C95.8226 9.37751 96.5835 8.92334 97.4275 8.75935C98.2715 8.59536 99.1459 8.73179 99.9007 9.14521C100.656 9.55863 101.244 10.2233 101.564 11.025C101.621 11.1803 101.724 11.3146 101.858 11.4106C101.993 11.5065 102.153 11.5595 102.318 11.5628H110.413C110.91 11.5646 111.397 11.4269 111.82 11.1653C112.243 10.9037 112.585 10.5286 112.808 10.0821C113.03 9.63569 113.124 9.13567 113.079 8.63841C113.035 8.14114 112.852 7.66636 112.553 7.26754C110.291 4.22074 107.131 1.96808 103.522 0.829703C99.9129 -0.308675 96.0387 -0.274857 92.4499 0.926349C88.8611 2.12755 85.7403 4.43504 83.531 7.52088C81.3217 10.6067 80.1362 14.3139 80.1431 18.1156C80.1423 18.9087 80.1952 19.7009 80.3014 20.4868C80.384 21.1624 80.709 21.7845 81.2155 22.2364C81.722 22.6883 82.3752 22.9389 83.0525 22.9412H93.9137C94.0748 22.9394 94.2319 22.8904 94.3658 22.8003C94.4996 22.7101 94.6045 22.5827 94.6674 22.4337C94.9871 21.6313 95.5748 20.9658 96.3296 20.5516C97.0844 20.1374 97.9591 20.0003 98.8035 20.1639C99.648 20.3274 100.409 20.7815 100.957 21.448C101.504 22.1145 101.804 22.9519 101.804 23.8162C101.804 24.6805 101.504 25.5179 100.957 26.1844C100.409 26.8509 99.648 27.3049 98.8035 27.4685C97.9591 27.6321 97.0844 27.495 96.3296 27.0808C95.5748 26.6666 94.9871 26.0011 94.6674 25.1987C94.6097 25.0442 94.5068 24.9109 94.3723 24.8163C94.2377 24.7217 94.0779 24.6701 93.9137 24.6684H85.8639C85.3736 24.6684 84.8927 24.8045 84.4745 25.0617C84.0563 25.319 83.7169 25.6874 83.4939 26.1263C83.2709 26.5652 83.1729 27.0575 83.2107 27.5489C83.2485 28.0402 83.4207 28.5115 83.7082 28.9107C84.6806 30.2251 85.8268 31.4 87.1151 32.403L95.8734 39.221C96.5201 39.7259 97.3157 40 98.1346 40C98.9535 40 99.7491 39.7259 100.396 39.221L109.162 32.403C111.334 30.7152 113.093 28.5488 114.302 26.0705C115.51 23.5922 116.137 20.8681 116.134 18.1081C116.133 17.3153 116.083 16.5234 115.983 15.7369C115.897 15.0613 115.57 14.44 115.063 13.9885C114.555 13.5371 113.902 13.2862 113.224 13.2825H102.34C102.175 13.2805 102.012 13.3285 101.874 13.4203C101.735 13.5121 101.627 13.6436 101.564 13.7976Z" fill="#F9603A"/>
<path d="M134.585 29.1001C134.585 29.0431 134.607 28.9883 134.646 28.9473C134.686 28.9063 134.739 28.8823 134.796 28.8804H135.633C135.697 28.8842 135.76 28.9043 135.816 28.9387C135.871 28.973 135.917 29.0207 135.949 29.0773L137.668 32.4333C137.72 32.5393 137.811 32.5393 137.864 32.4333L139.567 29.0773C139.599 29.0217 139.643 28.9747 139.697 28.9404C139.751 28.9061 139.812 28.8855 139.876 28.8804H140.713C140.771 28.8804 140.826 28.9035 140.867 28.9447C140.908 28.9859 140.931 29.0418 140.931 29.1001V34.4787C140.931 34.5369 140.908 34.5928 140.867 34.634C140.826 34.6752 140.771 34.6983 140.713 34.6983H140.125C140.068 34.6964 140.014 34.6724 139.975 34.6314C139.936 34.5904 139.914 34.5356 139.914 34.4787V30.7439C139.914 30.6227 139.868 30.6152 139.816 30.7439L138.18 33.9029C138.148 33.9585 138.104 34.0055 138.05 34.0399C137.996 34.0742 137.935 34.0948 137.871 34.0999H137.585C137.521 34.0948 137.46 34.0742 137.406 34.0399C137.352 34.0055 137.307 33.9585 137.276 33.9029L135.663 30.7212C135.61 30.6152 135.565 30.6227 135.565 30.7212V34.4559C135.565 34.4848 135.559 34.5133 135.548 34.54C135.537 34.5667 135.521 34.5909 135.501 34.6113C135.48 34.6317 135.456 34.6479 135.43 34.6589C135.403 34.6699 135.375 34.6756 135.346 34.6756H134.766C134.709 34.6737 134.655 34.6496 134.616 34.6087C134.577 34.5677 134.555 34.5129 134.555 34.4559L134.585 29.1001Z" fill="#2B303A"/>
<path d="M150.79 29.1985C151.134 29.3912 151.436 29.651 151.678 29.9627C151.921 30.2743 152.099 30.6315 152.202 31.0133C152.305 31.3951 152.332 31.7938 152.279 32.1859C152.227 32.5781 152.098 32.9557 151.898 33.2968C151.632 33.7513 151.249 34.1254 150.79 34.3801C150.309 34.6387 149.772 34.774 149.226 34.774C148.681 34.774 148.143 34.6387 147.662 34.3801C146.975 33.9804 146.472 33.3241 146.263 32.5539C146.054 31.7837 146.156 30.9617 146.547 30.2666C146.816 29.8163 147.202 29.4473 147.662 29.1985C148.145 28.9449 148.681 28.8125 149.226 28.8125C149.771 28.8125 150.307 28.9449 150.79 29.1985ZM148.258 30.0697C147.957 30.2413 147.708 30.4905 147.536 30.7915C147.363 31.0926 147.274 31.4345 147.278 31.7817C147.276 32.1327 147.367 32.4778 147.542 32.7817C147.721 33.0975 147.981 33.3591 148.295 33.5392C148.593 33.7139 148.931 33.8054 149.275 33.8044C149.618 33.7937 149.953 33.694 150.247 33.5148C150.54 33.3356 150.783 33.0831 150.95 32.7819C151.118 32.4807 151.205 32.1409 151.204 31.7957C151.202 31.4505 151.111 31.1117 150.941 30.8121C150.776 30.5151 150.534 30.2689 150.24 30.1C149.948 29.9262 149.615 29.8346 149.275 29.8348C148.921 29.8192 148.569 29.9003 148.258 30.0697Z" fill="#2B303A"/>
<path d="M161.546 29.2741C161.716 29.3918 161.854 29.5506 161.948 29.7359C162.041 29.9211 162.087 30.127 162.081 30.3347C162.09 30.6334 161.994 30.9257 161.81 31.1604C161.659 31.3254 161.473 31.4548 161.267 31.5392C161.161 31.5846 161.161 31.6528 161.267 31.6907C161.529 31.781 161.769 31.9285 161.968 32.1225C162.19 32.3953 162.305 32.74 162.292 33.0921C162.301 33.3202 162.253 33.5469 162.153 33.7519C162.053 33.9568 161.904 34.1336 161.719 34.2663C161.298 34.4841 160.841 34.6203 160.37 34.6679C160.227 34.6754 160.083 34.6754 159.94 34.6679H157.777C157.749 34.6679 157.721 34.6621 157.695 34.651C157.668 34.6399 157.645 34.6236 157.625 34.6031C157.605 34.5826 157.59 34.5583 157.58 34.5317C157.57 34.505 157.565 34.4766 157.566 34.4482V29.0696C157.565 29.0411 157.57 29.0127 157.58 28.9861C157.59 28.9594 157.605 28.9352 157.625 28.9147C157.645 28.8942 157.668 28.8778 157.695 28.8667C157.721 28.8556 157.749 28.8499 157.777 28.8499H159.918C160.061 28.8424 160.204 28.8424 160.347 28.8499C160.769 28.9191 161.174 29.0627 161.546 29.2741ZM160.732 31.0922C160.811 31.0295 160.874 30.9487 160.916 30.8565C160.958 30.7642 160.978 30.6632 160.973 30.5619C160.979 30.4626 160.96 30.3633 160.918 30.2732C160.876 30.1832 160.812 30.1053 160.732 30.0468C160.591 29.9619 160.435 29.9077 160.272 29.8877H159.85H158.87C158.842 29.8867 158.814 29.8914 158.788 29.9017C158.762 29.912 158.738 29.9276 158.718 29.9475C158.699 29.9674 158.683 29.9912 158.673 30.0174C158.663 30.0436 158.658 30.0717 158.659 30.0998V31.0846C158.659 31.1409 158.681 31.1949 158.721 31.2346C158.76 31.2744 158.814 31.2968 158.87 31.2968H159.85C159.99 31.3043 160.131 31.3043 160.272 31.2968C160.438 31.2629 160.595 31.1931 160.732 31.0922ZM160.882 33.5543C160.979 33.492 161.058 33.4054 161.111 33.3031C161.164 33.2007 161.189 33.0862 161.184 32.9709C161.187 32.8591 161.161 32.7484 161.108 32.65C161.055 32.5516 160.977 32.4689 160.882 32.4104C160.691 32.3166 160.484 32.2576 160.272 32.2361H159.85H158.87C158.842 32.2351 158.814 32.2398 158.788 32.2501C158.762 32.2604 158.738 32.276 158.718 32.2959C158.699 32.3158 158.683 32.3396 158.673 32.3658C158.663 32.392 158.658 32.4201 158.659 32.4482V33.5164C158.658 33.5445 158.663 33.5726 158.673 33.5988C158.683 33.625 158.699 33.6488 158.718 33.6687C158.738 33.6886 158.762 33.7042 158.788 33.7145C158.814 33.7248 158.842 33.7296 158.87 33.7285H159.85H160.272C160.486 33.7023 160.693 33.6354 160.882 33.5315V33.5543Z" fill="#2B303A"/>
<path d="M167.621 29.1001C167.621 29.0418 167.644 28.9859 167.685 28.9447C167.726 28.9035 167.781 28.8804 167.839 28.8804H168.518C168.546 28.8804 168.574 28.8861 168.6 28.8972C168.626 28.9083 168.65 28.9246 168.67 28.9451C168.689 28.9657 168.705 28.9899 168.715 29.0166C168.725 29.0432 168.73 29.0716 168.729 29.1001V34.4787C168.73 34.5071 168.725 34.5355 168.715 34.5622C168.705 34.5888 168.689 34.6131 168.67 34.6336C168.65 34.6541 168.626 34.6704 168.6 34.6815C168.574 34.6926 168.546 34.6984 168.518 34.6983H167.839C167.781 34.6983 167.726 34.6752 167.685 34.634C167.644 34.5928 167.621 34.5369 167.621 34.4787V29.1001Z" fill="#2B303A"/>
<path d="M174.359 29.1001C174.359 29.0712 174.365 29.0426 174.376 29.016C174.387 28.9893 174.403 28.9651 174.423 28.9447C174.443 28.9243 174.467 28.9081 174.494 28.8971C174.52 28.8861 174.549 28.8804 174.577 28.8804H175.256C175.312 28.8823 175.366 28.9063 175.406 28.9473C175.445 28.9883 175.467 29.0431 175.467 29.1001V33.4787C175.469 33.5343 175.492 33.5872 175.531 33.6266C175.57 33.666 175.623 33.6889 175.678 33.6908H177.751C177.806 33.6927 177.859 33.7156 177.898 33.755C177.937 33.7944 177.96 33.8473 177.962 33.9029V34.4787C177.962 34.5356 177.94 34.5904 177.9 34.6314C177.861 34.6724 177.807 34.6964 177.751 34.6983H174.577C174.549 34.6983 174.52 34.6927 174.494 34.6816C174.467 34.6706 174.443 34.6544 174.423 34.634C174.403 34.6136 174.387 34.5894 174.376 34.5627C174.365 34.5361 174.359 34.5075 174.359 34.4787V29.1001Z" fill="#2B303A"/>
<path d="M183.132 29.1001C183.132 29.0431 183.154 28.9883 183.194 28.9473C183.233 28.9063 183.287 28.8823 183.343 28.8804H184.022C184.08 28.8804 184.135 28.9035 184.176 28.9447C184.217 28.9859 184.24 29.0418 184.24 29.1001V34.4787C184.24 34.5369 184.217 34.5928 184.176 34.634C184.135 34.6752 184.08 34.6983 184.022 34.6983H183.343C183.287 34.6964 183.233 34.6724 183.194 34.6314C183.154 34.5904 183.132 34.5356 183.132 34.4787V29.1001Z" fill="#2B303A"/>
<path d="M189.743 29.1001C189.743 29.0418 189.766 28.9859 189.807 28.9447C189.848 28.9035 189.903 28.8804 189.961 28.8804H194.25C194.307 28.8823 194.36 28.9063 194.4 28.9473C194.439 28.9883 194.461 29.0431 194.461 29.1001V29.6531C194.461 29.71 194.439 29.7648 194.4 29.8058C194.36 29.8468 194.307 29.8708 194.25 29.8728H192.871C192.815 29.8746 192.763 29.8976 192.723 29.937C192.684 29.9764 192.661 30.0292 192.66 30.0849V34.4787C192.66 34.5356 192.638 34.5904 192.598 34.6314C192.559 34.6724 192.505 34.6964 192.449 34.6983H191.763C191.705 34.6983 191.649 34.6752 191.608 34.634C191.567 34.5928 191.544 34.5369 191.544 34.4787V30.0849C191.542 30.0292 191.519 29.9764 191.48 29.937C191.441 29.8976 191.388 29.8746 191.333 29.8728H189.961C189.903 29.8728 189.848 29.8496 189.807 29.8084C189.766 29.7672 189.743 29.7113 189.743 29.6531V29.1001Z" fill="#2B303A"/>
<path d="M204.071 28.8802C204.192 28.8802 204.244 28.9711 204.184 29.0696L202.285 32.6073C202.219 32.7311 202.183 32.8686 202.179 33.0088V34.4785C202.179 34.5355 202.157 34.5902 202.118 34.6312C202.078 34.6722 202.025 34.6962 201.968 34.6982H201.29C201.232 34.6982 201.176 34.675 201.135 34.6338C201.094 34.5926 201.071 34.5368 201.071 34.4785V33.0467C201.065 32.9078 201.031 32.7714 200.973 32.6452L199.021 29.0696C199.008 29.0504 199 29.0278 199 29.0045C198.999 28.9812 199.005 28.9582 199.017 28.9382C199.029 28.9183 199.046 28.9021 199.067 28.8919C199.088 28.8816 199.111 28.8775 199.134 28.8802H199.827C199.893 28.8834 199.956 28.9022 200.012 28.9352C200.069 28.9681 200.117 29.0142 200.152 29.0696L201.493 31.4256C201.546 31.5316 201.644 31.5316 201.704 31.4256L203.046 29.0696C203.081 29.0164 203.128 28.9718 203.183 28.9391C203.238 28.9063 203.299 28.8862 203.362 28.8802H204.071Z" fill="#2B303A"/>
<path d="M142.017 11.8959C141.288 11.6467 140.525 11.5088 139.756 11.4869C139.151 11.455 138.549 11.5969 138.022 11.8959C137.822 12.0126 137.658 12.181 137.545 12.3836C137.432 12.5861 137.376 12.8154 137.381 13.0474C137.376 13.2537 137.413 13.4589 137.489 13.6503C137.566 13.8418 137.68 14.0156 137.826 14.161C138.147 14.4855 138.529 14.7429 138.949 14.9186C139.55 15.1624 140.164 15.3723 140.788 15.5473C141.699 15.7999 142.59 16.1164 143.456 16.4943C144.153 16.8174 144.761 17.3062 145.228 17.9185C145.752 18.6338 146.018 19.5077 145.981 20.3956C146.002 21.3129 145.724 22.2118 145.19 22.9562C144.635 23.7038 143.883 24.281 143.019 24.6228C142.013 25.0242 140.936 25.2199 139.854 25.1985C138.602 25.1972 137.361 24.9582 136.198 24.494C135.189 24.1067 134.246 23.565 133.402 22.888C133.313 22.8134 133.251 22.711 133.226 22.5971C133.202 22.4831 133.216 22.3642 133.266 22.2592L134.08 20.6002C134.116 20.5364 134.165 20.481 134.224 20.4377C134.282 20.3944 134.35 20.3642 134.421 20.3492C134.492 20.3341 134.566 20.3345 134.637 20.3504C134.708 20.3662 134.775 20.3972 134.834 20.4411C135.508 20.9854 136.254 21.434 137.05 21.7744C137.934 22.1772 138.89 22.3962 139.861 22.4183C140.565 22.4561 141.265 22.2849 141.874 21.9259C142.108 21.7899 142.302 21.5929 142.435 21.3556C142.567 21.1183 142.634 20.8495 142.627 20.5774C142.633 20.3678 142.596 20.1592 142.519 19.964C142.443 19.7688 142.329 19.591 142.183 19.4411C141.859 19.1255 141.474 18.8805 141.052 18.7215C140.592 18.5396 139.967 18.3275 139.175 18.1003C138.275 17.8431 137.391 17.5294 136.53 17.1609C135.838 16.8471 135.232 16.3687 134.766 15.767C134.245 15.0615 133.979 14.1983 134.012 13.3201C133.996 12.4468 134.261 11.5915 134.766 10.8808C135.299 10.1505 136.029 9.58815 136.869 9.25967C137.867 8.85683 138.936 8.661 140.012 8.68393C141.052 8.68356 142.086 8.83932 143.08 9.14604C143.892 9.38674 144.674 9.72235 145.409 10.146C145.514 10.2121 145.592 10.3152 145.627 10.4355C145.662 10.5557 145.651 10.6847 145.597 10.7975L144.79 12.5626C144.761 12.6319 144.717 12.6939 144.661 12.7442C144.605 12.7945 144.538 12.8317 144.467 12.8534C144.395 12.8751 144.319 12.8806 144.245 12.8697C144.17 12.8587 144.099 12.8314 144.037 12.7898C143.393 12.4292 142.716 12.1299 142.017 11.8959Z" fill="#2B303A"/>
<path d="M170.922 8.93408H172.995C173.075 8.93443 173.155 8.95405 173.226 8.99132C173.297 9.0286 173.359 9.08245 173.405 9.14839C173.451 9.21433 173.482 9.29046 173.493 9.37045C173.504 9.45045 173.496 9.53199 173.47 9.6083L168.405 24.6532C168.369 24.7591 168.301 24.851 168.21 24.9162C168.12 24.9814 168.011 25.0166 167.9 25.0168H165.503C165.388 25.0154 165.276 24.9773 165.184 24.9078C165.092 24.8383 165.024 24.7412 164.99 24.6305L161.93 14.4263C161.898 14.3228 161.834 14.2322 161.748 14.1679C161.661 14.1036 161.556 14.0689 161.448 14.0689C161.34 14.0689 161.235 14.1036 161.148 14.1679C161.061 14.2322 160.997 14.3228 160.966 14.4263L157.838 24.6456C157.804 24.7544 157.737 24.8496 157.646 24.9177C157.556 24.9857 157.446 25.0231 157.333 25.0244H154.973C154.863 25.0237 154.756 24.9882 154.666 24.923C154.577 24.8578 154.511 24.7661 154.476 24.6608L149.426 9.61588C149.401 9.53897 149.395 9.45728 149.407 9.37739C149.419 9.2975 149.45 9.22166 149.497 9.15602C149.544 9.09037 149.606 9.03676 149.677 8.99952C149.749 8.96228 149.828 8.94246 149.908 8.94166H152.501L155.787 20.0473C155.819 20.1509 155.883 20.2414 155.97 20.3057C156.057 20.37 156.162 20.4047 156.27 20.4047C156.378 20.4047 156.483 20.37 156.569 20.3057C156.656 20.2414 156.72 20.1509 156.752 20.0473L159.903 9.32801C159.936 9.21728 160.004 9.12016 160.096 9.0507C160.188 8.98125 160.3 8.94306 160.415 8.94166H162.676C162.791 8.94227 162.902 8.98029 162.993 9.04998C163.084 9.11968 163.15 9.21726 163.181 9.32801L166.355 20.0852C166.384 20.1917 166.448 20.2856 166.536 20.3524C166.624 20.4192 166.731 20.4554 166.841 20.4554C166.951 20.4554 167.058 20.4192 167.146 20.3524C167.234 20.2856 167.297 20.1917 167.327 20.0852L170.455 9.32801C170.484 9.22233 170.544 9.12798 170.627 9.05758C170.711 8.98719 170.814 8.9441 170.922 8.93408Z" fill="#2B303A"/>
<path d="M188.408 24.3956L187.504 22.229C187.427 22.0475 187.299 21.8927 187.136 21.7836C186.972 21.6745 186.781 21.616 186.584 21.6154H180.095C179.899 21.616 179.707 21.6745 179.543 21.7836C179.38 21.8927 179.252 22.0475 179.175 22.229L178.271 24.3956C178.202 24.5796 178.079 24.7385 177.919 24.8519C177.759 24.9653 177.57 25.028 177.374 25.032H175.64C175.556 25.0315 175.472 25.0099 175.398 24.9691C175.324 24.9283 175.26 24.8697 175.214 24.7984C175.168 24.7271 175.14 24.6454 175.133 24.5606C175.126 24.4757 175.139 24.3904 175.173 24.3123L181.746 9.25224C181.786 9.16305 181.85 9.08719 181.932 9.03352C182.013 8.97986 182.108 8.95062 182.205 8.94922H184.73C184.827 8.9502 184.921 8.97936 185.001 9.03317C185.082 9.08697 185.144 9.16308 185.183 9.25224L191.649 24.2744C191.683 24.3515 191.697 24.4358 191.691 24.5197C191.684 24.6037 191.657 24.6846 191.611 24.7553C191.565 24.8259 191.503 24.884 191.429 24.9244C191.356 24.9648 191.274 24.9861 191.19 24.9865H189.328C189.134 24.9888 188.944 24.9341 188.78 24.8291C188.617 24.7241 188.488 24.5735 188.408 24.3956ZM181.271 18.9716H185.416C185.497 18.9716 185.576 18.9516 185.647 18.9133C185.718 18.8751 185.779 18.8198 185.824 18.7523C185.869 18.6849 185.896 18.6074 185.904 18.5267C185.912 18.446 185.899 18.3646 185.868 18.2898L183.818 13.3127C183.78 13.2235 183.716 13.1476 183.635 13.0943C183.554 13.0409 183.459 13.0125 183.362 13.0125C183.265 13.0125 183.171 13.0409 183.09 13.0943C183.009 13.1476 182.945 13.2235 182.906 13.3127L180.818 18.2822C180.786 18.3574 180.772 18.4396 180.779 18.5213C180.786 18.6031 180.813 18.6818 180.858 18.7502C180.903 18.8187 180.965 18.8749 181.037 18.9135C181.109 18.9522 181.189 18.9721 181.271 18.9716Z" fill="#2B303A"/>
<path d="M193.285 8.93408H205.345C205.481 8.93408 205.611 8.98835 205.707 9.08496C205.804 9.18157 205.858 9.31259 205.858 9.44922V11.1613C205.858 11.2286 205.844 11.2952 205.818 11.3573C205.793 11.4194 205.755 11.4756 205.707 11.5229C205.659 11.5701 205.603 11.6073 205.541 11.6324C205.478 11.6575 205.412 11.6698 205.345 11.6688H201.388C201.32 11.6678 201.253 11.6804 201.191 11.706C201.128 11.7315 201.071 11.7694 201.023 11.8174C200.975 11.8655 200.938 11.9227 200.912 11.9856C200.887 12.0486 200.874 12.116 200.875 12.184V24.5017C200.875 24.5694 200.862 24.6363 200.836 24.6988C200.811 24.7613 200.773 24.8181 200.725 24.866C200.678 24.9138 200.621 24.9517 200.559 24.9776C200.497 25.0035 200.43 25.0168 200.363 25.0168H198.298C198.163 25.0149 198.035 24.9597 197.94 24.8633C197.846 24.7669 197.793 24.637 197.793 24.5017V12.1537C197.793 12.017 197.739 11.886 197.643 11.7894C197.546 11.6928 197.416 11.6385 197.28 11.6385H193.316C193.182 11.6385 193.053 11.5851 192.958 11.4899C192.864 11.3947 192.811 11.2656 192.811 11.131V9.44922C192.81 9.31891 192.859 9.19331 192.947 9.09772C193.035 9.00214 193.156 8.94366 193.285 8.93408Z" fill="#2B303A"/>
<path d="M2.352 55.224H6.672V56.244H2.352V55.224ZM2.46 58.956H7.356V60H1.26V51.6H7.188V52.644H2.46V58.956ZM17.0871 53.58C17.5991 53.58 18.0511 53.68 18.4431 53.88C18.8351 54.08 19.1391 54.384 19.3551 54.792C19.5791 55.2 19.6911 55.716 19.6911 56.34V60H18.5391V56.472C18.5391 55.856 18.3951 55.392 18.1071 55.08C17.8191 54.768 17.4151 54.612 16.8951 54.612C16.5111 54.612 16.1751 54.692 15.8871 54.852C15.5991 55.012 15.3751 55.248 15.2151 55.56C15.0631 55.872 14.9871 56.26 14.9871 56.724V60H13.8351V56.472C13.8351 55.856 13.6911 55.392 13.4031 55.08C13.1231 54.768 12.7191 54.612 12.1911 54.612C11.8151 54.612 11.4831 54.692 11.1951 54.852C10.9071 55.012 10.6831 55.248 10.5231 55.56C10.3631 55.872 10.2831 56.26 10.2831 56.724V60H9.13106V53.64H10.2351V55.332L10.0551 54.9C10.2551 54.484 10.5631 54.16 10.9791 53.928C11.3951 53.696 11.8791 53.58 12.4311 53.58C13.0391 53.58 13.5631 53.732 14.0031 54.036C14.4431 54.332 14.7311 54.784 14.8671 55.392L14.3991 55.2C14.5911 54.712 14.9271 54.32 15.4071 54.024C15.8871 53.728 16.4471 53.58 17.0871 53.58ZM25.1828 60.072C24.6548 60.072 24.1708 59.952 23.7308 59.712C23.2988 59.464 22.9508 59.1 22.6868 58.62C22.4308 58.14 22.3027 57.54 22.3027 56.82C22.3027 56.1 22.4268 55.5 22.6748 55.02C22.9308 54.54 23.2748 54.18 23.7068 53.94C24.1468 53.7 24.6388 53.58 25.1828 53.58C25.8068 53.58 26.3588 53.716 26.8388 53.988C27.3188 54.26 27.6988 54.64 27.9788 55.128C28.2588 55.608 28.3988 56.172 28.3988 56.82C28.3988 57.468 28.2588 58.036 27.9788 58.524C27.6988 59.012 27.3188 59.392 26.8388 59.664C26.3588 59.936 25.8068 60.072 25.1828 60.072ZM21.8108 62.328V53.64H22.9148V55.356L22.8428 56.832L22.9628 58.308V62.328H21.8108ZM25.0868 59.064C25.4948 59.064 25.8588 58.972 26.1788 58.788C26.5068 58.604 26.7628 58.344 26.9468 58.008C27.1388 57.664 27.2348 57.268 27.2348 56.82C27.2348 56.364 27.1388 55.972 26.9468 55.644C26.7628 55.308 26.5068 55.048 26.1788 54.864C25.8588 54.68 25.4948 54.588 25.0868 54.588C24.6868 54.588 24.3228 54.68 23.9948 54.864C23.6748 55.048 23.4188 55.308 23.2268 55.644C23.0428 55.972 22.9508 56.364 22.9508 56.82C22.9508 57.268 23.0428 57.664 23.2268 58.008C23.4188 58.344 23.6748 58.604 23.9948 58.788C24.3228 58.972 24.6868 59.064 25.0868 59.064ZM32.7144 60.072C32.0744 60.072 31.5064 59.932 31.0104 59.652C30.5144 59.372 30.1224 58.988 29.8344 58.5C29.5464 58.004 29.4024 57.444 29.4024 56.82C29.4024 56.188 29.5464 55.628 29.8344 55.14C30.1224 54.652 30.5144 54.272 31.0104 54C31.5064 53.72 32.0744 53.58 32.7144 53.58C33.3464 53.58 33.9104 53.72 34.4064 54C34.9104 54.272 35.3024 54.652 35.5824 55.14C35.8704 55.62 36.0144 56.18 36.0144 56.82C36.0144 57.452 35.8704 58.012 35.5824 58.5C35.3024 58.988 34.9104 59.372 34.4064 59.652C33.9104 59.932 33.3464 60.072 32.7144 60.072ZM32.7144 59.064C33.1224 59.064 33.4864 58.972 33.8064 58.788C34.1344 58.604 34.3904 58.344 34.5744 58.008C34.7584 57.664 34.8504 57.268 34.8504 56.82C34.8504 56.364 34.7584 55.972 34.5744 55.644C34.3904 55.308 34.1344 55.048 33.8064 54.864C33.4864 54.68 33.1224 54.588 32.7144 54.588C32.3064 54.588 31.9424 54.68 31.6224 54.864C31.3024 55.048 31.0464 55.308 30.8544 55.644C30.6624 55.972 30.5664 56.364 30.5664 56.82C30.5664 57.268 30.6624 57.664 30.8544 58.008C31.0464 58.344 31.3024 58.604 31.6224 58.788C31.9424 58.972 32.3064 59.064 32.7144 59.064ZM38.7758 60L36.4118 53.64H37.5038L39.6038 59.4H39.0878L41.2718 53.64H42.2438L44.3798 59.4H43.8758L46.0238 53.64H47.0558L44.6798 60H43.5758L41.5718 54.744H41.9078L39.8798 60H38.7758ZM50.881 60.072C50.201 60.072 49.601 59.932 49.081 59.652C48.569 59.372 48.169 58.988 47.881 58.5C47.601 58.012 47.461 57.452 47.461 56.82C47.461 56.188 47.597 55.628 47.869 55.14C48.149 54.652 48.529 54.272 49.009 54C49.497 53.72 50.045 53.58 50.653 53.58C51.269 53.58 51.813 53.716 52.285 53.988C52.757 54.26 53.125 54.644 53.389 55.14C53.661 55.628 53.797 56.2 53.797 56.856C53.797 56.904 53.793 56.96 53.785 57.024C53.785 57.088 53.781 57.148 53.773 57.204H48.361V56.376H53.173L52.705 56.664C52.713 56.256 52.629 55.892 52.453 55.572C52.277 55.252 52.033 55.004 51.721 54.828C51.417 54.644 51.061 54.552 50.653 54.552C50.253 54.552 49.897 54.644 49.585 54.828C49.273 55.004 49.029 55.256 48.853 55.584C48.677 55.904 48.589 56.272 48.589 56.688V56.88C48.589 57.304 48.685 57.684 48.877 58.02C49.077 58.348 49.353 58.604 49.705 58.788C50.057 58.972 50.461 59.064 50.917 59.064C51.293 59.064 51.633 59 51.937 58.872C52.249 58.744 52.521 58.552 52.753 58.296L53.389 59.04C53.101 59.376 52.741 59.632 52.309 59.808C51.885 59.984 51.409 60.072 50.881 60.072ZM55.3967 60V53.64H56.5007V55.368L56.3927 54.936C56.5687 54.496 56.8647 54.16 57.2807 53.928C57.6967 53.696 58.2087 53.58 58.8167 53.58V54.696C58.7687 54.688 58.7207 54.684 58.6727 54.684C58.6327 54.684 58.5927 54.684 58.5527 54.684C57.9367 54.684 57.4487 54.868 57.0887 55.236C56.7287 55.604 56.5487 56.136 56.5487 56.832V60H55.3967ZM60.2365 60V53.64H61.3885V60H60.2365ZM60.8125 52.416C60.5885 52.416 60.4005 52.344 60.2485 52.2C60.1045 52.056 60.0325 51.88 60.0325 51.672C60.0325 51.456 60.1045 51.276 60.2485 51.132C60.4005 50.988 60.5885 50.916 60.8125 50.916C61.0365 50.916 61.2205 50.988 61.3645 51.132C61.5165 51.268 61.5925 51.44 61.5925 51.648C61.5925 51.864 61.5205 52.048 61.3765 52.2C61.2325 52.344 61.0445 52.416 60.8125 52.416ZM66.9841 53.58C67.5041 53.58 67.9601 53.68 68.3521 53.88C68.7521 54.08 69.0641 54.384 69.2881 54.792C69.5121 55.2 69.6241 55.716 69.6241 56.34V60H68.4721V56.472C68.4721 55.856 68.3201 55.392 68.0161 55.08C67.7201 54.768 67.3001 54.612 66.7561 54.612C66.3481 54.612 65.9921 54.692 65.6881 54.852C65.3841 55.012 65.1481 55.248 64.9801 55.56C64.8201 55.872 64.7401 56.26 64.7401 56.724V60H63.5881V53.64H64.6921V55.356L64.5121 54.9C64.7201 54.484 65.0401 54.16 65.4721 53.928C65.9041 53.696 66.4081 53.58 66.9841 53.58ZM74.5401 62.4C73.9561 62.4 73.3881 62.316 72.8361 62.148C72.2921 61.988 71.8481 61.756 71.5041 61.452L72.0561 60.564C72.3521 60.82 72.7161 61.02 73.1481 61.164C73.5801 61.316 74.0321 61.392 74.5041 61.392C75.2561 61.392 75.8081 61.216 76.1601 60.864C76.5121 60.512 76.6881 59.976 76.6881 59.256V57.912L76.8081 56.652L76.7481 55.38V53.64H77.8401V59.136C77.8401 60.256 77.5601 61.08 77.0001 61.608C76.4401 62.136 75.6201 62.4 74.5401 62.4ZM74.3961 59.736C73.7801 59.736 73.2281 59.608 72.7401 59.352C72.2601 59.088 71.8761 58.724 71.5881 58.26C71.3081 57.796 71.1681 57.26 71.1681 56.652C71.1681 56.036 71.3081 55.5 71.5881 55.044C71.8761 54.58 72.2601 54.22 72.7401 53.964C73.2281 53.708 73.7801 53.58 74.3961 53.58C74.9401 53.58 75.4361 53.692 75.8841 53.916C76.3321 54.132 76.6881 54.468 76.9521 54.924C77.2241 55.38 77.3601 55.956 77.3601 56.652C77.3601 57.34 77.2241 57.912 76.9521 58.368C76.6881 58.824 76.3321 59.168 75.8841 59.4C75.4361 59.624 74.9401 59.736 74.3961 59.736ZM74.5281 58.728C74.9521 58.728 75.3281 58.64 75.6561 58.464C75.9841 58.288 76.2401 58.044 76.4241 57.732C76.6161 57.42 76.7121 57.06 76.7121 56.652C76.7121 56.244 76.6161 55.884 76.4241 55.572C76.2401 55.26 75.9841 55.02 75.6561 54.852C75.3281 54.676 74.9521 54.588 74.5281 54.588C74.1041 54.588 73.7241 54.676 73.3881 54.852C73.0601 55.02 72.8001 55.26 72.6081 55.572C72.4241 55.884 72.3321 56.244 72.3321 56.652C72.3321 57.06 72.4241 57.42 72.6081 57.732C72.8001 58.044 73.0601 58.288 73.3881 58.464C73.7241 58.64 74.1041 58.728 74.5281 58.728ZM85.4479 60.072C84.8079 60.072 84.3119 59.9 83.9599 59.556C83.6079 59.212 83.4319 58.72 83.4319 58.08V52.248H84.5839V58.032C84.5839 58.376 84.6679 58.64 84.8359 58.824C85.0119 59.008 85.2599 59.1 85.5799 59.1C85.9399 59.1 86.2399 59 86.4799 58.8L86.8399 59.628C86.6639 59.78 86.4519 59.892 86.2039 59.964C85.9639 60.036 85.7119 60.072 85.4479 60.072ZM82.3519 54.588V53.64H86.4079V54.588H82.3519ZM91.6286 53.58C92.1486 53.58 92.6046 53.68 92.9966 53.88C93.3966 54.08 93.7086 54.384 93.9326 54.792C94.1566 55.2 94.2686 55.716 94.2686 56.34V60H93.1166V56.472C93.1166 55.856 92.9646 55.392 92.6606 55.08C92.3646 54.768 91.9446 54.612 91.4006 54.612C90.9926 54.612 90.6366 54.692 90.3326 54.852C90.0286 55.012 89.7926 55.248 89.6246 55.56C89.4646 55.872 89.3846 56.26 89.3846 56.724V60H88.2326V51.096H89.3846V55.356L89.1566 54.9C89.3646 54.484 89.6846 54.16 90.1166 53.928C90.5486 53.696 91.0526 53.58 91.6286 53.58ZM99.2326 60.072C98.5526 60.072 97.9526 59.932 97.4326 59.652C96.9206 59.372 96.5206 58.988 96.2326 58.5C95.9526 58.012 95.8126 57.452 95.8126 56.82C95.8126 56.188 95.9486 55.628 96.2206 55.14C96.5006 54.652 96.8806 54.272 97.3606 54C97.8486 53.72 98.3966 53.58 99.0046 53.58C99.6206 53.58 100.165 53.716 100.637 53.988C101.109 54.26 101.477 54.644 101.741 55.14C102.013 55.628 102.149 56.2 102.149 56.856C102.149 56.904 102.145 56.96 102.137 57.024C102.137 57.088 102.133 57.148 102.125 57.204H96.7126V56.376H101.525L101.057 56.664C101.065 56.256 100.981 55.892 100.805 55.572C100.629 55.252 100.385 55.004 100.073 54.828C99.7686 54.644 99.4126 54.552 99.0046 54.552C98.6046 54.552 98.2486 54.644 97.9366 54.828C97.6246 55.004 97.3806 55.256 97.2046 55.584C97.0286 55.904 96.9406 56.272 96.9406 56.688V56.88C96.9406 57.304 97.0366 57.684 97.2286 58.02C97.4286 58.348 97.7046 58.604 98.0566 58.788C98.4086 58.972 98.8126 59.064 99.2686 59.064C99.6446 59.064 99.9846 59 100.289 58.872C100.601 58.744 100.873 58.552 101.105 58.296L101.741 59.04C101.453 59.376 101.093 59.632 100.661 59.808C100.237 59.984 99.7606 60.072 99.2326 60.072ZM108.315 60L105.951 53.64H107.043L109.143 59.4H108.627L110.811 53.64H111.783L113.919 59.4H113.415L115.563 53.64H116.595L114.219 60H113.115L111.111 54.744H111.447L109.419 60H108.315ZM120.312 60.072C119.672 60.072 119.104 59.932 118.608 59.652C118.112 59.372 117.72 58.988 117.432 58.5C117.144 58.004 117 57.444 117 56.82C117 56.188 117.144 55.628 117.432 55.14C117.72 54.652 118.112 54.272 118.608 54C119.104 53.72 119.672 53.58 120.312 53.58C120.944 53.58 121.508 53.72 122.004 54C122.508 54.272 122.9 54.652 123.18 55.14C123.468 55.62 123.612 56.18 123.612 56.82C123.612 57.452 123.468 58.012 123.18 58.5C122.9 58.988 122.508 59.372 122.004 59.652C121.508 59.932 120.944 60.072 120.312 60.072ZM120.312 59.064C120.72 59.064 121.084 58.972 121.404 58.788C121.732 58.604 121.988 58.344 122.172 58.008C122.356 57.664 122.448 57.268 122.448 56.82C122.448 56.364 122.356 55.972 122.172 55.644C121.988 55.308 121.732 55.048 121.404 54.864C121.084 54.68 120.72 54.588 120.312 54.588C119.904 54.588 119.54 54.68 119.22 54.864C118.9 55.048 118.644 55.308 118.452 55.644C118.26 55.972 118.164 56.364 118.164 56.82C118.164 57.268 118.26 57.664 118.452 58.008C118.644 58.344 118.9 58.604 119.22 58.788C119.54 58.972 119.904 59.064 120.312 59.064ZM125.205 60V53.64H126.309V55.368L126.201 54.936C126.377 54.496 126.673 54.16 127.089 53.928C127.505 53.696 128.017 53.58 128.625 53.58V54.696C128.577 54.688 128.529 54.684 128.481 54.684C128.441 54.684 128.401 54.684 128.361 54.684C127.745 54.684 127.257 54.868 126.897 55.236C126.537 55.604 126.357 56.136 126.357 56.832V60H125.205ZM130.045 60V51.096H131.197V60H130.045ZM136.025 60.072C135.409 60.072 134.857 59.936 134.369 59.664C133.889 59.392 133.509 59.012 133.229 58.524C132.949 58.036 132.809 57.468 132.809 56.82C132.809 56.172 132.949 55.608 133.229 55.128C133.509 54.64 133.889 54.26 134.369 53.988C134.857 53.716 135.409 53.58 136.025 53.58C136.561 53.58 137.045 53.7 137.477 53.94C137.909 54.18 138.253 54.54 138.509 55.02C138.773 55.5 138.905 56.1 138.905 56.82C138.905 57.54 138.777 58.14 138.521 58.62C138.273 59.1 137.933 59.464 137.501 59.712C137.069 59.952 136.577 60.072 136.025 60.072ZM136.121 59.064C136.521 59.064 136.881 58.972 137.201 58.788C137.529 58.604 137.785 58.344 137.969 58.008C138.161 57.664 138.257 57.268 138.257 56.82C138.257 56.364 138.161 55.972 137.969 55.644C137.785 55.308 137.529 55.048 137.201 54.864C136.881 54.68 136.521 54.588 136.121 54.588C135.713 54.588 135.349 54.68 135.029 54.864C134.709 55.048 134.453 55.308 134.261 55.644C134.069 55.972 133.973 56.364 133.973 56.82C133.973 57.268 134.069 57.664 134.261 58.008C134.453 58.344 134.709 58.604 135.029 58.788C135.349 58.972 135.713 59.064 136.121 59.064ZM138.293 60V58.284L138.365 56.808L138.245 55.332V51.096H139.397V60H138.293ZM146.983 60.072C146.343 60.072 145.847 59.9 145.495 59.556C145.143 59.212 144.967 58.72 144.967 58.08V52.248H146.119V58.032C146.119 58.376 146.203 58.64 146.371 58.824C146.547 59.008 146.795 59.1 147.115 59.1C147.475 59.1 147.775 59 148.015 58.8L148.375 59.628C148.199 59.78 147.987 59.892 147.739 59.964C147.499 60.036 147.247 60.072 146.983 60.072ZM143.887 54.588V53.64H147.943V54.588H143.887ZM152.281 60.072C151.641 60.072 151.073 59.932 150.577 59.652C150.081 59.372 149.689 58.988 149.401 58.5C149.113 58.004 148.969 57.444 148.969 56.82C148.969 56.188 149.113 55.628 149.401 55.14C149.689 54.652 150.081 54.272 150.577 54C151.073 53.72 151.641 53.58 152.281 53.58C152.913 53.58 153.477 53.72 153.973 54C154.477 54.272 154.869 54.652 155.149 55.14C155.437 55.62 155.581 56.18 155.581 56.82C155.581 57.452 155.437 58.012 155.149 58.5C154.869 58.988 154.477 59.372 153.973 59.652C153.477 59.932 152.913 60.072 152.281 60.072ZM152.281 59.064C152.689 59.064 153.053 58.972 153.373 58.788C153.701 58.604 153.957 58.344 154.141 58.008C154.325 57.664 154.417 57.268 154.417 56.82C154.417 56.364 154.325 55.972 154.141 55.644C153.957 55.308 153.701 55.048 153.373 54.864C153.053 54.68 152.689 54.588 152.281 54.588C151.873 54.588 151.509 54.68 151.189 54.864C150.869 55.048 150.613 55.308 150.421 55.644C150.229 55.972 150.133 56.364 150.133 56.82C150.133 57.268 150.229 57.664 150.421 58.008C150.613 58.344 150.869 58.604 151.189 58.788C151.509 58.972 151.873 59.064 152.281 59.064ZM168.353 53.58C168.865 53.58 169.317 53.68 169.709 53.88C170.101 54.08 170.405 54.384 170.621 54.792C170.845 55.2 170.957 55.716 170.957 56.34V60H169.805V56.472C169.805 55.856 169.661 55.392 169.373 55.08C169.085 54.768 168.681 54.612 168.161 54.612C167.777 54.612 167.441 54.692 167.153 54.852C166.865 55.012 166.641 55.248 166.481 55.56C166.329 55.872 166.253 56.26 166.253 56.724V60H165.101V56.472C165.101 55.856 164.957 55.392 164.669 55.08C164.389 54.768 163.985 54.612 163.457 54.612C163.081 54.612 162.749 54.692 162.461 54.852C162.173 55.012 161.949 55.248 161.789 55.56C161.629 55.872 161.549 56.26 161.549 56.724V60H160.397V53.64H161.501V55.332L161.321 54.9C161.521 54.484 161.829 54.16 162.245 53.928C162.661 53.696 163.145 53.58 163.697 53.58C164.305 53.58 164.829 53.732 165.269 54.036C165.709 54.332 165.997 54.784 166.133 55.392L165.665 55.2C165.857 54.712 166.193 54.32 166.673 54.024C167.153 53.728 167.713 53.58 168.353 53.58ZM175.8 60.072C175.16 60.072 174.592 59.932 174.096 59.652C173.6 59.372 173.208 58.988 172.92 58.5C172.632 58.004 172.488 57.444 172.488 56.82C172.488 56.188 172.632 55.628 172.92 55.14C173.208 54.652 173.6 54.272 174.096 54C174.592 53.72 175.16 53.58 175.8 53.58C176.432 53.58 176.996 53.72 177.492 54C177.996 54.272 178.388 54.652 178.668 55.14C178.956 55.62 179.1 56.18 179.1 56.82C179.1 57.452 178.956 58.012 178.668 58.5C178.388 58.988 177.996 59.372 177.492 59.652C176.996 59.932 176.432 60.072 175.8 60.072ZM175.8 59.064C176.208 59.064 176.572 58.972 176.892 58.788C177.22 58.604 177.476 58.344 177.66 58.008C177.844 57.664 177.936 57.268 177.936 56.82C177.936 56.364 177.844 55.972 177.66 55.644C177.476 55.308 177.22 55.048 176.892 54.864C176.572 54.68 176.208 54.588 175.8 54.588C175.392 54.588 175.028 54.68 174.708 54.864C174.388 55.048 174.132 55.308 173.94 55.644C173.748 55.972 173.652 56.364 173.652 56.82C173.652 57.268 173.748 57.664 173.94 58.008C174.132 58.344 174.388 58.604 174.708 58.788C175.028 58.972 175.392 59.064 175.8 59.064ZM182.186 60L179.402 53.64H180.602L183.074 59.4H182.498L185.018 53.64H186.146L183.362 60H182.186ZM189.877 60.072C189.197 60.072 188.597 59.932 188.077 59.652C187.565 59.372 187.165 58.988 186.877 58.5C186.597 58.012 186.457 57.452 186.457 56.82C186.457 56.188 186.593 55.628 186.865 55.14C187.145 54.652 187.525 54.272 188.005 54C188.493 53.72 189.041 53.58 189.649 53.58C190.265 53.58 190.809 53.716 191.281 53.988C191.753 54.26 192.121 54.644 192.385 55.14C192.657 55.628 192.793 56.2 192.793 56.856C192.793 56.904 192.789 56.96 192.781 57.024C192.781 57.088 192.777 57.148 192.769 57.204H187.357V56.376H192.169L191.701 56.664C191.709 56.256 191.625 55.892 191.449 55.572C191.273 55.252 191.029 55.004 190.717 54.828C190.413 54.644 190.057 54.552 189.649 54.552C189.249 54.552 188.893 54.644 188.581 54.828C188.269 55.004 188.025 55.256 187.849 55.584C187.673 55.904 187.585 56.272 187.585 56.688V56.88C187.585 57.304 187.681 57.684 187.873 58.02C188.073 58.348 188.349 58.604 188.701 58.788C189.053 58.972 189.457 59.064 189.913 59.064C190.289 59.064 190.629 59 190.933 58.872C191.245 58.744 191.517 58.552 191.749 58.296L192.385 59.04C192.097 59.376 191.737 59.632 191.305 59.808C190.881 59.984 190.405 60.072 189.877 60.072ZM205.571 53.58C206.083 53.58 206.535 53.68 206.927 53.88C207.319 54.08 207.623 54.384 207.839 54.792C208.063 55.2 208.175 55.716 208.175 56.34V60H207.023V56.472C207.023 55.856 206.879 55.392 206.591 55.08C206.303 54.768 205.899 54.612 205.379 54.612C204.995 54.612 204.659 54.692 204.371 54.852C204.083 55.012 203.859 55.248 203.699 55.56C203.547 55.872 203.471 56.26 203.471 56.724V60H202.319V56.472C202.319 55.856 202.175 55.392 201.887 55.08C201.607 54.768 201.203 54.612 200.675 54.612C200.299 54.612 199.967 54.692 199.679 54.852C199.391 55.012 199.167 55.248 199.007 55.56C198.847 55.872 198.767 56.26 198.767 56.724V60H197.615V53.64H198.719V55.332L198.539 54.9C198.739 54.484 199.047 54.16 199.463 53.928C199.879 53.696 200.363 53.58 200.915 53.58C201.523 53.58 202.047 53.732 202.487 54.036C202.927 54.332 203.215 54.784 203.351 55.392L202.883 55.2C203.075 54.712 203.411 54.32 203.891 54.024C204.371 53.728 204.931 53.58 205.571 53.58ZM213.019 60.072C212.379 60.072 211.811 59.932 211.315 59.652C210.819 59.372 210.427 58.988 210.139 58.5C209.851 58.004 209.707 57.444 209.707 56.82C209.707 56.188 209.851 55.628 210.139 55.14C210.427 54.652 210.819 54.272 211.315 54C211.811 53.72 212.379 53.58 213.019 53.58C213.651 53.58 214.215 53.72 214.711 54C215.215 54.272 215.607 54.652 215.887 55.14C216.175 55.62 216.319 56.18 216.319 56.82C216.319 57.452 216.175 58.012 215.887 58.5C215.607 58.988 215.215 59.372 214.711 59.652C214.215 59.932 213.651 60.072 213.019 60.072ZM213.019 59.064C213.427 59.064 213.791 58.972 214.111 58.788C214.439 58.604 214.695 58.344 214.879 58.008C215.063 57.664 215.155 57.268 215.155 56.82C215.155 56.364 215.063 55.972 214.879 55.644C214.695 55.308 214.439 55.048 214.111 54.864C213.791 54.68 213.427 54.588 213.019 54.588C212.611 54.588 212.247 54.68 211.927 54.864C211.607 55.048 211.351 55.308 211.159 55.644C210.967 55.972 210.871 56.364 210.871 56.82C210.871 57.268 210.967 57.664 211.159 58.008C211.351 58.344 211.607 58.604 211.927 58.788C212.247 58.972 212.611 59.064 213.019 59.064ZM217.912 60V53.64H219.016V55.368L218.908 54.936C219.084 54.496 219.38 54.16 219.796 53.928C220.212 53.696 220.724 53.58 221.332 53.58V54.696C221.284 54.688 221.236 54.684 221.188 54.684C221.148 54.684 221.108 54.684 221.068 54.684C220.452 54.684 219.964 54.868 219.604 55.236C219.244 55.604 219.064 56.136 219.064 56.832V60H217.912ZM225.526 60.072C224.846 60.072 224.246 59.932 223.726 59.652C223.214 59.372 222.814 58.988 222.526 58.5C222.246 58.012 222.106 57.452 222.106 56.82C222.106 56.188 222.242 55.628 222.514 55.14C222.794 54.652 223.174 54.272 223.654 54C224.142 53.72 224.69 53.58 225.298 53.58C225.914 53.58 226.458 53.716 226.93 53.988C227.402 54.26 227.77 54.644 228.034 55.14C228.306 55.628 228.442 56.2 228.442 56.856C228.442 56.904 228.438 56.96 228.43 57.024C228.43 57.088 228.426 57.148 228.418 57.204H223.006V56.376H227.818L227.35 56.664C227.358 56.256 227.274 55.892 227.098 55.572C226.922 55.252 226.678 55.004 226.366 54.828C226.062 54.644 225.706 54.552 225.298 54.552C224.898 54.552 224.542 54.644 224.23 54.828C223.918 55.004 223.674 55.256 223.498 55.584C223.322 55.904 223.234 56.272 223.234 56.688V56.88C223.234 57.304 223.33 57.684 223.522 58.02C223.722 58.348 223.998 58.604 224.35 58.788C224.702 58.972 225.106 59.064 225.562 59.064C225.938 59.064 226.278 59 226.582 58.872C226.894 58.744 227.166 58.552 227.398 58.296L228.034 59.04C227.746 59.376 227.386 59.632 226.954 59.808C226.53 59.984 226.054 60.072 225.526 60.072ZM234.608 60L232.244 53.64H233.336L235.436 59.4H234.92L237.104 53.64H238.076L240.212 59.4H239.708L241.856 53.64H242.888L240.512 60H239.408L237.404 54.744H237.74L235.712 60H234.608ZM244.057 60V53.64H245.209V60H244.057ZM244.633 52.416C244.409 52.416 244.221 52.344 244.069 52.2C243.925 52.056 243.853 51.88 243.853 51.672C243.853 51.456 243.925 51.276 244.069 51.132C244.221 50.988 244.409 50.916 244.633 50.916C244.857 50.916 245.041 50.988 245.185 51.132C245.337 51.268 245.413 51.44 245.413 51.648C245.413 51.864 245.341 52.048 245.197 52.2C245.053 52.344 244.865 52.416 244.633 52.416ZM249.592 60.072C248.952 60.072 248.456 59.9 248.104 59.556C247.752 59.212 247.576 58.72 247.576 58.08V52.248H248.728V58.032C248.728 58.376 248.812 58.64 248.98 58.824C249.156 59.008 249.404 59.1 249.724 59.1C250.084 59.1 250.384 59 250.624 58.8L250.984 59.628C250.808 59.78 250.596 59.892 250.348 59.964C250.108 60.036 249.856 60.072 249.592 60.072ZM246.496 54.588V53.64H250.552V54.588H246.496ZM255.773 53.58C256.293 53.58 256.749 53.68 257.141 53.88C257.541 54.08 257.853 54.384 258.077 54.792C258.301 55.2 258.413 55.716 258.413 56.34V60H257.261V56.472C257.261 55.856 257.109 55.392 256.805 55.08C256.509 54.768 256.089 54.612 255.545 54.612C255.137 54.612 254.781 54.692 254.477 54.852C254.173 55.012 253.937 55.248 253.769 55.56C253.609 55.872 253.529 56.26 253.529 56.724V60H252.377V51.096H253.529V55.356L253.301 54.9C253.509 54.484 253.829 54.16 254.261 53.928C254.693 53.696 255.197 53.58 255.773 53.58ZM263.768 60V51.096H264.92V60H263.768ZM269.951 60.072C269.271 60.072 268.671 59.932 268.151 59.652C267.639 59.372 267.239 58.988 266.951 58.5C266.671 58.012 266.531 57.452 266.531 56.82C266.531 56.188 266.667 55.628 266.939 55.14C267.219 54.652 267.599 54.272 268.079 54C268.567 53.72 269.115 53.58 269.723 53.58C270.339 53.58 270.883 53.716 271.355 53.988C271.827 54.26 272.195 54.644 272.459 55.14C272.731 55.628 272.867 56.2 272.867 56.856C272.867 56.904 272.863 56.96 272.855 57.024C272.855 57.088 272.851 57.148 272.843 57.204H267.431V56.376H272.243L271.775 56.664C271.783 56.256 271.699 55.892 271.523 55.572C271.347 55.252 271.103 55.004 270.791 54.828C270.487 54.644 270.131 54.552 269.723 54.552C269.323 54.552 268.967 54.644 268.655 54.828C268.343 55.004 268.099 55.256 267.923 55.584C267.747 55.904 267.659 56.272 267.659 56.688V56.88C267.659 57.304 267.755 57.684 267.947 58.02C268.147 58.348 268.423 58.604 268.775 58.788C269.127 58.972 269.531 59.064 269.987 59.064C270.363 59.064 270.703 59 271.007 58.872C271.319 58.744 271.591 58.552 271.823 58.296L272.459 59.04C272.171 59.376 271.811 59.632 271.379 59.808C270.955 59.984 270.479 60.072 269.951 60.072ZM276.291 60.072C275.763 60.072 275.259 60 274.779 59.856C274.307 59.712 273.935 59.536 273.663 59.328L274.143 58.416C274.415 58.6 274.751 58.756 275.151 58.884C275.551 59.012 275.959 59.076 276.375 59.076C276.911 59.076 277.295 59 277.527 58.848C277.767 58.696 277.887 58.484 277.887 58.212C277.887 58.012 277.815 57.856 277.671 57.744C277.527 57.632 277.335 57.548 277.095 57.492C276.863 57.436 276.603 57.388 276.315 57.348C276.027 57.3 275.739 57.244 275.451 57.18C275.163 57.108 274.899 57.012 274.659 56.892C274.419 56.764 274.227 56.592 274.083 56.376C273.939 56.152 273.867 55.856 273.867 55.488C273.867 55.104 273.975 54.768 274.191 54.48C274.407 54.192 274.711 53.972 275.103 53.82C275.503 53.66 275.975 53.58 276.519 53.58C276.935 53.58 277.355 53.632 277.779 53.736C278.211 53.832 278.563 53.972 278.835 54.156L278.343 55.068C278.055 54.876 277.755 54.744 277.443 54.672C277.131 54.6 276.819 54.564 276.507 54.564C276.003 54.564 275.627 54.648 275.379 54.816C275.131 54.976 275.007 55.184 275.007 55.44C275.007 55.656 275.079 55.824 275.223 55.944C275.375 56.056 275.567 56.144 275.799 56.208C276.039 56.272 276.303 56.328 276.591 56.376C276.879 56.416 277.167 56.472 277.455 56.544C277.743 56.608 278.003 56.7 278.235 56.82C278.475 56.94 278.667 57.108 278.811 57.324C278.963 57.54 279.039 57.828 279.039 58.188C279.039 58.572 278.927 58.904 278.703 59.184C278.479 59.464 278.163 59.684 277.755 59.844C277.347 59.996 276.859 60.072 276.291 60.072ZM282.303 60.072C281.775 60.072 281.271 60 280.791 59.856C280.319 59.712 279.947 59.536 279.675 59.328L280.155 58.416C280.427 58.6 280.763 58.756 281.163 58.884C281.563 59.012 281.971 59.076 282.387 59.076C282.923 59.076 283.307 59 283.539 58.848C283.779 58.696 283.899 58.484 283.899 58.212C283.899 58.012 283.827 57.856 283.683 57.744C283.539 57.632 283.347 57.548 283.107 57.492C282.875 57.436 282.615 57.388 282.327 57.348C282.039 57.3 281.751 57.244 281.463 57.18C281.175 57.108 280.911 57.012 280.671 56.892C280.431 56.764 280.239 56.592 280.095 56.376C279.951 56.152 279.879 55.856 279.879 55.488C279.879 55.104 279.987 54.768 280.203 54.48C280.419 54.192 280.723 53.972 281.115 53.82C281.515 53.66 281.987 53.58 282.531 53.58C282.947 53.58 283.367 53.632 283.791 53.736C284.223 53.832 284.575 53.972 284.847 54.156L284.355 55.068C284.067 54.876 283.767 54.744 283.455 54.672C283.143 54.6 282.831 54.564 282.519 54.564C282.015 54.564 281.639 54.648 281.391 54.816C281.143 54.976 281.019 55.184 281.019 55.44C281.019 55.656 281.091 55.824 281.235 55.944C281.387 56.056 281.579 56.144 281.811 56.208C282.051 56.272 282.315 56.328 282.603 56.376C282.891 56.416 283.179 56.472 283.467 56.544C283.755 56.608 284.015 56.7 284.247 56.82C284.487 56.94 284.679 57.108 284.823 57.324C284.975 57.54 285.051 57.828 285.051 58.188C285.051 58.572 284.939 58.904 284.715 59.184C284.491 59.464 284.175 59.684 283.767 59.844C283.359 59.996 282.871 60.072 282.303 60.072Z" fill="#8B96A5"/>
</svg>
