<svg width="464" height="408" viewBox="0 0 464 408" fill="none" xmlns="http://www.w3.org/2000/svg">
<g clip-path="url(#clip0_178_19805)">
<g opacity="0.5">
<path d="M363.888 260.848H239.938V225.368H359.112L383.22 243.79L363.888 260.848Z" fill="url(#paint0_linear_178_19805)"/>
<path d="M239.906 152.518V260.718L271.023 242.152V134.554L239.906 152.518Z" fill="#A7B3D6"/>
<path d="M208.819 242.199L239.906 260.718V152.518L208.791 134.554L208.819 242.199Z" fill="white"/>
<path d="M208.791 134.554L239.906 116.652L271.022 134.554L239.906 152.518L208.791 134.554Z" fill="#D3D9EB"/>
<path d="M230.705 121.974L230.742 132.637L239.909 137.946L239.925 127.296L230.705 121.974Z" fill="white"/>
<path d="M239.925 116.652L249.142 121.974L239.925 127.296L230.705 121.974L239.925 116.652Z" fill="#D3D9EB"/>
<path d="M249.141 132.616L239.908 137.946L239.924 127.296L249.141 121.974V132.616Z" fill="#A7B3D6"/>
<path d="M239.908 137.947H254.201L261.527 133.387L249.141 127.296V132.616L239.908 137.947Z" fill="#A7B3D6"/>
<path d="M308.097 289.56H184.146V254.08H303.321L327.429 272.502L308.097 289.56Z" fill="url(#paint1_linear_178_19805)"/>
<path d="M184.115 181.23V289.429L215.232 270.863V163.266L184.115 181.23Z" fill="#A7B3D6"/>
<path d="M153.028 270.911L184.115 289.43V181.23L153 163.266L153.028 270.911Z" fill="white"/>
<path d="M153 163.266L184.115 145.364L215.231 163.266L184.115 181.23L153 163.266Z" fill="#D3D9EB"/>
<path d="M174.914 150.686L174.951 161.349L184.118 166.658L184.134 156.007L174.914 150.686Z" fill="white"/>
<path d="M184.134 145.364L193.351 150.686L184.134 156.008L174.914 150.686L184.134 145.364Z" fill="#D3D9EB"/>
<path d="M193.35 161.328L184.117 166.658L184.133 156.008L193.35 150.686V161.328Z" fill="#A7B3D6"/>
<path d="M184.117 166.658H198.41L205.736 162.099L193.35 156.008V161.328L184.117 166.658Z" fill="#A7B3D6"/>
<path d="M472.276 329.188L80.8173 555.431L80 488.715L472.276 262V329.188Z" fill="#7187AA"/>
<path d="M472.276 262.188L80.8173 488.431L80 421.715L472.276 195V262.188Z" fill="#7187AA"/>
<line x1="82.4992" y1="488.134" x2="483.499" y2="256.134" stroke="white" stroke-opacity="0.2" stroke-width="2"/>
<line x1="81.748" y1="419.836" x2="482.748" y2="187.836" stroke="#566687" stroke-width="5"/>
<path d="M294.654 268.408H281.687C281.58 268.408 281.489 268.331 281.472 268.226L279.914 258.533C279.9 258.445 279.942 258.356 280.02 258.311L302.648 245.226C302.722 245.183 302.815 245.188 302.884 245.239L306.526 247.882C306.594 247.931 306.684 247.937 306.758 247.897L311.619 245.251C311.718 245.197 311.841 245.227 311.903 245.32L316.505 252.191C316.572 252.291 316.545 252.426 316.445 252.493L311.996 255.445C311.888 255.516 311.867 255.666 311.95 255.766L318.397 263.404C318.483 263.506 318.457 263.66 318.344 263.73L302.882 273.151C302.813 273.193 302.727 273.193 302.658 273.152L294.765 268.439C294.732 268.419 294.693 268.408 294.654 268.408Z" fill="url(#paint2_linear_178_19805)"/>
<path d="M267 239.087L267.058 256.141L281.648 264.632L281.673 247.598L267 239.087Z" fill="#A6D887"/>
<path d="M281.673 230.576L296.343 239.087L281.673 247.597L267 239.086L281.673 230.576Z" fill="#CBF399"/>
<path d="M296.341 256.107L281.646 264.632L281.671 247.598L296.341 239.088V256.107Z" fill="#6D9D6C"/>
<path d="M270.92 229.051L270.955 239.172L279.614 244.212L279.629 234.102L270.92 229.051Z" fill="#A6D887"/>
<path d="M279.629 224L288.335 229.051L279.629 234.102L270.92 229.051L279.629 224Z" fill="#CBF399"/>
<path d="M288.337 239.152L279.615 244.211L279.63 234.102L288.337 229.051V239.152Z" fill="#6D9D6C"/>
<path d="M276.941 261.892V265.677L281.673 268.487L281.648 264.632L276.941 261.892Z" fill="#887543"/>
<path d="M281.671 268.487L286.795 265.595V261.645L281.646 264.632L281.671 268.487Z" fill="#6A4539"/>
<path d="M279.615 244.212L287.461 244.241L296.344 239.088L288.337 239.152L279.615 244.212Z" fill="#6D9D6C"/>
<path d="M113.92 341.225L96.4348 336.187C96.2592 336.137 96.2218 335.904 96.3726 335.801L147.908 300.54C147.975 300.494 148.062 300.49 148.134 300.528L183.195 319.57C183.265 319.608 183.308 319.681 183.308 319.76V338.328C183.308 338.426 183.242 338.512 183.147 338.537L162.654 343.961C162.632 343.967 162.609 343.97 162.586 343.968L113.968 341.233C113.952 341.233 113.936 341.23 113.92 341.225Z" fill="url(#paint3_linear_178_19805)"/>
<path d="M86.6055 325.669V297.672L105.091 267L123.577 276.326V304.323L86.6055 325.669Z" fill="black"/>
<path d="M114.318 341.666V313.669L132.804 282.998L151.29 292.324V320.321L114.318 341.666Z" fill="#A7B3D6"/>
<path d="M105.091 267L132.805 282.998L114.319 313.67L86.6055 297.672L105.091 267Z" fill="#E7EAF3"/>
<path d="M123.578 276.326L151.291 292.324L132.806 282.998L105.092 267L123.578 276.326Z" fill="#D3D9EB"/>
<path d="M114.319 313.67L86.6055 297.672V325.669L114.319 341.667V313.67Z" fill="#FDFDFD"/>
<path d="M86.6211 315L82 317.666L95.851 325.668L100.476 322.999L86.6211 315Z" fill="#D3D9EB"/>
<path d="M82 317.667V328.332L95.8556 336.332L95.851 325.668L82 317.667Z" fill="#FDFDFD"/>
<path d="M100.477 323V333.677L95.8562 336.333L95.8516 325.67L100.477 323Z" fill="#A7B3D6"/>
<path d="M414.26 175.303L399.876 171.159C399.731 171.117 399.7 170.926 399.825 170.841L442.219 141.834C442.274 141.797 442.346 141.793 442.404 141.825L471.247 157.489C471.304 157.52 471.34 157.58 471.34 157.645V172.919C471.34 173 471.285 173.071 471.207 173.091L454.349 177.554C454.331 177.559 454.312 177.56 454.293 177.559L414.299 175.31C414.286 175.309 414.272 175.307 414.26 175.303Z" fill="url(#paint4_linear_178_19805)"/>
<path d="M391.785 162.507V139.475L406.992 114.244L422.198 121.916V144.947L391.785 162.507Z" fill="black"/>
<path d="M414.584 175.667V152.636L429.791 127.405L444.998 135.077V158.107L414.584 175.667Z" fill="#A7B3D6"/>
<path d="M406.992 114.244L429.789 127.405L414.583 152.636L391.785 139.475L406.992 114.244Z" fill="#E7EAF3"/>
<path d="M422.196 121.916L444.994 135.076L429.787 127.405L406.989 114.244L422.196 121.916Z" fill="#D3D9EB"/>
<path d="M414.583 152.637L391.785 139.476V162.507L414.583 175.668V152.637Z" fill="#FDFDFD"/>
<path d="M391.797 153.731L387.996 155.924L399.39 162.507L403.195 160.311L391.797 153.731Z" fill="#D3D9EB"/>
<path d="M387.996 155.924V164.698L399.394 171.278L399.39 162.506L387.996 155.924Z" fill="#FDFDFD"/>
<path d="M403.196 160.311V169.094L399.394 171.279L399.391 162.507L403.196 160.311Z" fill="#A7B3D6"/>
<path d="M161.202 362.686H142.934C142.8 362.686 142.685 362.588 142.664 362.456L140.466 348.878C140.448 348.766 140.501 348.654 140.6 348.597L172.451 330.306C172.544 330.252 172.66 330.258 172.748 330.321L177.902 334.036C177.987 334.097 178.1 334.105 178.192 334.055L185.072 330.336C185.196 330.269 185.351 330.307 185.43 330.424L191.932 340.064C192.017 340.191 191.983 340.363 191.855 340.447L185.549 344.602C185.412 344.693 185.384 344.883 185.491 345.009L194.596 355.723C194.706 355.852 194.674 356.048 194.529 356.135L172.745 369.319C172.658 369.371 172.55 369.371 172.463 369.32L161.342 362.725C161.3 362.699 161.251 362.686 161.202 362.686Z" fill="url(#paint5_linear_178_19805)"/>
<path d="M124.127 326.181L124.2 347.679L142.663 358.383L142.694 336.91L124.127 326.181Z" fill="#D1D7E0"/>
<path d="M142.694 315.454L161.258 326.182L142.694 336.91L124.127 326.181L142.694 315.454Z" fill="#AEBBCE"/>
<path d="M161.257 347.636L142.662 358.383L142.694 336.91L161.257 326.182V347.636Z" fill="#78869B"/>
<path d="M136.707 354.93V359.701L142.695 363.243L142.663 358.383L136.707 354.93Z" fill="#887543"/>
<path d="M142.694 363.242L149.177 359.595V354.617L142.662 358.382L142.694 363.242Z" fill="#6A4539"/>
<path d="M124.127 326.181L124.2 347.679L142.663 358.383L142.694 336.91L124.127 326.181Z" fill="#A6D887"/>
<path d="M142.694 315.454L161.258 326.182L142.694 336.91L124.127 326.181L142.694 315.454Z" fill="#CBF399"/>
<path d="M161.257 347.636L142.662 358.383L142.694 336.91L161.257 326.182V347.636Z" fill="#6D9D6C"/>
<path d="M137.369 315.447L137.406 326.2L146.64 331.553L146.656 320.813L137.369 315.447Z" fill="#A6D887"/>
<path d="M146.656 310.081L155.941 315.447L146.656 320.813L137.369 315.447L146.656 310.081Z" fill="#CBF399"/>
<path d="M155.941 326.178L146.641 331.553L146.656 320.814L155.941 315.448V326.178Z" fill="#6D9D6C"/>
<path d="M161.251 336.911L157.586 339.118L162.154 341.668L168.83 337.535L161.253 332.963L161.251 336.911Z" fill="#6D9D6C"/>
<path d="M162.154 341.668V352.462L157.586 349.757V339.118L162.154 341.668Z" fill="#A6D887"/>
<path d="M162.154 352.461L168.83 348.346V337.534L162.154 341.667V352.461Z" fill="#6D9D6C"/>
<path d="M155.941 326.178L161.258 326.183L152.278 331.372L146.641 331.553L155.941 326.178Z" fill="#6D9D6C"/>
<path d="M94.5 339.478L94.5694 359.879L112.023 370.036L112.053 349.66L94.5 339.478Z" fill="#CBF399"/>
<path d="M112.053 329.297L129.602 339.478L112.053 349.659L94.5 339.477L112.053 329.297Z" fill="#E8FFCB"/>
<path d="M129.602 359.838L112.023 370.037L112.053 349.66L129.602 339.479V359.838Z" fill="#9DCC80"/>
<path d="M99.1895 327.472L99.2311 339.58L109.59 345.609L109.608 333.515L99.1895 327.472Z" fill="#CBF399"/>
<path d="M109.608 321.43L120.023 327.473L109.608 333.515L99.1895 327.472L109.608 321.43Z" fill="#E8FFCB"/>
<path d="M120.023 339.555L109.59 345.608L109.608 333.515L120.023 327.472V339.555Z" fill="#9DCC80"/>
<path d="M106.393 366.759V371.286L112.053 374.648L112.023 370.036L106.393 366.759Z" fill="#887543"/>
<path d="M112.053 374.649L118.182 371.189V366.464L112.023 370.037L112.053 374.649Z" fill="#6A4539"/>
<path d="M109.59 345.609L118.975 345.644L129.602 339.479L120.023 339.556L109.59 345.609Z" fill="#9DCC80"/>
<path d="M127.581 374.553H112.069C111.941 374.553 111.832 374.461 111.812 374.334L109.948 362.74C109.931 362.634 109.982 362.528 110.075 362.474L137.144 346.821C137.233 346.77 137.343 346.776 137.427 346.836L141.783 349.998C141.864 350.056 141.972 350.063 142.06 350.016L147.875 346.85C147.993 346.786 148.141 346.822 148.216 346.934L153.721 355.153C153.801 355.272 153.769 355.434 153.648 355.514L148.327 359.045C148.197 359.131 148.172 359.31 148.272 359.429L155.983 368.566C156.086 368.688 156.056 368.873 155.92 368.956L137.424 380.227C137.341 380.277 137.238 380.277 137.155 380.228L127.714 374.59C127.674 374.566 127.628 374.553 127.581 374.553Z" fill="url(#paint6_linear_178_19805)"/>
<path d="M199.113 412.614L173.267 397.897C172.737 397.595 172.763 396.822 173.312 396.556L231.131 368.568C231.351 368.461 231.61 368.467 231.825 368.585L265.445 387.022C265.98 387.315 265.966 388.088 265.421 388.363L217.25 412.632C217.144 412.686 217.027 412.713 216.909 412.713H199.488C199.356 412.713 199.227 412.679 199.113 412.614Z" fill="url(#paint7_linear_178_19805)"/>
<g filter="url(#filter0_f_178_19805)">
<path d="M202.691 412.066L174.283 395.525C173.78 395.232 173.782 394.504 174.287 394.214L215.566 370.469C215.805 370.332 216.1 370.335 216.336 370.478L243.656 387.014C244.146 387.311 244.142 388.023 243.649 388.314L203.458 412.064C203.221 412.203 202.928 412.204 202.691 412.066Z" fill="black" fill-opacity="0.2"/>
</g>
<path d="M170.879 393.631L174.266 391.676L183.953 386.083L201.414 376.002L211.101 370.409L214.282 368.572V360.248L212.02 359.563L208.726 336.915L171.706 358.288L170.879 393.631ZM210.798 360.206L200.513 366.144V343.412L207.558 339.344L210.798 360.206ZM187.332 351.022L198.86 344.366V367.098L187.332 373.754L187.332 351.022ZM174.175 358.618L185.703 351.962V374.694L174.175 381.35V358.618Z" fill="#EDF0F7"/>
<path d="M237.698 385.765L231.262 382.114L237.698 379.559L238.764 382.924L237.698 385.765Z" fill="#1A3073"/>
<path d="M210.549 401.439L204.125 396.373L211.537 395.276L210.549 401.439Z" fill="#1A3073"/>
<path d="M198.121 405.025C198.121 402.026 200.227 398.378 202.825 396.878C204.105 396.139 205.266 396.061 206.114 396.53L206.115 396.529L208.932 397.955L207.478 400.41C207.172 403.024 205.464 405.922 203.329 407.418L202.16 409.393L199.663 408.156L199.659 408.154L199.619 408.134L199.62 408.133C198.698 407.674 198.121 406.594 198.121 405.025Z" fill="#2F3A44"/>
<path d="M208.753 405.519C210.59 402.338 210.59 398.899 208.753 397.839C206.916 396.778 203.938 398.498 202.101 401.679C200.264 404.86 200.264 408.299 202.101 409.36C203.938 410.42 206.916 408.701 208.753 405.519Z" fill="#424F59"/>
<path d="M206.989 404.501C207.852 403.006 207.852 401.391 206.989 400.892C206.126 400.394 204.726 401.202 203.863 402.697C203 404.192 203 405.807 203.863 406.306C204.726 406.804 206.126 405.996 206.989 404.501Z" fill="white"/>
<path d="M205.117 405.972C206.337 405.268 207.327 403.554 207.327 402.145C207.327 401.531 207.139 401.077 206.827 400.817C207.321 400.999 207.636 401.528 207.636 402.323C207.636 403.733 206.647 405.446 205.426 406.151C204.737 406.549 204.122 406.54 203.717 406.203C204.098 406.344 204.586 406.279 205.117 405.972Z" fill="#D9E2ED"/>
<path d="M203.217 404.875C203.217 403.466 204.206 401.752 205.427 401.048C205.958 400.741 206.446 400.676 206.827 400.817C207.139 401.077 207.327 401.531 207.327 402.145C207.327 403.554 206.338 405.268 205.117 405.973C204.586 406.279 204.098 406.344 203.717 406.203C203.405 405.944 203.217 405.489 203.217 404.875Z" fill="white"/>
<path d="M225.156 389.305C225.156 386.305 227.262 382.658 229.86 381.158C231.141 380.419 232.301 380.341 233.15 380.81L233.15 380.809L235.967 382.234L234.513 384.69C234.207 387.304 232.499 390.202 230.365 391.697L229.195 393.672L226.699 392.436L226.694 392.434L226.654 392.414L226.655 392.413C225.733 391.954 225.156 390.874 225.156 389.305Z" fill="#2F3A44"/>
<path d="M235.788 389.799C237.625 386.618 237.625 383.179 235.788 382.118C233.951 381.058 230.973 382.777 229.136 385.959C227.3 389.14 227.3 392.579 229.136 393.639C230.973 394.7 233.951 392.981 235.788 389.799Z" fill="#424F59"/>
<path d="M234.024 388.781C234.887 387.287 234.887 385.671 234.024 385.173C233.161 384.674 231.762 385.482 230.899 386.977C230.036 388.472 230.036 390.088 230.899 390.586C231.762 391.084 233.161 390.276 234.024 388.781Z" fill="white"/>
<path d="M232.152 390.252C233.373 389.548 234.362 387.834 234.362 386.425C234.362 385.811 234.174 385.356 233.862 385.097C234.356 385.279 234.672 385.808 234.672 386.603C234.672 388.013 233.682 389.726 232.462 390.431C231.773 390.829 231.157 390.82 230.752 390.483C231.133 390.624 231.621 390.559 232.152 390.252Z" fill="#D9E2ED"/>
<path d="M230.252 389.155C230.252 387.746 231.241 386.032 232.462 385.328C232.993 385.021 233.481 384.956 233.862 385.097C234.175 385.357 234.362 385.811 234.362 386.425C234.362 387.834 233.373 389.548 232.152 390.252C231.621 390.559 231.133 390.624 230.752 390.483C230.44 390.223 230.252 389.769 230.252 389.155Z" fill="white"/>
<path d="M179.939 388.399L195.323 397.331L200.772 396.706L237.395 375.562L233.639 377.272L214.291 366.144L179.939 388.399Z" fill="#8695A5"/>
<path d="M185.703 391.746L195.323 397.331L200.771 396.707L237.394 375.563L233.639 377.273L222.023 370.591L185.703 391.746Z" fill="#8695A5"/>
<path d="M188.34 382.956L200.179 387.367L208.667 390.304L237.394 375.562L233.639 377.272L214.29 366.144L188.34 382.956Z" fill="#6B7C8C"/>
<path d="M237.298 374.94L218.199 363.913L214.291 366.144L214.283 368.572L232.186 378.57L237.395 375.562L237.298 374.94Z" fill="#AEC1D3"/>
<path d="M200.771 396.707V394.875L237.134 373.887L237.394 375.562L200.771 396.707Z" fill="#D3D9EB"/>
<path d="M238.615 374.92L235.322 352.271L198.301 373.645L197.475 408.988L200.861 407.032C200.799 406.688 200.768 406.339 200.769 405.989C200.769 402.841 202.979 399.013 205.705 397.439C208.431 395.865 210.641 397.141 210.641 400.289C210.64 400.674 210.609 401.059 210.549 401.439L228.01 391.358C227.947 391.014 227.916 390.665 227.917 390.315C227.917 387.167 230.127 383.339 232.853 381.765C235.579 380.191 237.789 381.467 237.789 384.615C237.788 385 237.757 385.385 237.697 385.765L240.878 383.929V375.604L238.615 374.92ZM212.299 390.051L200.771 396.707V373.975L212.299 367.319V390.051ZM225.456 382.455L213.927 389.111V366.379L225.456 359.723L225.456 382.455ZM227.109 381.5V358.768L234.154 354.701L237.394 375.562L227.109 381.5Z" fill="#7B8CC2"/>
<path d="M170.879 393.631L197.475 408.988L198.302 373.645L171.706 358.288L170.879 393.631ZM173.008 384.447L173.78 362.369L196.095 375.253L195.323 397.331L173.008 384.447Z" fill="#FBFBFB"/>
<path d="M171.705 358.288L208.725 336.915L235.322 352.271L198.301 373.645L171.705 358.288Z" fill="#D3D9EB"/>
<path d="M173.008 384.446L174.483 383.638L175.39 363.299L173.779 362.369L173.008 384.446Z" fill="#7B8CC2"/>
<path d="M237.395 375.562L235.823 374.644L232.783 355.493L234.156 354.701L237.395 375.562Z" fill="#FBFBFB"/>
<path d="M212.3 390.051L210.775 389.1V368.403L212.3 367.434V390.051Z" fill="#FBFBFB"/>
<path d="M225.457 382.455L223.891 381.531V360.622L225.457 359.723V382.455Z" fill="#FBFBFB"/>
<path d="M174.483 383.638L195.383 395.595L195.322 397.331L173.008 384.447L174.483 383.638Z" fill="#D3D9EB"/>
<path d="M196.544 401.659L194.953 400.739C194.921 400.721 194.886 400.712 194.85 400.712C194.814 400.712 194.778 400.721 194.747 400.739C194.716 400.757 194.69 400.783 194.672 400.815C194.654 400.846 194.645 400.881 194.645 400.917V404.844C194.645 404.88 194.654 404.916 194.672 404.947C194.69 404.978 194.716 405.004 194.747 405.022L196.519 406.046L196.544 401.659Z" fill="#A31629"/>
<path d="M171.848 387.367L173.613 388.386C173.654 388.41 173.688 388.444 173.711 388.485C173.735 388.526 173.748 388.572 173.748 388.619V392.386C173.748 392.433 173.735 392.48 173.711 392.521C173.688 392.562 173.654 392.596 173.613 392.619C173.572 392.643 173.525 392.655 173.478 392.655C173.431 392.655 173.384 392.643 173.343 392.619L171.848 391.755V387.367Z" fill="#A31629"/>
<path d="M179.693 393.001L188.335 397.995V400.226V400.712L179.301 395.491V392.774L179.693 393.001Z" fill="#F9C03A"/>
<path d="M188.336 397.996L188.701 397.707V400.424L188.336 400.712V397.996Z" fill="#BB902C"/>
<path d="M188.335 397.996L179.301 392.775L179.666 392.486L188.7 397.707L188.335 397.996Z" fill="#FBD989"/>
<path opacity="0.8" d="M175.39 363.3L174.482 383.638L195.383 395.595L196.094 375.254L175.39 363.3Z" fill="#091026" fill-opacity="0.8"/>
<path opacity="0.9" d="M210.775 368.403V389.101L200.771 394.875V373.975L210.775 368.403Z" fill="#091026" fill-opacity="0.8"/>
<path opacity="0.9" d="M223.889 360.623V381.532L213.928 387.281V366.379" fill="#091026" fill-opacity="0.8"/>
<path opacity="0.9" d="M227.109 379.728L235.822 374.645L232.782 355.493L227.109 358.768V379.728Z" fill="#091026" fill-opacity="0.8"/>
<path d="M329.767 405.846L339.28 411.365L329.767 416.884L320.252 411.365L329.767 405.846Z" fill="#E8FFCB"/>
<path d="M190.687 305.54H175.568C175.456 305.54 175.361 305.459 175.344 305.349L173.525 294.112C173.51 294.019 173.554 293.926 173.636 293.879L199.997 278.74C200.075 278.696 200.171 278.7 200.243 278.753L204.509 281.827C204.58 281.878 204.673 281.884 204.75 281.843L210.443 278.765C210.546 278.709 210.674 278.741 210.74 278.838L216.121 286.817C216.192 286.921 216.163 287.064 216.058 287.133L210.839 290.572C210.725 290.647 210.702 290.805 210.791 290.909L218.327 299.777C218.417 299.883 218.391 300.046 218.271 300.118L200.241 311.03C200.169 311.073 200.08 311.073 200.007 311.031L190.803 305.572C190.768 305.551 190.728 305.54 190.687 305.54Z" fill="url(#paint8_linear_178_19805)"/>
<path d="M160 275.325L160.06 293.118L175.341 301.977L175.367 284.206L160 275.325Z" fill="#D1D7E0"/>
<path d="M175.367 266.446L190.731 275.326L175.367 284.205L160 275.325L175.367 266.446Z" fill="#AEBBCE"/>
<path d="M190.731 293.082L175.341 301.977L175.367 284.205L190.731 275.326V293.082Z" fill="#78869B"/>
<path d="M170.411 299.119V303.068L175.367 305.999L175.341 301.977L170.411 299.119Z" fill="#7D601D"/>
<path d="M175.367 305.999L180.733 302.981V298.861L175.341 301.977L175.367 305.999Z" fill="#3E300E"/>
<path d="M160 275.325L160.06 293.118L175.341 301.977L175.367 284.206L160 275.325Z" fill="#A6D887"/>
<path d="M175.367 266.446L190.731 275.326L175.367 284.205L160 275.325L175.367 266.446Z" fill="#CBF399"/>
<path d="M190.731 293.082L175.341 301.977L175.367 284.205L190.731 275.326V293.082Z" fill="#6D9D6C"/>
<path d="M170.96 266.44L170.99 275.34L178.633 279.771L178.646 270.882L170.96 266.44Z" fill="#A6D887"/>
<path d="M178.646 262L186.331 266.441L178.646 270.882L170.96 266.441L178.646 262Z" fill="#CBF399"/>
<path d="M186.331 275.323L178.633 279.771L178.646 270.882L186.331 266.441V275.323Z" fill="#6D9D6C"/>
<path d="M190.727 284.205L187.693 286.032L191.474 288.143L196.999 284.722L190.728 280.938L190.727 284.205Z" fill="#6D9D6C"/>
<path d="M191.474 288.143V297.077L187.693 294.838V286.033L191.474 288.143Z" fill="#A6D887"/>
<path d="M191.474 297.076L196.999 293.671V284.722L191.474 288.143V297.076Z" fill="#6D9D6C"/>
<path d="M186.331 275.322L190.732 275.326L183.299 279.621L178.633 279.771L186.331 275.322Z" fill="#6D9D6C"/>
<path d="M62.6872 395.54H47.5678C47.4564 395.54 47.3614 395.459 47.3436 395.349L45.5246 384.112C45.5095 384.019 45.5537 383.926 45.6357 383.879L71.9975 368.74C72.0748 368.696 72.171 368.7 72.2434 368.753L76.509 371.827C76.5796 371.878 76.6732 371.884 76.7498 371.843L82.4434 368.765C82.5462 368.709 82.6743 368.741 82.7397 368.838L88.1212 376.817C88.1918 376.921 88.1634 377.064 88.0578 377.133L82.8388 380.572C82.7249 380.647 82.7024 380.805 82.7907 380.909L90.3268 389.777C90.4174 389.883 90.391 390.046 90.2713 390.118L72.2409 401.03C72.1693 401.073 72.0795 401.073 72.0075 401.031L62.8031 395.572C62.768 395.551 62.728 395.54 62.6872 395.54Z" fill="url(#paint9_linear_178_19805)"/>
<path d="M31.9995 365.325L32.0603 383.118L47.3409 391.977L47.367 374.206L31.9995 365.325Z" fill="#D1D7E0"/>
<path d="M47.367 356.446L62.7314 365.326L47.367 374.205L31.9995 365.325L47.367 356.446Z" fill="#AEBBCE"/>
<path d="M62.7313 383.082L47.3408 391.977L47.3669 374.205L62.7313 365.326V383.082Z" fill="#78869B"/>
<path d="M42.4111 389.119V393.068L47.367 395.999L47.3409 391.977L42.4111 389.119Z" fill="#7D601D"/>
<path d="M47.3669 395.999L52.7327 392.981V388.861L47.3408 391.977L47.3669 395.999Z" fill="#3E300E"/>
<path d="M31.9995 365.325L32.0603 383.118L47.3409 391.977L47.367 374.206L31.9995 365.325Z" fill="#A6D887"/>
<path d="M47.367 356.446L62.7314 365.326L47.367 374.205L31.9995 365.325L47.367 356.446Z" fill="#CBF399"/>
<path d="M62.7313 383.082L47.3408 391.977L47.3669 374.205L62.7313 365.326V383.082Z" fill="#6D9D6C"/>
<path d="M42.96 356.44L42.9901 365.34L50.6334 369.771L50.6464 360.882L42.96 356.44Z" fill="#A6D887"/>
<path d="M50.6464 352L58.3311 356.441L50.6464 360.882L42.96 356.441L50.6464 352Z" fill="#CBF399"/>
<path d="M58.331 365.323L50.6333 369.771L50.6464 360.882L58.331 356.441V365.323Z" fill="#6D9D6C"/>
<path d="M62.7268 374.205L59.6934 376.032L63.4738 378.143L68.9994 374.722L62.7282 370.938L62.7268 374.205Z" fill="#6D9D6C"/>
<path d="M63.4738 378.143V387.077L59.6934 384.838V376.033L63.4738 378.143Z" fill="#A6D887"/>
<path d="M63.4736 387.076L68.9992 383.671V374.722L63.4736 378.143V387.076Z" fill="#6D9D6C"/>
<path d="M58.331 365.322L62.7316 365.326L55.2994 369.621L50.6333 369.771L58.331 365.322Z" fill="#6D9D6C"/>
<path d="M385.215 233.917H371.516C371.403 233.917 371.307 233.835 371.289 233.723L369.643 223.484C369.628 223.39 369.672 223.296 369.755 223.249L393.66 209.425C393.739 209.38 393.837 209.385 393.91 209.438L397.757 212.23C397.829 212.282 397.924 212.288 398.002 212.246L403.138 209.451C403.242 209.394 403.372 209.426 403.438 209.525L408.3 216.783C408.371 216.889 408.342 217.032 408.236 217.102L403.537 220.22C403.422 220.296 403.4 220.455 403.488 220.56L410.298 228.629C410.389 228.737 410.363 228.9 410.242 228.973L393.908 238.927C393.835 238.971 393.744 238.972 393.67 238.928L385.333 233.949C385.297 233.928 385.256 233.917 385.215 233.917Z" fill="url(#paint10_linear_178_19805)"/>
<path d="M356 202.939L356.061 220.956L371.475 229.927L371.502 211.931L356 202.939Z" fill="#A6D887"/>
<path d="M371.502 193.949L387 202.94L371.502 211.931L356 202.939L371.502 193.949Z" fill="#CBF399"/>
<path d="M387 220.92L371.475 229.927L371.501 211.931L387 202.94V220.92Z" fill="#6D9D6C"/>
<path d="M360.142 192.336L360.179 203.03L369.327 208.353L369.343 197.673L360.142 192.336Z" fill="#A6D887"/>
<path d="M369.343 187L378.541 192.337L369.343 197.673L360.142 192.336L369.343 187Z" fill="#CBF399"/>
<path d="M378.541 203.008L369.327 208.354L369.343 197.673L378.541 192.337V203.008Z" fill="#6D9D6C"/>
<path d="M366.502 227.033V231.031L371.502 234L371.475 229.927L366.502 227.033Z" fill="#7D601D"/>
<path d="M371.501 234L376.914 230.944V226.771L371.475 229.927L371.501 234Z" fill="#3E300E"/>
<path d="M369.327 208.353L377.615 208.384L387 202.94L378.541 203.008L369.327 208.353Z" fill="#6D9D6C"/>
<path d="M412.687 209.54H397.568C397.456 209.54 397.361 209.459 397.344 209.349L395.525 198.112C395.51 198.019 395.554 197.926 395.636 197.879L421.997 182.74C422.075 182.696 422.171 182.7 422.243 182.753L426.509 185.827C426.58 185.878 426.673 185.884 426.75 185.843L432.443 182.765C432.546 182.709 432.674 182.741 432.74 182.838L438.121 190.817C438.192 190.921 438.163 191.064 438.058 191.133L432.839 194.572C432.725 194.647 432.702 194.805 432.791 194.909L440.327 203.777C440.417 203.883 440.391 204.046 440.271 204.118L422.241 215.03C422.169 215.073 422.08 215.073 422.007 215.031L412.803 209.572C412.768 209.551 412.728 209.54 412.687 209.54Z" fill="url(#paint11_linear_178_19805)"/>
<path d="M382 179.325L382.06 197.118L397.341 205.977L397.367 188.206L382 179.325Z" fill="#D1D7E0"/>
<path d="M397.367 170.446L412.731 179.326L397.367 188.205L382 179.325L397.367 170.446Z" fill="#AEBBCE"/>
<path d="M412.731 197.082L397.341 205.977L397.367 188.205L412.731 179.326V197.082Z" fill="#78869B"/>
<path d="M392.411 203.119V207.068L397.367 209.999L397.341 205.977L392.411 203.119Z" fill="#7D601D"/>
<path d="M397.367 209.999L402.733 206.981V202.861L397.341 205.977L397.367 209.999Z" fill="#3E300E"/>
<path d="M382 179.325L382.06 197.118L397.341 205.977L397.367 188.206L382 179.325Z" fill="#CBF399"/>
<path d="M397.367 170.446L412.731 179.326L397.367 188.205L382 179.325L397.367 170.446Z" fill="#E8FFCB"/>
<path d="M412.731 197.082L397.341 205.977L397.367 188.205L412.731 179.326V197.082Z" fill="#9DCC80"/>
<path d="M392.96 170.44L392.99 179.34L400.633 183.771L400.646 174.882L392.96 170.44Z" fill="#CBF399"/>
<path d="M400.646 166L408.331 170.441L400.646 174.882L392.96 170.441L400.646 166Z" fill="#E8FFCB"/>
<path d="M408.331 179.323L400.633 183.771L400.646 174.882L408.331 170.441V179.323Z" fill="#9DCC80"/>
<path d="M412.727 188.205L409.693 190.032L413.474 192.143L418.999 188.722L412.728 184.938L412.727 188.205Z" fill="#9DCC80"/>
<path d="M413.474 192.143V201.077L409.693 198.838V190.033L413.474 192.143Z" fill="#CBF399"/>
<path d="M413.474 201.076L418.999 197.671V188.722L413.474 192.143V201.076Z" fill="#9DCC80"/>
<path d="M408.331 179.322L412.732 179.326L405.299 183.621L400.633 183.771L408.331 179.322Z" fill="#9DCC80"/>
<path d="M355.215 232.917H341.516C341.403 232.917 341.307 232.835 341.289 232.723L339.643 222.484C339.628 222.39 339.672 222.296 339.755 222.249L363.66 208.425C363.739 208.38 363.837 208.385 363.91 208.438L367.757 211.23C367.829 211.282 367.924 211.288 368.002 211.246L373.138 208.451C373.242 208.394 373.372 208.426 373.438 208.525L378.3 215.783C378.371 215.889 378.342 216.032 378.236 216.102L373.537 219.22C373.422 219.296 373.4 219.455 373.488 219.56L380.298 227.629C380.389 227.737 380.363 227.9 380.242 227.973L363.908 237.927C363.835 237.971 363.744 237.972 363.67 237.928L355.333 232.949C355.297 232.928 355.256 232.917 355.215 232.917Z" fill="url(#paint12_linear_178_19805)"/>
<path d="M326 201.939L326.061 219.956L341.475 228.927L341.502 210.931L326 201.939Z" fill="#CBF399"/>
<path d="M341.502 192.949L357 201.94L341.502 210.931L326 201.939L341.502 192.949Z" fill="#E8FFCB"/>
<path d="M357 219.92L341.475 228.927L341.501 210.931L357 201.94V219.92Z" fill="#9DCC80"/>
<path d="M330.142 191.336L330.179 202.03L339.327 207.353L339.343 196.673L330.142 191.336Z" fill="#CBF399"/>
<path d="M339.343 186L348.541 191.337L339.343 196.673L330.142 191.336L339.343 186Z" fill="#E8FFCB"/>
<path d="M348.541 202.008L339.327 207.354L339.343 196.673L348.541 191.337V202.008Z" fill="#9DCC80"/>
<path d="M336.502 226.033V230.031L341.502 233L341.475 228.927L336.502 226.033Z" fill="#7D601D"/>
<path d="M341.501 233L346.914 229.944V225.771L341.475 228.927L341.501 233Z" fill="#3E300E"/>
<path d="M339.327 207.353L347.615 207.384L357 201.94L348.541 202.008L339.327 207.353Z" fill="#9DCC80"/>
<path d="M446.138 269.132C446.083 269.1 446.016 269.1 445.961 269.132L443 270.841C442.941 270.875 442.868 270.873 442.812 270.835L437.997 267.571C437.98 267.56 437.962 267.551 437.943 267.546L396.313 256.541C396.298 256.537 396.283 256.535 396.267 256.535H336.704C336.607 256.535 336.527 256.614 336.527 256.712V258.954C336.527 259.051 336.607 259.131 336.704 259.131H395.245C395.26 259.131 395.274 259.133 395.289 259.136L435.076 269.391C435.095 269.396 435.114 269.404 435.13 269.416L439.66 272.476C439.769 272.549 439.763 272.71 439.65 272.776L436.275 274.724C436.157 274.792 436.157 274.962 436.274 275.03L441.782 278.236C441.837 278.268 441.905 278.268 441.96 278.236L451.646 272.644C451.764 272.576 451.764 272.406 451.646 272.338L446.138 269.132Z" fill="url(#paint13_linear_178_19805)"/>
<path d="M336.526 259.131L334 257.672V195.243L336.526 196.701V259.131Z" fill="#D3D9EB"/>
<path d="M339.053 257.672L336.527 259.131V196.701L339.053 195.243V257.672Z" fill="#A7B3D6"/>
<path d="M336.526 196.723L334 195.265L349.931 186.064L352.457 187.523L336.526 196.723Z" fill="#D3D9EB"/>
<path d="M349.914 186.075L352.44 184.617L360.805 189.473L360.83 192.404L349.914 186.075Z" fill="#D3D9EB"/>
<path d="M363.569 187.848L360.814 189.473L352.418 184.626L355.172 183L363.569 187.848Z" fill="#E5E8F3"/>
<path d="M363.568 190.779L360.791 192.404V189.472L363.568 187.847V190.779Z" fill="#7B8CC2"/>
<path d="M356.861 194.035L356.886 191.126L362.722 194.546L362.735 197.477L356.861 194.035Z" fill="#D3D9EB"/>
<path d="M372.761 188.75L362.722 194.546L356.861 191.135L366.901 185.339L372.761 188.75Z" fill="#E5E8F3"/>
<path d="M372.796 191.673L362.736 197.477L362.723 194.546L372.761 188.75L372.796 191.673Z" fill="#F0F2F7"/>
<path d="M201.138 411.132C201.083 411.1 201.016 411.1 200.961 411.132L198 412.841C197.941 412.875 197.868 412.873 197.812 412.835L192.997 409.571C192.98 409.56 192.962 409.551 192.943 409.546L151.313 398.541C151.298 398.537 151.283 398.535 151.267 398.535H91.7042C91.6065 398.535 91.5273 398.614 91.5273 398.712V400.954C91.5273 401.051 91.6065 401.131 91.7042 401.131H150.245C150.26 401.131 150.274 401.133 150.289 401.136L190.076 411.391C190.095 411.396 190.114 411.404 190.13 411.416L194.66 414.476C194.769 414.549 194.763 414.71 194.65 414.776L191.275 416.724C191.157 416.792 191.157 416.962 191.274 417.03L196.782 420.236C196.837 420.268 196.905 420.268 196.96 420.236L206.646 414.644C206.764 414.576 206.764 414.406 206.646 414.338L201.138 411.132Z" fill="url(#paint14_linear_178_19805)"/>
<path d="M91.5263 401.131L89 399.672V337.243L91.5263 338.701V401.131Z" fill="#D3D9EB"/>
<path d="M94.0531 399.672L91.5273 401.131V338.701L94.0531 337.243V399.672Z" fill="#A7B3D6"/>
<path d="M91.5263 338.723L89 337.265L104.931 328.064L107.457 329.523L91.5263 338.723Z" fill="#D3D9EB"/>
<path d="M104.914 328.075L107.44 326.617L115.805 331.473L115.83 334.404L104.914 328.075Z" fill="#D3D9EB"/>
<path d="M118.569 329.848L115.814 331.473L107.418 326.626L110.172 325L118.569 329.848Z" fill="#E5E8F3"/>
<path d="M118.568 332.779L115.791 334.404V331.472L118.568 329.847V332.779Z" fill="#7B8CC2"/>
<path d="M111.861 336.035L111.886 333.126L117.722 336.546L117.735 339.477L111.861 336.035Z" fill="#D3D9EB"/>
<path d="M127.761 330.75L117.722 336.546L111.861 333.135L121.901 327.339L127.761 330.75Z" fill="#E5E8F3"/>
<path d="M127.796 333.673L117.736 339.477L117.723 336.546L127.761 330.75L127.796 333.673Z" fill="#F0F2F7"/>
<g filter="url(#filter1_f_178_19805)">
<path d="M287.192 360.061L253.476 340.429C252.867 340.074 252.884 339.188 253.507 338.857L332.177 297.105C332.457 296.956 332.794 296.966 333.065 297.13L365.482 316.751C366.078 317.111 366.056 317.982 365.444 318.313L288.072 360.075C287.796 360.224 287.463 360.219 287.192 360.061Z" fill="black" fill-opacity="0.2"/>
</g>
<path d="M287.899 360.664L251.745 340.435C251.118 340.084 251.135 339.177 251.774 338.849L356.029 285.396C356.309 285.253 356.643 285.265 356.911 285.43L406.482 315.869C407.066 316.227 407.051 317.079 406.456 317.418L326.561 362.883C326.41 362.969 326.237 363.01 326.063 362.999L288.286 360.777C288.15 360.769 288.018 360.731 287.899 360.664Z" fill="url(#paint15_linear_178_19805)"/>
<path d="M305.744 345.805L296.373 338.867L304.955 336.438L309.245 339.692L305.744 345.805Z" fill="#1A3073"/>
<path d="M356.552 316.543L349.518 311.099L352.389 306.742L358.62 309.318L356.552 316.543Z" fill="#1A3073"/>
<path d="M322.719 272.654L359.868 294.071V296.923L322.719 275.507V272.654Z" fill="#D9E2ED"/>
<path d="M339.078 321.917C339.078 317.732 342.024 312.643 345.657 310.551C347.449 309.519 349.072 309.41 350.258 310.065L350.259 310.064L354.199 312.052L352.166 315.478C351.737 319.125 349.349 323.169 346.363 325.256L344.728 328.011L341.235 326.286L341.229 326.283L341.174 326.255L341.174 326.254C339.885 325.613 339.078 324.107 339.078 321.917Z" fill="#2F3A44"/>
<path d="M353.95 322.608C356.519 318.169 356.519 313.371 353.95 311.891C351.381 310.411 347.215 312.81 344.646 317.249C342.077 321.688 342.077 326.486 344.646 327.966C347.215 329.445 351.381 327.047 353.95 322.608Z" fill="#424F59"/>
<path d="M351.483 321.188C352.69 319.102 352.69 316.848 351.483 316.152C350.276 315.457 348.319 316.584 347.111 318.67C345.904 320.756 345.904 323.01 347.111 323.705C348.319 324.4 350.276 323.273 351.483 321.188Z" fill="white"/>
<path d="M348.865 323.239C350.572 322.256 351.956 319.865 351.956 317.899C351.956 317.043 351.693 316.408 351.256 316.046C351.947 316.301 352.389 317.038 352.389 318.148C352.389 320.114 351.005 322.505 349.298 323.489C348.334 324.044 347.473 324.031 346.906 323.561C347.439 323.758 348.121 323.667 348.865 323.239Z" fill="#D9E2ED"/>
<path d="M346.207 321.709C346.207 319.742 347.591 317.351 349.298 316.368C350.041 315.94 350.723 315.85 351.257 316.046C351.694 316.409 351.956 317.043 351.956 317.899C351.956 319.865 350.572 322.257 348.865 323.24C348.122 323.668 347.44 323.758 346.907 323.562C346.47 323.199 346.207 322.565 346.207 321.709Z" fill="white"/>
<path d="M288.156 351.131C288.156 346.946 291.102 341.857 294.735 339.764C296.527 338.732 298.15 338.623 299.337 339.278L299.337 339.277L303.277 341.265L301.244 344.691C300.815 348.338 298.427 352.382 295.441 354.469L293.806 357.224L290.314 355.499L290.307 355.496L290.252 355.469L290.252 355.468C288.963 354.827 288.156 353.32 288.156 351.131Z" fill="#2F3A44"/>
<path d="M303.028 351.821C305.597 347.382 305.597 342.584 303.028 341.104C300.459 339.625 296.293 342.024 293.724 346.463C291.155 350.901 291.155 355.7 293.724 357.179C296.293 358.659 300.459 356.26 303.028 351.821Z" fill="#424F59"/>
<path d="M300.561 350.4C301.768 348.315 301.768 346.06 300.561 345.365C299.354 344.67 297.397 345.797 296.19 347.883C294.982 349.968 294.982 352.223 296.19 352.918C297.397 353.613 299.354 352.486 300.561 350.4Z" fill="white"/>
<path d="M297.943 352.452C299.65 351.469 301.034 349.078 301.034 347.112C301.034 346.255 300.771 345.621 300.334 345.259C301.025 345.514 301.467 346.251 301.467 347.361C301.467 349.327 300.083 351.718 298.376 352.702C297.412 353.257 296.551 353.244 295.984 352.774C296.518 352.971 297.199 352.88 297.943 352.452Z" fill="#D9E2ED"/>
<path d="M295.285 350.922C295.285 348.955 296.669 346.564 298.376 345.581C299.12 345.153 299.801 345.063 300.335 345.259C300.772 345.622 301.034 346.256 301.034 347.112C301.034 349.078 299.65 351.469 297.943 352.453C297.2 352.881 296.518 352.971 295.985 352.774C295.548 352.412 295.285 351.778 295.285 350.922Z" fill="white"/>
<path d="M338.346 327.028L305.743 345.805C305.801 345.36 305.83 344.912 305.831 344.463C305.831 339.932 302.642 338.095 298.709 340.361C294.775 342.627 291.586 348.136 291.586 352.667C291.585 353.082 291.615 353.497 291.675 353.908L286.322 356.99V345.847L338.346 315.885" fill="#7B8CC2"/>
<path d="M318.589 246.945L301.197 256.961V287.901L322.718 275.506V272.654L318.589 246.945ZM302.874 285.065V258.209L317.297 249.902L321.471 274.355L302.874 285.065Z" fill="white"/>
<path d="M324.73 274.348V292.059L319.403 295.127C319.46 294.682 319.49 294.233 319.491 293.784C319.491 289.253 316.302 287.417 312.369 289.682C308.435 291.948 305.246 297.458 305.246 301.989C305.245 302.404 305.274 302.818 305.335 303.229L301.197 305.612V287.901L324.73 274.348Z" fill="white"/>
<path d="M322.719 275.507L359.868 296.923L361.88 295.765L324.73 274.348L322.719 275.507Z" fill="#D3D9EB"/>
<path d="M321.472 274.355L302.875 285.065L340.024 306.482L358.245 295.988L321.472 274.355Z" fill="#D9E2ED"/>
<path d="M301.197 256.961L301.197 294.468L338.347 315.885V278.378L301.197 256.961Z" fill="white"/>
<path d="M355.737 268.362L338.346 278.378V309.318L359.867 296.923V294.071L355.737 268.362ZM340.023 306.482V279.626L354.445 271.319L358.62 295.772L340.023 306.482Z" fill="#7B8CC2"/>
<path d="M361.878 295.765V313.475L356.551 316.543C356.609 316.098 356.638 315.65 356.64 315.201C356.64 310.67 353.451 308.833 349.517 311.099C345.583 313.364 342.394 318.874 342.394 323.405C342.393 323.82 342.423 324.235 342.483 324.645L338.346 327.028V309.318L361.878 295.765Z" fill="#7B8CC2"/>
<path d="M318.589 246.916L355.738 268.352L338.347 278.378L301.197 256.941L318.589 246.916Z" fill="#D3D9EB"/>
<path d="M301.197 294.468L338.347 315.885L286.323 345.847L249.174 324.43L301.197 294.468Z" fill="white"/>
<path d="M249.174 324.431V335.574L286.323 356.99V345.847L249.174 324.431Z" fill="#FBFBFB"/>
<path d="M261.537 335.089L274.55 342.591V345.941V346.671L260.947 338.829V334.749L261.537 335.089Z" fill="#AEC1D3"/>
<path d="M260.986 335.523L273.999 343.025V346.375V347.105L260.396 339.263V335.183L260.986 335.523Z" fill="#F9C03A"/>
<path d="M358.619 295.772L357.406 295.027L353.254 272.005L354.445 271.319L358.619 295.772Z" fill="white"/>
<path d="M358.619 295.772L357.407 295.027L340.668 304.481V306.11L358.619 295.772Z" fill="#D3D9EB"/>
<path d="M244.879 280.322L244.887 323.109L287.794 347.869L287.785 305.083L244.879 280.322Z" fill="#FBFBFB"/>
<path d="M287.794 347.869L342.144 316.568L342.144 273.733L287.785 305.083L287.794 347.869Z" fill="#7B8CC2"/>
<path d="M342.145 273.733L299.027 249.14L244.879 280.322L287.785 305.083L342.145 273.733Z" fill="#D3D9EB"/>
<path d="M286.361 348.528L283.964 347.147C283.917 347.12 283.863 347.105 283.809 347.105C283.755 347.105 283.702 347.12 283.655 347.147C283.608 347.174 283.569 347.213 283.541 347.26C283.514 347.307 283.5 347.36 283.5 347.414V353.312C283.5 353.366 283.514 353.419 283.541 353.466C283.568 353.513 283.607 353.552 283.654 353.579L286.322 355.117L286.361 348.528Z" fill="#A31629"/>
<path d="M249.174 327.061L251.832 328.591C251.893 328.626 251.944 328.677 251.98 328.739C252.016 328.8 252.034 328.87 252.034 328.941V334.598C252.034 334.669 252.016 334.739 251.98 334.801C251.944 334.862 251.893 334.913 251.832 334.949C251.77 334.984 251.7 335.003 251.629 335.003C251.557 335.003 251.487 334.984 251.426 334.949L249.174 333.65L249.174 327.061Z" fill="#A31629"/>
<path d="M274 343.025L274.549 342.591V346.671L274 347.105V343.025Z" fill="#BB902C"/>
<path d="M273.999 343.025L260.396 335.183L260.946 334.749L274.548 342.591L273.999 343.025Z" fill="#FBD989"/>
<path opacity="0.9" d="M353.255 272.005L357.407 295.027L342.145 303.647V278.404L353.255 272.005Z" fill="#091026" fill-opacity="0.8"/>
<path d="M388.065 367.315L359.522 351.778C358.886 351.432 359.03 350.481 359.739 350.338L395.92 343.028C395.988 343.015 396.054 342.992 396.116 342.96L469.303 305.982C469.53 305.867 469.799 305.871 470.023 305.993L511.837 328.766C512.374 329.059 512.376 329.829 511.841 330.125L455.081 361.533C454.986 361.585 454.881 361.617 454.773 361.627L388.503 367.406C388.351 367.419 388.199 367.387 388.065 367.315Z" fill="url(#paint16_linear_178_19805)"/>
<g filter="url(#filter2_f_178_19805)">
<path d="M387.126 367.994L360.439 353.006C359.905 352.705 359.914 351.932 360.456 351.645L428.98 315.301C429.214 315.176 429.496 315.181 429.727 315.312L456.041 330.297C456.572 330.599 456.561 331.367 456.022 331.654L387.87 368.002C387.637 368.127 387.356 368.124 387.126 367.994Z" fill="black" fill-opacity="0.2"/>
</g>
<path d="M448.907 327.374L443.012 323.944L446.174 323.633L449.074 324.417L448.907 327.374Z" fill="#1A3073"/>
<path d="M404.306 353.116L398.502 349.647L403.068 348.508L405.806 351.381L404.306 353.116Z" fill="#1A3073"/>
<path d="M421.192 306.643L453 325.013L448.909 327.376C448.119 325.011 445.826 324.293 443.12 325.856C440.414 327.418 438.121 330.783 437.331 334.061L404.309 353.127C403.537 350.719 401.229 349.979 398.502 351.554C395.774 353.128 393.466 356.533 392.693 359.834L387.084 363.073L355.254 344.706L421.192 306.643Z" fill="#2F3A44"/>
<path d="M440.926 318.039L430.282 311.892L379.363 341.288L390.497 346.893L440.926 318.039Z" fill="#567084"/>
<path d="M389.764 360.284C389.764 356.697 392.282 352.334 395.389 350.54C396.921 349.656 398.309 349.562 399.324 350.124L399.324 350.123L402.694 351.828L400.955 354.764C400.589 357.891 398.546 361.357 395.993 363.146L394.594 365.508L391.608 364.029L391.603 364.026L391.555 364.003L391.556 364.002C390.454 363.452 389.764 362.161 389.764 360.284Z" fill="#2F3A44"/>
<path d="M402.478 360.875C404.675 357.07 404.675 352.957 402.478 351.689C400.282 350.421 396.72 352.477 394.523 356.282C392.326 360.087 392.326 364.2 394.523 365.469C396.72 366.737 400.282 364.68 402.478 360.875Z" fill="#424F59"/>
<path d="M400.371 359.658C401.403 357.87 401.403 355.938 400.371 355.342C399.338 354.746 397.665 355.712 396.633 357.5C395.6 359.287 395.6 361.22 396.633 361.816C397.665 362.412 399.338 361.446 400.371 359.658Z" fill="white"/>
<path d="M398.132 361.417C399.591 360.574 400.775 358.525 400.775 356.839C400.775 356.105 400.55 355.562 400.177 355.251C400.768 355.469 401.145 356.101 401.145 357.053C401.145 358.738 399.962 360.788 398.502 361.631C397.678 362.107 396.942 362.096 396.457 361.693C396.913 361.862 397.496 361.784 398.132 361.417Z" fill="#D9E2ED"/>
<path d="M395.857 360.104C395.857 358.419 397.041 356.369 398.501 355.526C399.136 355.159 399.719 355.082 400.175 355.25C400.549 355.561 400.774 356.105 400.774 356.839C400.774 358.524 399.59 360.574 398.13 361.417C397.495 361.784 396.912 361.861 396.456 361.693C396.082 361.382 395.857 360.838 395.857 360.104Z" fill="white"/>
<path d="M434.459 334.701C434.459 331.114 436.978 326.751 440.085 324.957C441.617 324.073 443.005 323.979 444.019 324.541L444.02 324.54L447.389 326.245L445.651 329.181C445.284 332.308 443.242 335.774 440.688 337.563L439.29 339.925L436.304 338.446L436.298 338.443L436.251 338.42L436.251 338.419C435.149 337.869 434.459 336.578 434.459 334.701Z" fill="#2F3A44"/>
<path d="M447.176 335.292C449.373 331.487 449.373 327.374 447.176 326.106C444.979 324.838 441.417 326.894 439.22 330.699C437.023 334.504 437.023 338.617 439.22 339.885C441.417 341.154 444.979 339.097 447.176 335.292Z" fill="#424F59"/>
<path d="M445.066 334.075C446.098 332.287 446.098 330.355 445.066 329.759C444.034 329.163 442.36 330.129 441.328 331.917C440.296 333.704 440.296 335.637 441.328 336.233C442.36 336.829 444.034 335.863 445.066 334.075Z" fill="white"/>
<path d="M442.827 335.834C444.287 334.991 445.47 332.942 445.47 331.256C445.47 330.522 445.246 329.979 444.872 329.668C445.463 329.886 445.84 330.518 445.84 331.47C445.84 333.155 444.657 335.205 443.197 336.048C442.373 336.524 441.637 336.513 441.152 336.11C441.608 336.279 442.191 336.201 442.827 335.834Z" fill="#D9E2ED"/>
<path d="M440.555 334.521C440.555 332.836 441.738 330.786 443.198 329.943C443.833 329.576 444.417 329.499 444.873 329.667C445.246 329.978 445.471 330.522 445.471 331.256C445.471 332.941 444.287 334.991 442.828 335.834C442.192 336.201 441.609 336.278 441.153 336.11C440.779 335.799 440.555 335.255 440.555 334.521Z" fill="white"/>
<path d="M421.191 306.643L453 325.013L452.874 309.301L421.191 290.899V306.643Z" fill="#2F3A44"/>
<path d="M355.27 344.691L421.191 306.646L421.189 262.035L355.275 300.083L355.27 344.691ZM357.569 301.394L418.923 265.972L418.922 292.211L357.569 327.633V301.394Z" fill="#567084"/>
<path d="M355.254 300.083V331.559L387.084 349.936V318.45L355.254 300.083ZM359.101 310.152L384.832 325.008L384.81 344.194L359.101 329.37V310.152Z" fill="white"/>
<path d="M384.81 364.367L353 346.008V335.504L384.81 353.864V364.367Z" fill="#E87886"/>
<path d="M363.795 349.321V345.831L364.243 346.09V349.072C364.109 349.156 363.964 349.243 363.818 349.334L363.795 349.321Z" fill="white"/>
<path d="M364.243 349.071V349.092L371.348 353.203V353.69L363.818 349.334C363.965 349.242 364.109 349.156 364.243 349.071Z" fill="#D9E2ED"/>
<path d="M364.244 346.09L371.349 350.201V353.203L364.244 349.092V346.09Z" fill="white"/>
<path d="M378.712 354.812C378.341 354.909 378.099 355.272 378.099 355.842C378.099 356.787 378.762 357.936 379.581 358.408C379.715 358.488 379.86 358.547 380.012 358.583C379.711 358.642 379.399 358.579 379.144 358.409C378.326 357.936 377.662 356.787 377.662 355.842C377.662 355.071 378.105 354.675 378.712 354.812Z" fill="#FFF89F"/>
<path d="M378.1 355.841C378.1 355.271 378.342 354.908 378.713 354.811C378.865 354.847 379.01 354.906 379.144 354.986C379.963 355.458 380.626 356.607 380.626 357.552C380.626 358.122 380.384 358.486 380.013 358.582C379.861 358.546 379.716 358.487 379.581 358.407C378.763 357.935 378.1 356.786 378.1 355.841Z" fill="#FFC729"/>
<path d="M357.124 342.353C356.753 342.449 356.511 342.813 356.511 343.383C356.511 344.328 357.175 345.477 357.993 345.949C358.127 346.029 358.273 346.088 358.424 346.124C358.123 346.182 357.811 346.119 357.556 345.949C356.738 345.477 356.074 344.328 356.074 343.383C356.074 342.611 356.517 342.215 357.124 342.353Z" fill="#FFF89F"/>
<path d="M356.512 343.383C356.512 342.813 356.754 342.449 357.125 342.353C357.277 342.389 357.422 342.448 357.557 342.527C358.375 343 359.038 344.149 359.038 345.094C359.038 345.664 358.796 346.027 358.425 346.124C358.273 346.088 358.128 346.029 357.993 345.949C357.175 345.477 356.512 344.328 356.512 343.383Z" fill="#FFC729"/>
<path d="M384.81 353.864L387.084 349.936L355.254 331.559L353 335.504L384.81 353.864Z" fill="#E14B5E"/>
<path d="M384.809 364.367L387.077 363.058L387.083 349.936L384.809 353.864V364.367Z" fill="#A31629"/>
<path d="M355.254 300.083L421.315 262L453 280.436L387.084 318.45L355.254 300.083Z" fill="#D3D9EB"/>
<path d="M357.566 330.257L359.101 329.37V310.152L357.566 309.266V330.257Z" fill="white"/>
<path d="M357.566 330.258L384.81 346.015V344.194L359.101 329.371L357.566 330.258Z" fill="#D9E2ED"/>
<path d="M387.078 326.338L386.229 326.85V318.957L387.081 318.451L387.078 326.338Z" fill="#424F59"/>
<path d="M386.228 318.957L354.463 300.556L355.253 300.083L387.081 318.451L386.228 318.957Z" fill="#566D7C"/>
<path d="M386.228 318.956L354.463 300.556V308.434L386.228 326.85V318.956Z" fill="#2F3A44"/>
<path d="M357.844 307.977L358.621 308.426V305.865L357.951 306.07L357.646 305.426L358.803 305.074L359.25 305.332V308.789L360.011 309.228V309.873L357.844 308.622L357.844 307.977Z" fill="#FACD61"/>
<path d="M360.544 308.124C360.537 307.828 360.57 307.533 360.641 307.245C360.684 307.054 360.778 306.879 360.914 306.738C360.97 306.685 361.036 306.644 361.108 306.618C361.18 306.592 361.257 306.58 361.334 306.585C361.528 306.601 361.715 306.664 361.879 306.768C362.312 307.021 362.657 307.401 362.867 307.857C363.098 308.336 363.213 308.939 363.213 309.665C363.221 309.963 363.188 310.26 363.117 310.55C363.073 310.741 362.979 310.918 362.844 311.06C362.788 311.114 362.722 311.155 362.649 311.182C362.576 311.209 362.499 311.22 362.421 311.215C362.227 311.198 362.039 311.134 361.874 311.03C361.434 310.772 361.088 310.38 360.886 309.912C360.645 309.347 360.528 308.738 360.544 308.124ZM361.204 308.505C361.204 308.564 361.205 308.62 361.207 308.673C361.208 308.727 361.211 308.782 361.214 308.839L362.442 308.241C362.41 308.071 362.342 307.909 362.244 307.766C362.147 307.623 362.02 307.501 361.873 307.409C361.659 307.285 361.493 307.31 361.378 307.483C361.262 307.657 361.204 307.997 361.204 308.505ZM362.554 309.284C362.554 309.222 362.553 309.162 362.551 309.104C362.55 309.047 362.547 308.989 362.544 308.933L361.311 309.527C361.415 309.943 361.604 310.23 361.879 310.389C362.094 310.513 362.26 310.49 362.378 310.319C362.495 310.149 362.554 309.804 362.554 309.284Z" fill="#FACD61"/>
<path d="M364.656 311.992C364.751 312.049 364.854 312.092 364.962 312.119C365.041 312.14 365.123 312.139 365.201 312.117C365.265 312.096 365.32 312.053 365.356 311.996C365.396 311.927 365.415 311.849 365.412 311.769C365.412 311.656 365.391 311.543 365.348 311.438C365.305 311.333 365.246 311.235 365.173 311.147C365.093 311.053 365.003 310.967 364.904 310.893C364.796 310.811 364.682 310.735 364.564 310.667L364.28 310.503V310.083L365.133 309.373L363.849 308.631V307.987L365.919 309.182V309.715L365.026 310.377L365.143 310.445C365.269 310.519 365.385 310.61 365.488 310.714C365.602 310.829 365.702 310.957 365.784 311.097C365.873 311.245 365.943 311.403 365.993 311.568C366.045 311.741 366.072 311.92 366.071 312.1C366.082 312.28 366.04 312.46 365.952 312.617C365.88 312.733 365.768 312.82 365.637 312.86C365.49 312.9 365.335 312.9 365.188 312.859C365.005 312.812 364.829 312.739 364.666 312.642C364.506 312.549 364.354 312.445 364.209 312.331C364.052 312.208 363.905 312.074 363.768 311.93L363.945 311.4C363.984 311.446 364.025 311.489 364.069 311.53C364.122 311.58 364.181 311.634 364.247 311.691C364.313 311.749 364.381 311.804 364.45 311.855C364.516 311.905 364.584 311.95 364.656 311.992Z" fill="#FACD61"/>
<path d="M369.101 313.973L368.484 313.617V313.462C368.495 313.458 368.509 313.451 368.526 313.444C368.542 313.436 368.561 313.426 368.582 313.416C368.603 313.406 368.625 313.394 368.648 313.38C368.671 313.367 368.694 313.352 368.715 313.337C368.747 313.314 368.774 313.293 368.798 313.274C368.819 313.256 368.839 313.236 368.856 313.214C368.871 313.194 368.882 313.171 368.89 313.147C368.897 313.121 368.901 313.094 368.901 313.067C368.9 313.043 368.896 313.019 368.888 312.997C368.88 312.971 368.868 312.947 368.854 312.924C368.839 312.899 368.821 312.877 368.8 312.856C368.78 312.835 368.757 312.818 368.732 312.803C368.704 312.786 368.674 312.774 368.641 312.768C368.613 312.764 368.583 312.768 368.556 312.778L368.484 312.59C368.527 312.58 368.571 312.578 368.614 312.584C368.672 312.593 368.728 312.614 368.778 312.646C368.819 312.67 368.857 312.698 368.892 312.731C368.928 312.765 368.961 312.802 368.989 312.843C369.017 312.884 369.039 312.929 369.056 312.976C369.072 313.022 369.081 313.07 369.081 313.119C369.081 313.15 369.078 313.18 369.073 313.21C369.068 313.236 369.06 313.26 369.049 313.284C369.039 313.308 369.025 313.33 369.008 313.35C368.989 313.374 368.968 313.395 368.946 313.416C368.927 313.433 368.907 313.449 368.886 313.465C368.865 313.48 368.843 313.495 368.822 313.508C368.802 313.521 368.781 313.533 368.759 313.544C368.741 313.553 368.722 313.561 368.703 313.567L369.101 313.797V313.973Z" fill="#FACD61"/>
<path d="M369.931 314.452L369.314 314.095V313.94C369.325 313.936 369.339 313.93 369.356 313.922C369.373 313.914 369.391 313.905 369.412 313.894C369.433 313.884 369.455 313.872 369.478 313.859C369.501 313.846 369.524 313.831 369.545 313.815C369.577 313.793 369.604 313.772 369.628 313.752C369.649 313.735 369.669 313.715 369.686 313.692C369.701 313.672 369.712 313.65 369.72 313.626C369.727 313.6 369.731 313.572 369.731 313.545C369.73 313.521 369.726 313.498 369.718 313.476C369.71 313.45 369.698 313.425 369.684 313.402C369.669 313.378 369.651 313.355 369.631 313.335C369.61 313.314 369.587 313.296 369.562 313.282C369.534 313.264 369.504 313.253 369.471 313.247C369.443 313.243 369.413 313.246 369.386 313.257L369.314 313.068C369.357 313.059 369.401 313.057 369.444 313.062C369.502 313.072 369.558 313.093 369.608 313.124C369.649 313.148 369.687 313.177 369.722 313.209C369.758 313.243 369.791 313.281 369.819 313.322C369.847 313.363 369.869 313.407 369.886 313.454C369.902 313.5 369.911 313.549 369.911 313.598C369.911 313.628 369.908 313.659 369.903 313.688C369.898 313.714 369.89 313.739 369.88 313.763C369.869 313.786 369.855 313.809 369.838 313.829C369.819 313.852 369.798 313.874 369.776 313.894C369.757 313.912 369.737 313.928 369.716 313.943C369.695 313.959 369.673 313.973 369.652 313.987C369.632 314 369.611 314.011 369.589 314.022C369.571 314.032 369.552 314.039 369.533 314.046L369.931 314.276V314.452Z" fill="#FACD61"/>
<path d="M370.185 314.422L370.397 314.544V313.846L370.214 313.902L370.131 313.726L370.446 313.63L370.568 313.701V314.643L370.776 314.763V314.939L370.185 314.598L370.185 314.422Z" fill="#FACD61"/>
<path d="M371.605 314.561C371.605 314.587 371.602 314.613 371.596 314.639C371.591 314.66 371.581 314.68 371.566 314.697C371.551 314.713 371.533 314.723 371.512 314.727C371.485 314.731 371.457 314.729 371.432 314.72V314.729C371.46 314.751 371.486 314.775 371.511 314.802C371.536 314.829 371.557 314.86 371.576 314.892C371.594 314.926 371.609 314.962 371.619 314.999C371.63 315.039 371.635 315.08 371.635 315.121C371.638 315.167 371.627 315.213 371.603 315.252C371.593 315.267 371.581 315.279 371.566 315.288C371.552 315.297 371.535 315.303 371.518 315.306C371.478 315.312 371.436 315.308 371.397 315.295C371.348 315.28 371.301 315.26 371.257 315.234L371.197 315.199C371.173 315.185 371.147 315.169 371.118 315.151C371.09 315.133 371.062 315.114 371.033 315.094C371.004 315.075 370.977 315.054 370.953 315.034V313.932C370.971 313.939 370.991 313.947 371.013 313.957C371.036 313.967 371.06 313.978 371.086 313.991C371.112 314.004 371.138 314.018 371.165 314.032C371.193 314.047 371.22 314.062 371.246 314.077C371.292 314.104 371.336 314.133 371.378 314.166C371.42 314.198 371.459 314.234 371.493 314.274C371.527 314.314 371.554 314.358 371.574 314.406C371.595 314.455 371.605 314.507 371.605 314.561ZM371.195 314.533C371.208 314.541 371.223 314.549 371.241 314.558C371.258 314.567 371.273 314.574 371.284 314.578C371.314 314.587 371.347 314.585 371.376 314.575C371.402 314.564 371.415 314.539 371.415 314.498C371.415 314.472 371.411 314.446 371.401 314.422C371.392 314.398 371.379 314.377 371.364 314.357C371.348 314.338 371.33 314.32 371.311 314.305C371.291 314.289 371.27 314.275 371.249 314.262C371.224 314.248 371.202 314.236 371.181 314.225C371.165 314.216 371.149 314.209 371.133 314.202V314.497L371.195 314.533ZM371.256 315.049C371.277 315.062 371.3 315.072 371.323 315.079C371.342 315.085 371.361 315.086 371.381 315.083C371.397 315.079 371.411 315.07 371.421 315.056C371.432 315.037 371.437 315.015 371.436 314.993C371.436 314.962 371.43 314.93 371.418 314.901C371.406 314.874 371.39 314.849 371.371 314.827C371.352 314.805 371.33 314.785 371.306 314.768C371.282 314.751 371.258 314.736 371.234 314.722L371.133 314.664V314.969C371.14 314.975 371.147 314.981 371.155 314.986C371.165 314.993 371.176 315 371.188 315.008C371.199 315.015 371.211 315.022 371.224 315.03C371.236 315.038 371.247 315.044 371.256 315.049Z" fill="#FACD61"/>
<path d="M373.265 315.519C373.265 315.545 373.262 315.572 373.256 315.597C373.251 315.619 373.241 315.639 373.226 315.656C373.212 315.671 373.193 315.681 373.172 315.685C373.145 315.69 373.118 315.687 373.092 315.678V315.688C373.12 315.71 373.147 315.734 373.171 315.76C373.196 315.788 373.218 315.818 373.236 315.851C373.254 315.884 373.269 315.92 373.279 315.957C373.29 315.997 373.296 316.038 373.295 316.08C373.298 316.126 373.287 316.171 373.263 316.211C373.254 316.225 373.241 316.237 373.226 316.246C373.212 316.256 373.195 316.262 373.178 316.265C373.138 316.27 373.096 316.267 373.057 316.254C373.008 316.239 372.962 316.218 372.918 316.192L372.857 316.158C372.833 316.144 372.807 316.128 372.779 316.11C372.75 316.092 372.722 316.073 372.693 316.053C372.664 316.033 372.637 316.013 372.613 315.993V314.891C372.631 314.898 372.651 314.906 372.673 314.916C372.696 314.926 372.72 314.937 372.746 314.95C372.772 314.963 372.798 314.976 372.826 314.991C372.853 315.005 372.88 315.02 372.907 315.036C372.952 315.062 372.997 315.092 373.039 315.124C373.081 315.156 373.119 315.193 373.153 315.233C373.187 315.272 373.214 315.317 373.234 315.364C373.255 315.413 373.265 315.466 373.265 315.519ZM372.855 315.492C372.868 315.499 372.884 315.508 372.901 315.517C372.915 315.524 372.929 315.531 372.944 315.537C372.974 315.545 373.007 315.544 373.036 315.533C373.062 315.523 373.075 315.497 373.075 315.456C373.076 315.43 373.071 315.404 373.061 315.38C373.052 315.357 373.039 315.335 373.024 315.316C373.008 315.296 372.99 315.279 372.971 315.263C372.951 315.248 372.93 315.233 372.909 315.221C372.884 315.207 372.862 315.194 372.841 315.183C372.825 315.175 372.809 315.167 372.793 315.16V315.456L372.855 315.492ZM372.916 316.008C372.937 316.02 372.96 316.03 372.983 316.037C373.002 316.043 373.022 316.044 373.041 316.041C373.057 316.038 373.071 316.028 373.081 316.014C373.092 315.996 373.097 315.974 373.096 315.952C373.097 315.92 373.09 315.889 373.078 315.859C373.066 315.833 373.05 315.808 373.031 315.786C373.012 315.763 372.99 315.744 372.966 315.727C372.942 315.71 372.918 315.694 372.894 315.68L372.793 315.622V315.927C372.8 315.934 372.807 315.94 372.815 315.945C372.825 315.952 372.836 315.959 372.848 315.966C372.859 315.973 372.871 315.981 372.884 315.988C372.896 315.996 372.907 316.003 372.916 316.008Z" fill="#FACD61"/>
<path d="M373.483 315.757C373.526 315.761 373.569 315.769 373.611 315.782C373.671 315.801 373.729 315.827 373.783 315.86C373.827 315.885 373.869 315.916 373.906 315.951C373.937 315.982 373.965 316.016 373.987 316.055C374.008 316.09 374.023 316.129 374.032 316.169C374.041 316.209 374.046 316.25 374.046 316.292C374.046 316.346 374.044 316.391 374.041 316.428C374.038 316.464 374.036 316.497 374.036 316.527C374.036 316.55 374.037 316.575 374.039 316.604C374.041 316.62 374.042 316.635 374.043 316.649L374.133 316.701V316.877L373.901 316.743L373.883 316.624L373.876 316.62C373.856 316.643 373.828 316.657 373.797 316.66C373.748 316.66 373.7 316.645 373.66 316.617C373.593 316.579 373.537 316.524 373.496 316.458C373.457 316.397 373.436 316.326 373.436 316.254C373.434 316.218 373.441 316.183 373.457 316.151C373.463 316.139 373.472 316.129 373.483 316.121C373.494 316.114 373.506 316.109 373.519 316.106C373.552 316.102 373.585 316.105 373.617 316.116C373.661 316.131 373.704 316.151 373.744 316.175C373.76 316.184 373.778 316.195 373.796 316.208C373.814 316.221 373.837 316.236 373.863 316.253C373.865 316.243 373.866 316.233 373.866 316.223V316.193C373.867 316.155 373.856 316.119 373.836 316.088C373.812 316.056 373.782 316.029 373.747 316.01C373.707 315.986 373.665 315.969 373.62 315.958C373.589 315.951 373.557 315.947 373.525 315.945L373.483 315.757ZM373.718 316.479C373.747 316.501 373.782 316.511 373.817 316.508C373.836 316.504 373.853 316.492 373.865 316.476V316.38C373.856 316.373 373.842 316.363 373.824 316.349C373.805 316.336 373.785 316.323 373.765 316.311C373.748 316.302 373.731 316.294 373.713 316.287C373.698 316.281 373.682 316.278 373.666 316.278C373.66 316.277 373.654 316.278 373.649 316.281C373.643 316.283 373.638 316.286 373.634 316.29C373.629 316.295 373.626 316.302 373.623 316.308C373.621 316.315 373.621 316.322 373.621 316.329C373.621 316.358 373.629 316.387 373.644 316.412C373.662 316.44 373.688 316.464 373.718 316.479V316.479Z" fill="#FACD61"/>
<path d="M374.188 315.791L374.481 315.96V316.598L374.522 316.622L374.749 316.435L374.961 316.557L374.681 316.76L374.863 317.123L374.991 317.197V317.373L374.767 317.244L374.529 316.776L374.481 316.748V317.078L374.301 316.975V316.032L374.188 315.967L374.188 315.791Z" fill="#FACD61"/>
<path d="M375.756 317.73C375.741 317.736 375.725 317.74 375.709 317.74C375.687 317.742 375.665 317.74 375.643 317.736C375.615 317.732 375.587 317.724 375.559 317.714C375.526 317.701 375.494 317.686 375.463 317.667C375.405 317.634 375.352 317.594 375.304 317.547C375.213 317.457 375.146 317.344 375.112 317.22C375.095 317.157 375.086 317.093 375.086 317.028C375.084 316.971 375.094 316.914 375.115 316.861C375.131 316.823 375.159 316.793 375.195 316.775C375.232 316.759 375.274 316.755 375.313 316.764C375.365 316.775 375.415 316.795 375.46 316.822C375.498 316.845 375.535 316.872 375.568 316.901C375.607 316.935 375.642 316.973 375.671 317.016C375.704 317.062 375.73 317.112 375.748 317.165C375.769 317.224 375.779 317.286 375.778 317.348C375.778 317.395 375.773 317.442 375.764 317.489L375.266 317.201C375.267 317.234 375.273 317.267 375.285 317.298C375.296 317.328 375.312 317.356 375.33 317.382C375.349 317.408 375.371 317.431 375.396 317.452C375.42 317.473 375.446 317.492 375.474 317.508C375.515 317.534 375.562 317.553 375.61 317.564C375.639 317.57 375.668 317.569 375.696 317.56L375.756 317.73ZM375.457 316.987C375.436 316.974 375.413 316.965 375.389 316.959C375.37 316.954 375.351 316.955 375.332 316.959C375.315 316.964 375.3 316.975 375.29 316.99C375.278 317.008 375.271 317.03 375.27 317.052L375.611 317.248C375.611 317.195 375.597 317.142 375.57 317.096C375.543 317.05 375.504 317.012 375.457 316.987L375.457 316.987Z" fill="#FACD61"/>
<path d="M375.9 317.723L376.072 317.822V317.375L375.9 317.276V317.1L376.212 317.28L376.232 317.397L376.238 317.4C376.264 317.38 376.294 317.368 376.326 317.364C376.368 317.361 376.408 317.373 376.443 317.396C376.5 317.43 376.546 317.481 376.573 317.541C376.609 317.624 376.625 317.714 376.621 317.804L376.459 317.71C376.46 317.679 376.456 317.648 376.445 317.618C376.436 317.596 376.419 317.577 376.398 317.565C376.386 317.555 376.371 317.549 376.356 317.545C376.341 317.542 376.325 317.542 376.309 317.545C376.287 317.554 376.267 317.567 376.252 317.586V317.926L376.552 318.099V318.275L375.9 317.899L375.9 317.723Z" fill="#FACD61"/>
<path d="M377.598 318.512L377.75 318.6V318.758L377.758 318.766C377.78 318.789 377.803 318.812 377.828 318.833C377.853 318.854 377.88 318.873 377.909 318.89C377.944 318.915 377.986 318.927 378.029 318.923C378.058 318.916 378.072 318.892 378.072 318.851C378.071 318.813 378.059 318.775 378.037 318.743C378.011 318.704 377.982 318.668 377.95 318.634C377.915 318.597 377.877 318.558 377.836 318.517C377.795 318.476 377.757 318.433 377.723 318.387C377.688 318.341 377.659 318.291 377.636 318.238C377.612 318.184 377.6 318.124 377.6 318.065C377.599 318.024 377.607 317.984 377.625 317.947C377.639 317.918 377.663 317.895 377.692 317.883C377.726 317.871 377.762 317.868 377.797 317.876C377.845 317.887 377.891 317.905 377.932 317.93C377.99 317.964 378.046 318.002 378.098 318.044C378.146 318.08 378.189 318.122 378.228 318.167V318.491L378.076 318.403V318.226C378.073 318.224 378.07 318.222 378.068 318.22C378.048 318.201 378.026 318.184 378.002 318.166C377.98 318.15 377.956 318.135 377.932 318.121C377.902 318.099 377.865 318.088 377.828 318.091C377.803 318.096 377.79 318.116 377.79 318.15C377.791 318.188 377.803 318.225 377.825 318.257C377.851 318.296 377.88 318.333 377.912 318.368C377.947 318.406 377.985 318.446 378.026 318.488C378.066 318.529 378.104 318.573 378.139 318.619C378.174 318.665 378.203 318.715 378.226 318.768C378.25 318.821 378.262 318.879 378.262 318.937C378.264 318.983 378.254 319.03 378.234 319.072C378.218 319.102 378.19 319.125 378.156 319.136C378.118 319.146 378.077 319.145 378.039 319.133C377.987 319.119 377.938 319.098 377.892 319.07C377.858 319.051 377.826 319.029 377.795 319.004C377.765 318.981 377.737 318.957 377.712 318.932C377.686 318.908 377.664 318.885 377.645 318.863C377.625 318.841 377.61 318.823 377.598 318.809L377.598 318.512Z" fill="#FACD61"/>
<path d="M378.498 318.774L378.361 318.695V318.52L378.498 318.599V318.417L378.678 318.461V318.702L379.04 318.912V319.087L378.678 318.878V319.107C378.675 319.176 378.689 319.245 378.718 319.308C378.743 319.358 378.782 319.4 378.83 319.428C378.851 319.44 378.874 319.45 378.898 319.456C378.916 319.461 378.934 319.463 378.953 319.462C378.968 319.46 378.983 319.457 378.997 319.452C379.01 319.447 379.023 319.442 379.034 319.438L379.117 319.63C379.099 319.643 379.079 319.651 379.058 319.654C379.033 319.658 379.007 319.659 378.982 319.656C378.953 319.654 378.924 319.648 378.897 319.638C378.866 319.628 378.837 319.615 378.809 319.599C378.711 319.545 378.63 319.464 378.576 319.365C378.521 319.253 378.494 319.128 378.498 319.003V318.774Z" fill="#FACD61"/>
<path d="M379.221 319.64L379.392 319.739V319.291L379.221 319.192V319.017L379.532 319.196L379.553 319.314L379.558 319.317C379.584 319.297 379.614 319.284 379.647 319.28C379.688 319.278 379.729 319.289 379.763 319.312C379.82 319.346 379.866 319.397 379.894 319.458C379.929 319.541 379.945 319.63 379.941 319.72L379.78 319.627C379.781 319.595 379.776 319.564 379.765 319.535C379.756 319.512 379.74 319.493 379.719 319.481C379.706 319.472 379.692 319.465 379.676 319.462C379.661 319.459 379.645 319.459 379.629 319.462C379.607 319.47 379.587 319.484 379.572 319.502V319.842L379.872 320.016V320.191L379.221 319.815V319.64Z" fill="#FACD61"/>
<path d="M380.736 320.605C380.722 320.611 380.706 320.615 380.69 320.615C380.668 320.617 380.645 320.615 380.624 320.611C380.595 320.607 380.567 320.599 380.54 320.589C380.506 320.576 380.474 320.561 380.443 320.542C380.385 320.509 380.332 320.469 380.285 320.422C380.193 320.332 380.127 320.219 380.092 320.095C380.075 320.032 380.067 319.968 380.067 319.903C380.064 319.846 380.074 319.789 380.096 319.736C380.111 319.698 380.139 319.668 380.175 319.65C380.213 319.634 380.254 319.63 380.294 319.639C380.345 319.65 380.395 319.67 380.44 319.697C380.479 319.72 380.515 319.747 380.549 319.776C380.588 319.81 380.622 319.848 380.652 319.891C380.684 319.937 380.71 319.987 380.729 320.04C380.749 320.099 380.759 320.161 380.758 320.223C380.758 320.27 380.754 320.317 380.745 320.364L380.247 320.076C380.247 320.109 380.254 320.142 380.265 320.173C380.277 320.203 380.292 320.231 380.311 320.257C380.33 320.283 380.352 320.306 380.376 320.327C380.4 320.348 380.426 320.367 380.454 320.383C380.496 320.409 380.542 320.428 380.59 320.439C380.619 320.445 380.649 320.444 380.677 320.435L380.736 320.605ZM380.438 319.862C380.416 319.849 380.394 319.84 380.37 319.834C380.351 319.829 380.331 319.83 380.312 319.834C380.295 319.839 380.28 319.85 380.27 319.865C380.258 319.883 380.251 319.905 380.251 319.927L380.591 320.123C380.592 320.07 380.578 320.017 380.551 319.971C380.524 319.925 380.485 319.887 380.438 319.862L380.438 319.862Z" fill="#FACD61"/>
<path d="M381.566 321.084C381.552 321.091 381.536 321.094 381.52 321.095C381.498 321.096 381.476 321.095 381.454 321.091C381.425 321.086 381.397 321.078 381.37 321.068C381.336 321.056 381.304 321.04 381.273 321.022C381.215 320.989 381.162 320.948 381.115 320.902C381.023 320.811 380.957 320.698 380.922 320.574C380.905 320.512 380.897 320.448 380.897 320.383C380.894 320.326 380.904 320.268 380.926 320.215C380.941 320.178 380.969 320.147 381.005 320.129C381.043 320.113 381.084 320.11 381.124 320.119C381.176 320.13 381.225 320.149 381.27 320.177C381.309 320.2 381.345 320.226 381.379 320.256C381.418 320.289 381.452 320.328 381.482 320.37C381.514 320.416 381.54 320.466 381.559 320.519C381.579 320.578 381.589 320.64 381.588 320.702C381.588 320.75 381.584 320.797 381.575 320.843L381.077 320.555C381.077 320.589 381.084 320.622 381.095 320.653C381.107 320.682 381.122 320.711 381.141 320.736C381.16 320.762 381.182 320.786 381.206 320.807C381.23 320.828 381.256 320.846 381.284 320.862C381.326 320.889 381.372 320.908 381.42 320.918C381.449 320.924 381.479 320.923 381.507 320.914L381.566 321.084ZM381.268 320.341C381.247 320.329 381.224 320.319 381.2 320.314C381.181 320.309 381.161 320.309 381.142 320.314C381.125 320.319 381.11 320.329 381.1 320.344C381.088 320.363 381.081 320.384 381.081 320.406L381.421 320.603C381.422 320.549 381.408 320.497 381.381 320.451C381.354 320.405 381.315 320.367 381.268 320.341H381.268Z" fill="#FACD61"/>
<path d="M381.819 320.691L381.682 320.612V320.437L381.819 320.516V320.333L381.998 320.378V320.619L382.361 320.829V321.004L381.998 320.795V321.024C381.996 321.093 382.01 321.162 382.038 321.225C382.063 321.275 382.102 321.317 382.151 321.345C382.172 321.357 382.195 321.367 382.218 321.373C382.236 321.378 382.255 321.38 382.273 321.379C382.288 321.377 382.303 321.374 382.317 321.369C382.331 321.364 382.343 321.359 382.354 321.355L382.437 321.547C382.42 321.56 382.399 321.568 382.378 321.571C382.353 321.575 382.327 321.576 382.302 321.573C382.273 321.571 382.245 321.565 382.217 321.555C382.187 321.545 382.157 321.532 382.13 321.516C382.032 321.462 381.951 321.381 381.897 321.282C381.841 321.17 381.814 321.045 381.819 320.92V320.691Z" fill="#FACD61"/>
<path d="M389.379 346.001L389.384 344.194L403.74 335.957L405.267 336.84L389.379 346.001Z" fill="#D9E2ED"/>
<path d="M449.203 309.697V285.223L450.731 284.34L450.73 310.579L449.203 309.697Z" fill="#AEC1D3"/>
<path d="M449.205 309.696L428.01 297.459L430.282 296.147L449.205 307.072V309.696Z" fill="#D9E2ED"/>
<path opacity="0.9" d="M449.204 307.072L430.281 296.147L449.204 285.222V307.072Z" fill="#9CD7FF"/>
<path opacity="0.8" d="M357.569 310.235L357.566 330.258L384.81 346.015L384.834 326.042L357.569 310.235Z" fill="#091026" fill-opacity="0.8"/>
<path d="M437.096 286.957L403.008 306.604L404.343 303.195L434.814 285.651L437.096 286.957Z" fill="#7B8CC2"/>
<path d="M409.818 271.234L375.73 290.88L377.066 287.471L407.537 269.928L409.818 271.234Z" fill="white"/>
<path d="M403.007 306.604L375.73 290.88L377.066 287.471L404.343 303.195L403.007 306.604Z" fill="white"/>
<path d="M407.537 269.928L434.814 285.652L404.343 303.195L377.066 287.471L407.537 269.928Z" fill="#D3D9EB"/>
<path d="M403.738 335.956V311.471L405.265 310.588V336.839L403.738 335.956Z" fill="white"/>
<path d="M405.267 336.827L389.379 346V319.761L405.267 310.589L413.368 305.911L450.733 284.34L450.731 310.578L416.629 330.268V335.2L453 314.541L452.998 280.402L387.084 318.45L387.08 351.983L405.267 341.653V336.827Z" fill="#7B8CC2"/>
<path d="M453 314.542L416.629 335.2V346.004L437.333 334.056C438.124 330.78 440.416 327.418 443.121 325.856C445.827 324.294 448.119 325.011 448.909 327.375L453.001 325.013L453 314.542Z" fill="#A31629"/>
<path d="M405.266 341.653L387.079 351.983L387.078 363.058L392.698 359.815C393.475 356.519 395.779 353.125 398.501 351.553C401.224 349.981 403.529 350.716 404.305 353.116L405.267 352.561L405.266 352.561V341.653Z" fill="#A31629"/>
<path d="M416.628 346.089V346.004L405.268 352.56L416.628 346.089Z" fill="#AEC1D3"/>
<path d="M406.402 312.783L415.675 307.425V330.818L416.627 330.268V304.029L413.367 305.912L405.266 310.589V336.828L406.402 336.172L406.402 312.783Z" fill="#AEC1D3"/>
<path d="M415.676 330.817V335.74L416.628 335.199V330.268L415.676 330.817Z" fill="#AEC1D3"/>
<path d="M405.266 336.828V341.653L406.402 341.008V336.171L405.266 336.828Z" fill="#AEC1D3"/>
<path d="M405.266 310.588L413.367 305.911L405.266 310.588Z" fill="#AEC1D3"/>
<path d="M415.675 335.741V344.194L406.402 349.517V341.007L405.266 341.653V352.561L405.267 352.561L416.627 346.004V335.2L415.675 335.741Z" fill="#AEC1D3"/>
<path d="M415.676 344.194L413.998 343.185V308.409L415.676 307.425V344.194Z" fill="white"/>
<path opacity="0.9" d="M415.675 307.425L406.403 312.783L406.402 349.517L415.675 344.194V307.425Z" fill="#091026" fill-opacity="0.8"/>
<path opacity="0.9" d="M405.267 310.588V336.827L389.379 346V319.761L405.267 310.588Z" fill="#091026" fill-opacity="0.8"/>
<path opacity="0.9" d="M416.629 304.03V330.269L450.732 310.579L450.733 284.34L416.629 304.03Z" fill="#091026" fill-opacity="0.8"/>
<path d="M445.907 429.051H396.77C396.591 429.051 396.486 428.851 396.586 428.704L423.563 389.129C423.625 389.038 423.745 389.006 423.844 389.055L474.503 414.116C474.667 414.197 474.668 414.43 474.506 414.513L446.008 429.026C445.976 429.042 445.942 429.051 445.907 429.051Z" fill="url(#paint17_linear_178_19805)"/>
<path d="M359.5 408.145L396.322 429.402V401.06L359.535 379.781L359.5 408.145Z" fill="white"/>
<path d="M396.322 429.402L427.025 411.697L427.009 376.258L396.322 401.06V429.402Z" fill="#9398C6"/>
<path d="M359.537 379.781L390.188 355L427.011 376.258L396.324 401.06L359.537 379.781Z" fill="#D3D9EB"/>
<path d="M421.283 405.656L439.5 416.184L421.283 426.712L403.062 416.183L421.283 405.656Z" fill="#AEBBCE"/>
<path d="M421.283 405.656L439.5 416.184L421.283 426.712L403.062 416.183L421.283 405.656Z" fill="#CBF399"/>
<path d="M416.059 405.649L416.094 416.201L425.157 421.454L425.172 410.915L416.059 405.649Z" fill="#A6D887"/>
<path d="M425.172 400.383L434.284 405.649L425.172 410.915L416.059 405.649L425.172 400.383Z" fill="#CBF399"/>
<path d="M434.281 416.18L425.154 421.455L425.17 410.916L434.281 405.65V416.18Z" fill="#6D9D6C"/>
<path d="M212.48 321.912C212.477 321.858 212.409 321.812 212.316 321.801L210.169 321.562C210.126 321.557 210.082 321.563 210.042 321.58L209.077 322.01L207.874 320.319L209.612 318.236L210.095 317.906C210.288 317.818 210.443 317.662 210.529 317.468C210.616 317.275 210.628 317.056 210.565 316.853C210.556 316.73 210.511 316.612 210.434 316.514C210.376 316.404 210.31 316.298 210.235 316.198C210.752 316.253 211.276 316.223 211.784 316.11C212.395 316.075 212.998 315.956 213.576 315.757C214.945 315.266 215.771 314.311 215.626 313.385C215.554 313.013 215.37 312.672 215.099 312.409C215.021 312.328 214.938 312.253 214.852 312.181C214.273 311.726 213.596 311.411 212.875 311.261C212.007 311.083 211.108 311.118 210.256 311.365C209.122 311.786 209.182 311.996 207.993 312.304C207.483 312.431 206.959 312.494 206.434 312.491C205.816 312.508 205.598 312.707 205.462 312.955C205.267 313.309 204.453 313.34 203.646 313.298C203.157 313.243 202.662 313.312 202.207 313.5C201.92 313.643 201.919 313.906 201.673 314.074C201.247 314.365 200.454 314.377 199.893 314.577C199.734 314.651 199.607 314.781 199.538 314.942C199.468 315.103 199.46 315.284 199.516 315.45C199.642 315.74 199.862 315.98 200.141 316.129L198.394 317.134C198.278 317.188 198.176 317.268 198.098 317.369C198.019 317.47 197.965 317.589 197.942 317.715L197.892 318.212L188.622 320.927C187.922 321.159 187.53 321.608 187.622 322.071C187.732 322.577 187.946 323.054 188.249 323.473L188.094 323.542L181.698 325.648C181.629 325.671 181.562 325.698 181.497 325.729L180.18 326.177C179.552 326.391 179.286 326.821 179.49 327.206C179.528 327.278 179.576 327.343 179.634 327.399C179.706 327.469 179.786 327.529 179.873 327.578C180.161 327.723 180.476 327.81 180.798 327.834C181.12 327.858 181.444 327.817 181.751 327.715L184.359 326.827L189.717 325.063C189.765 325.047 189.812 325.028 189.857 325.009C190.061 325.15 190.276 325.289 190.518 325.427C191.215 325.822 191.939 326.168 192.683 326.463L187.978 329.179L187.525 329.441L186.458 330.057C186.392 330.095 186.329 330.14 186.271 330.19C186.252 330.205 186.238 330.222 186.222 330.239C186.19 330.269 186.161 330.301 186.134 330.335C186.12 330.356 186.106 330.377 186.094 330.399C186.077 330.428 186.061 330.458 186.048 330.489C186.039 330.513 186.032 330.537 186.026 330.562C186.019 330.59 186.014 330.619 186.012 330.647C186.01 330.674 186.01 330.7 186.011 330.726C186.014 330.753 186.018 330.779 186.025 330.805C186.03 330.834 186.038 330.861 186.048 330.888C186.059 330.913 186.071 330.936 186.085 330.96C186.1 330.989 186.117 331.017 186.136 331.043C186.152 331.065 186.174 331.085 186.193 331.106C186.218 331.135 186.244 331.163 186.273 331.189L186.273 331.189H186.273C186.33 331.238 186.392 331.282 186.458 331.32C186.797 331.492 187.172 331.581 187.551 331.581C187.931 331.581 188.306 331.492 188.645 331.32L189.712 330.703L190.165 330.442L195.496 327.364C195.613 327.394 195.734 327.424 195.844 327.45C196.793 327.672 197.881 327.451 198.397 326.939L204.605 320.345C204.614 320.396 204.631 320.445 204.653 320.491L206.259 322.849C206.459 323.251 207.094 323.512 207.784 323.512C207.932 323.512 208.08 323.5 208.225 323.476C208.388 323.449 208.548 323.403 208.7 323.34C208.741 323.323 208.778 323.304 208.815 323.285L209.312 323.343C209.385 323.357 209.46 323.363 209.534 323.359L212.446 322.062L212.487 322.044L212.48 321.912Z" fill="url(#paint18_linear_178_19805)"/>
<path d="M186.279 309.639L184.539 304.665C184.426 304.34 184.446 303.984 184.596 303.674C184.745 303.365 185.011 303.127 185.336 303.013C185.66 302.9 186.017 302.92 186.327 303.069C186.636 303.218 186.874 303.484 186.988 303.808L188.565 308.314L191.416 309.505C191.565 309.588 191.696 309.699 191.802 309.832C191.909 309.965 191.988 310.118 192.035 310.281C192.082 310.445 192.097 310.617 192.078 310.786C192.059 310.955 192.006 311.119 191.924 311.268C191.842 311.417 191.731 311.549 191.598 311.655C191.464 311.761 191.312 311.84 191.148 311.887C190.984 311.935 190.813 311.949 190.644 311.93C190.474 311.911 190.31 311.859 190.161 311.776L186.877 310.346C186.597 310.191 186.385 309.94 186.279 309.639Z" fill="#FFC9AC"/>
<path d="M185.863 302.944C186.114 302.963 186.354 303.055 186.554 303.209C186.754 303.362 186.905 303.57 186.988 303.808L188.565 308.314L191.416 309.505C191.651 309.636 191.839 309.836 191.955 310.078C192.071 310.321 192.108 310.593 192.062 310.858L187.903 308.989L185.863 302.944Z" fill="#FCBC9F"/>
<path d="M190.68 311.4L191.076 308.322C191.079 308.304 191.085 308.287 191.094 308.271C191.104 308.256 191.117 308.242 191.132 308.232L192.61 307.232C192.641 307.211 192.679 307.201 192.716 307.204C192.754 307.207 192.789 307.222 192.816 307.248L192.952 307.375L192.946 307.417L192.563 310.396C192.552 310.437 192.452 310.48 192.418 310.508L190.985 311.454L190.88 311.524C190.859 311.538 190.835 311.545 190.81 311.546C190.785 311.546 190.761 311.539 190.74 311.526C190.719 311.513 190.702 311.494 190.691 311.472C190.681 311.449 190.677 311.424 190.68 311.4Z" fill="#D3D9EB"/>
<path d="M190.985 311.454L192.418 310.508C192.453 310.48 192.552 310.437 192.563 310.395L192.946 307.417L191.415 308.453C191.4 308.463 191.388 308.477 191.378 308.492C191.369 308.508 191.362 308.525 191.36 308.543L190.985 311.454Z" fill="#A7B3D6"/>
<path d="M191.914 308.116L191.741 309.419C191.738 309.437 191.732 309.455 191.723 309.471C191.713 309.487 191.7 309.501 191.685 309.512L191.191 309.858L191.36 308.543C191.362 308.525 191.368 308.507 191.377 308.492C191.387 308.476 191.4 308.463 191.415 308.453L191.914 308.116Z" fill="#EDF0F7"/>
<path d="M191.655 308.689C191.69 308.62 191.686 308.548 191.647 308.527C191.607 308.507 191.546 308.547 191.511 308.616C191.477 308.684 191.48 308.757 191.52 308.777C191.56 308.797 191.62 308.757 191.655 308.689Z" fill="#12204D"/>
<path d="M191.623 309.022C191.658 308.953 191.654 308.881 191.614 308.861C191.575 308.841 191.514 308.88 191.479 308.949C191.444 309.018 191.448 309.09 191.488 309.11C191.528 309.13 191.588 309.091 191.623 309.022Z" fill="#12204D"/>
<path d="M191.592 309.336C191.627 309.267 191.623 309.195 191.583 309.174C191.543 309.154 191.483 309.194 191.448 309.263C191.413 309.331 191.417 309.404 191.457 309.424C191.496 309.444 191.557 309.404 191.592 309.336Z" fill="#12204D"/>
<path d="M191.678 308.696C191.713 308.628 191.709 308.555 191.669 308.535C191.63 308.515 191.569 308.555 191.534 308.623C191.499 308.692 191.503 308.764 191.543 308.785C191.583 308.805 191.643 308.765 191.678 308.696Z" fill="#1A3073"/>
<path d="M191.646 309.03C191.681 308.961 191.677 308.889 191.637 308.869C191.598 308.849 191.537 308.888 191.502 308.957C191.467 309.026 191.471 309.098 191.511 309.118C191.551 309.138 191.611 309.099 191.646 309.03Z" fill="#1A3073"/>
<path d="M191.615 309.344C191.65 309.275 191.646 309.203 191.606 309.183C191.566 309.163 191.506 309.202 191.471 309.271C191.436 309.34 191.44 309.412 191.48 309.432C191.519 309.452 191.58 309.413 191.615 309.344Z" fill="#1A3073"/>
<path d="M185.335 303.012C185.66 302.9 186.016 302.92 186.326 303.069C186.636 303.218 186.874 303.484 186.988 303.808L187.491 305.245C187.264 305.591 185.676 306.168 185.043 306.106L184.539 304.665C184.425 304.34 184.446 303.984 184.595 303.674C184.744 303.364 185.01 303.126 185.335 303.012Z" fill="#CFB0FD"/>
<path d="M180.592 326.85C180.753 326.891 180.903 326.964 181.036 327.064C181.168 327.164 181.28 327.288 181.364 327.431C181.448 327.574 181.503 327.732 181.527 327.896C181.55 328.06 181.54 328.228 181.499 328.388L180.878 330.792C180.832 330.978 180.744 331.151 180.621 331.297C180.497 331.443 180.342 331.56 180.167 331.636C179.992 331.713 179.801 331.749 179.61 331.741C179.419 331.732 179.232 331.68 179.064 331.588L180.453 326.829C180.5 326.833 180.546 326.84 180.592 326.85Z" fill="#12204D"/>
<path d="M178.433 330.161L179.054 327.757C179.132 327.457 179.318 327.196 179.576 327.025C179.834 326.854 180.146 326.784 180.453 326.829L179.064 331.588C178.814 331.456 178.616 331.243 178.501 330.984C178.387 330.725 178.363 330.435 178.433 330.161Z" fill="#1A3073"/>
<path d="M178.78 328.756L180.367 322.956L181.633 313.466C181.676 313.146 181.84 312.856 182.091 312.654C182.342 312.452 182.66 312.353 182.982 312.379L181.441 323.442L179.461 330.228C179.192 330.102 178.977 329.885 178.852 329.616C178.728 329.347 178.702 329.042 178.78 328.756Z" fill="#FFC9AC"/>
<path d="M182.982 312.38C183.005 312.382 183.028 312.379 183.052 312.382C183.384 312.426 183.684 312.601 183.888 312.867C184.091 313.133 184.181 313.469 184.136 313.801L182.859 323.375C182.851 323.431 182.84 323.487 182.825 323.542L181.216 329.423C181.17 329.602 181.084 329.768 180.965 329.91C180.846 330.051 180.698 330.165 180.53 330.242C180.362 330.319 180.179 330.358 179.994 330.356C179.809 330.354 179.627 330.31 179.461 330.229L181.441 323.443L182.982 312.38Z" fill="#FCBC9F"/>
<path d="M187.201 331.679C187.366 331.679 187.531 331.646 187.684 331.583C187.837 331.52 187.976 331.427 188.093 331.309C188.211 331.192 188.304 331.053 188.367 330.9C188.43 330.747 188.463 330.582 188.463 330.417V328.661C188.463 328.326 188.33 328.005 188.093 327.768C187.857 327.531 187.535 327.398 187.201 327.398C186.866 327.398 186.545 327.531 186.308 327.768C186.071 328.005 185.938 328.326 185.938 328.661V330.417C185.938 330.582 185.971 330.747 186.034 330.9C186.098 331.053 186.191 331.192 186.308 331.309C186.425 331.427 186.564 331.52 186.717 331.583C186.871 331.646 187.035 331.679 187.201 331.679Z" fill="#12204D"/>
<path d="M186.963 327.422V331.655C186.674 331.599 186.415 331.446 186.228 331.22C186.041 330.994 185.938 330.709 185.938 330.416V328.66C185.938 328.367 186.041 328.083 186.228 327.857C186.415 327.631 186.674 327.477 186.963 327.422Z" fill="#1A3073"/>
<path d="M187.2 330.446C187.366 330.446 187.53 330.414 187.683 330.35C187.836 330.287 187.976 330.194 188.093 330.077C188.21 329.959 188.303 329.82 188.366 329.667C188.43 329.514 188.463 329.35 188.463 329.184V322.356C188.463 322.243 188.448 322.131 188.418 322.023L185.838 312.578C185.75 312.255 185.537 311.98 185.246 311.814C184.956 311.648 184.611 311.604 184.288 311.693C183.965 311.781 183.69 311.994 183.524 312.284C183.358 312.575 183.314 312.92 183.403 313.243L185.937 322.525V329.184C185.937 329.35 185.97 329.514 186.034 329.667C186.097 329.82 186.19 329.959 186.307 330.077C186.425 330.194 186.564 330.287 186.717 330.35C186.87 330.414 187.034 330.446 187.2 330.446Z" fill="#FCBC9F"/>
<path d="M183.862 311.904L186.962 322.249V330.423C186.674 330.368 186.414 330.214 186.227 329.988C186.04 329.762 185.938 329.477 185.938 329.184V322.525L183.403 313.243C183.336 313 183.345 312.742 183.427 312.503C183.509 312.264 183.66 312.055 183.862 311.904Z" fill="#FFC9AC"/>
<path d="M183.136 308.943C183.395 308.895 183.688 308.853 184.029 308.822C186.227 308.623 186.535 309.661 186.535 309.661L189.713 320.406C189.817 320.797 189.778 321.213 189.601 321.578C189.424 321.942 189.122 322.231 188.749 322.391C187.135 323.072 185.404 323.429 183.652 323.443C182.919 323.449 182.188 323.358 181.478 323.174C180.768 319.035 182.24 312.391 183.136 308.943Z" fill="#12204D"/>
<path d="M178.057 320.038L181.448 309.658C181.448 309.658 181.727 309.204 183.136 308.943C182.24 312.392 180.768 319.035 181.478 323.174C180.439 322.904 179.467 322.422 178.624 321.759C178.371 321.559 178.183 321.289 178.083 320.983C177.982 320.677 177.973 320.348 178.057 320.038Z" fill="#1A3073"/>
<path d="M183.402 299.96C183.37 297.589 184.067 296.545 184.455 296.147C184.58 296.169 184.703 296.197 184.825 296.232C185.294 296.364 185.73 296.593 186.105 296.903C186.606 297.333 186.982 297.891 187.191 298.517C187.401 299.143 187.436 299.815 187.295 300.46C187.136 301.1 186.806 301.686 186.34 302.155C185.875 302.623 185.291 302.957 184.652 303.12C184.727 303.62 184.71 304.13 184.602 304.625C183.138 303.433 183.402 299.96 183.402 299.96Z" fill="#210E3E"/>
<path d="M178.215 307.18C178.338 306.655 178.783 306.186 178.739 305.648C178.713 305.34 178.451 305.075 178.473 304.766C178.501 304.56 178.571 304.362 178.679 304.184C178.787 304.006 178.931 303.853 179.101 303.734C179.609 303.31 180.049 302.809 179.807 302.342C179.699 302.187 179.649 301.999 179.667 301.812C179.685 301.624 179.769 301.449 179.904 301.317C180.216 301.009 180.459 300.639 180.618 300.231C180.996 299.235 180.752 299.06 180.985 297.984C181.095 297.632 181.277 297.307 181.52 297.028C181.762 296.75 182.06 296.526 182.394 296.369C183.044 296.094 183.761 296.017 184.455 296.148C184.067 296.545 183.369 297.59 183.402 299.96C183.402 299.96 183.138 303.434 184.601 304.625C184.595 304.658 184.591 304.69 184.584 304.722C184.4 305.612 184.001 306.443 183.423 307.144C182.988 307.628 182.451 308.009 181.851 308.26C181.25 308.51 180.602 308.624 179.952 308.593C179.568 308.59 179.192 308.478 178.869 308.27C178.56 308.047 178.127 307.552 178.215 307.18Z" fill="#431D7D"/>
<path d="M185.671 302.78C185.671 302.78 187.437 303.347 187.433 304.618L187.634 306.972L186.535 309.661C186.535 309.661 184.147 311.106 183.084 310.513C182.051 309.937 181.449 309.658 181.449 309.658C181.449 309.658 179.491 305.958 180.129 305.025C182.534 301.509 184.601 302.451 185.671 302.78Z" fill="#E7D8FE"/>
<path d="M186.535 309.661C186.535 309.661 183.953 311.185 183.083 310.513C182.172 310.055 181.448 309.659 181.448 309.659C181.448 309.659 180.879 308.42 180.682 308.123C182.902 308.348 185.94 308.346 187.633 306.972L186.535 309.661Z" fill="#CFB0FD"/>
<path d="M182.902 308.347C182.982 309.225 183.042 309.936 183.083 310.513C182.208 310.096 181.448 309.658 181.448 309.658C181.448 309.658 179.425 306.057 180.064 305.124C180.086 305.091 180.536 304.464 180.624 304.365C181.658 304.446 182.608 305.131 182.902 308.347Z" fill="#CFB0FD"/>
<path d="M185.041 303.278V303.674C185.031 303.776 184.994 303.874 184.934 303.957C184.874 304.04 184.793 304.106 184.7 304.148C184.446 304.277 184.166 304.344 183.882 304.344C183.597 304.344 183.317 304.277 183.064 304.148C182.97 304.106 182.89 304.04 182.831 303.957C182.772 303.874 182.736 303.776 182.727 303.674V301.855C183.317 302.575 184.132 303.077 185.041 303.278Z" fill="#FCBC9F"/>
<path d="M182.727 302.689V300.901C182.737 300.799 182.774 300.701 182.834 300.618C182.894 300.535 182.975 300.469 183.069 300.427C183.322 300.298 183.603 300.231 183.887 300.231C184.172 300.231 184.452 300.298 184.706 300.427C184.799 300.469 184.879 300.535 184.938 300.618C184.997 300.702 185.033 300.799 185.041 300.901V303.734C183.884 303.734 183.195 303.548 182.727 302.689Z" fill="#EFA689"/>
<path d="M183.402 299.96C183.367 299.072 183.49 298.185 183.764 297.34C184.111 297.224 184.48 297.191 184.842 297.246C185.203 297.301 185.547 297.441 185.843 297.654C186.14 297.868 186.382 298.149 186.548 298.475C186.714 298.8 186.801 299.161 186.801 299.526V300.934C186.801 301.306 186.712 301.672 186.541 302.002C186.369 302.332 186.12 302.615 185.815 302.827C185.511 303.04 185.159 303.175 184.79 303.222C184.422 303.269 184.047 303.226 183.699 303.097C183.437 302.073 183.337 301.015 183.402 299.96Z" fill="#FCBC9F"/>
<path d="M183.764 297.34C183.49 298.185 183.367 299.072 183.402 299.96C183.337 301.014 183.437 302.073 183.699 303.096C183.256 302.934 182.874 302.639 182.604 302.253C182.334 301.866 182.189 301.406 182.188 300.934V299.526C182.189 299.042 182.341 298.571 182.624 298.179C182.907 297.786 183.306 297.493 183.764 297.34Z" fill="#FFC9AC"/>
<path d="M182.253 296.776C182.54 296.558 182.872 296.405 183.224 296.329C183.576 296.253 183.941 296.254 184.293 296.334C183.9 296.836 183.374 297.896 183.402 299.961C183.37 300.527 183.38 301.095 183.434 301.659C183.373 301.865 183.29 302.063 183.186 302.25C183.109 302.394 183.014 302.528 182.903 302.648H182.341L181.767 300.774C180.63 298.9 182.253 296.776 182.253 296.776Z" fill="#431D7D"/>
<path d="M183.402 299.96C183.374 297.896 183.9 296.836 184.293 296.333C184.351 296.345 184.407 296.357 184.459 296.37L184.459 296.369L184.467 296.371C184.516 296.384 184.563 296.396 184.605 296.409L184.6 296.414C184.77 296.469 184.936 296.529 184.936 296.529C186.495 296.621 187.096 299.134 187.096 299.134C186.271 299.073 185.353 298.261 185.353 298.261C185.2 298.66 184.948 299.013 184.621 299.288C184.295 299.563 183.903 299.75 183.484 299.832C183.622 300.435 183.604 301.064 183.434 301.658C183.38 301.094 183.37 300.526 183.402 299.96Z" fill="#210E3E"/>
<path d="M181.647 307.363L181.687 304.322C181.495 304.237 181.285 304.201 181.076 304.217C180.867 304.234 180.665 304.303 180.489 304.417C180.313 304.531 180.168 304.688 180.068 304.872C179.968 305.057 179.916 305.263 179.916 305.473L179.912 307.458C180.478 307.313 181.068 307.28 181.647 307.363Z" fill="#EDE3FE"/>
<path d="M184.377 314.736C184.614 314.624 184.809 314.439 184.932 314.207L181.606 310.53L181.647 307.363C181.068 307.28 180.478 307.313 179.912 307.458L179.905 310.601C179.905 310.912 180.019 311.212 180.225 311.444L182.89 314.436C183.072 314.641 183.315 314.78 183.584 314.834C183.852 314.888 184.13 314.854 184.377 314.736Z" fill="#FFC9AC"/>
<path d="M182.437 307.498L182.441 305.478C182.441 305.233 182.37 304.993 182.236 304.787C182.102 304.582 181.911 304.42 181.687 304.321L181.647 307.363C181.912 307.394 182.176 307.439 182.437 307.498Z" fill="#E7D8FE"/>
<path d="M181.606 310.53L184.932 314.208C185.06 313.98 185.113 313.717 185.085 313.457C185.057 313.197 184.949 312.953 184.776 312.757L182.432 310.125L182.437 307.499C182.176 307.44 181.913 307.394 181.647 307.363L181.606 310.53Z" fill="#FCBC9F"/>
</g>
<path fill-rule="evenodd" clip-rule="evenodd" d="M372.552 42.1994C370.217 54.4025 359.37 63.6318 346.343 63.6318C343.714 63.6318 341.174 63.256 338.775 62.5557C335.784 64.4306 332.247 65.5146 328.456 65.5146C317.711 65.5146 309 56.8038 309 46.0586C309 37.8037 314.141 30.7496 321.396 27.9232C325.213 17.9798 334.943 10.9121 346.343 10.9121C351.771 10.9121 356.82 12.5143 361.033 15.2663C362.346 14.8832 363.735 14.6778 365.172 14.6778C373.317 14.6778 379.921 21.2811 379.921 29.4268C379.921 34.8837 376.957 39.6484 372.552 42.1994Z" fill="white"/>
<path fill-rule="evenodd" clip-rule="evenodd" d="M370.302 41.9264C366.826 51.1579 357.822 57.7348 347.262 57.7348C344.378 57.7348 341.61 57.2444 339.039 56.3434C336.076 58.3974 332.478 59.6009 328.598 59.6009C318.463 59.6009 310.246 51.3843 310.246 41.2486C310.246 41.1468 310.247 41.0452 310.249 40.9438C309.443 43.069 309.001 45.3737 309.001 47.7814C309.001 58.4324 317.636 67.0668 328.287 67.0668C332.683 67.0668 336.735 65.596 339.979 63.1197C342.107 63.6655 344.339 63.956 346.64 63.956C359.043 63.956 369.451 55.5168 372.305 44.1323C376.844 41.6513 379.923 36.8328 379.923 31.2951C379.923 30.7685 379.895 30.2485 379.841 29.7363C379.246 35.3725 375.449 40.0538 370.302 41.9264Z" fill="url(#paint19_linear_178_19805)"/>
<path fill-rule="evenodd" clip-rule="evenodd" d="M191.456 91.381C187.715 93.4998 183.392 94.7094 178.786 94.7094C176.38 94.7094 174.05 94.3793 171.841 93.7619C167.143 98.7815 160.459 101.918 153.041 101.918C151.351 101.918 149.698 101.755 148.099 101.444C144.815 104.907 140.17 107.067 135.021 107.067C125.068 107.067 117 98.9983 117 89.0455C117 81.7631 121.32 75.4896 127.536 72.6475C128.725 63.9667 134.242 56.6647 141.84 52.9874C141.757 52.146 141.715 51.2927 141.715 50.4295C141.715 37.172 151.736 26.255 164.617 24.8403C168.57 11.0732 181.255 1 196.293 1C206.37 1 215.391 5.52311 221.435 12.6498C222.806 12.4378 224.211 12.3277 225.641 12.3277C240.713 12.3277 252.93 24.5454 252.93 39.6168C252.93 49.6376 247.529 58.397 239.479 63.1422C235.33 80.0738 219.874 92.65 201.442 92.65C197.991 92.65 194.644 92.209 191.456 91.381Z" fill="white"/>
<path fill-rule="evenodd" clip-rule="evenodd" d="M172.094 79.2647C177.661 79.2647 182.748 77.2099 186.639 73.8173C190.589 75.339 194.887 76.1742 199.384 76.1742C214.887 76.1742 228.036 66.2467 232.641 52.4918C242.594 49.4898 249.842 40.2512 249.842 29.3196C249.842 28.389 249.79 27.4707 249.687 26.5674C251.756 30.4118 252.93 34.8093 252.93 39.4811C252.93 49.5019 247.529 58.2612 239.479 63.0065C235.33 79.9381 219.874 92.5142 201.442 92.5142C197.991 92.5142 194.644 92.0733 191.456 91.2453C187.715 93.3641 183.392 94.5737 178.786 94.5737C176.38 94.5737 174.05 94.2436 171.841 93.6262C167.143 98.6458 160.459 101.783 153.041 101.783C151.351 101.783 149.698 101.62 148.099 101.309C144.815 104.771 140.17 106.931 135.021 106.931C125.068 106.931 117 98.8626 117 88.9098C117 84.5405 118.555 80.5344 121.142 77.4146C121.127 77.6862 121.12 77.9597 121.12 78.2348C121.12 86.7657 128.036 93.6814 136.567 93.6814C141.655 93.6814 146.168 91.2215 148.983 87.4262C149.643 87.477 150.31 87.5028 150.983 87.5028C158.491 87.5028 165.248 84.2892 169.954 79.1626C170.658 79.2301 171.372 79.2647 172.094 79.2647Z" fill="url(#paint20_linear_178_19805)"/>
</g>
<defs>
<filter id="filter0_f_178_19805" x="170.12" y="366.581" width="77.6896" height="49.3762" filterUnits="userSpaceOnUse" color-interpolation-filters="sRGB">
<feFlood flood-opacity="0" result="BackgroundImageFix"/>
<feBlend mode="normal" in="SourceGraphic" in2="BackgroundImageFix" result="shape"/>
<feGaussianBlur stdDeviation="1.89384" result="effect1_foregroundBlur_178_19805"/>
</filter>
<filter id="filter1_f_178_19805" x="248.529" y="292.5" width="121.887" height="72.1841" filterUnits="userSpaceOnUse" color-interpolation-filters="sRGB">
<feFlood flood-opacity="0" result="BackgroundImageFix"/>
<feBlend mode="normal" in="SourceGraphic" in2="BackgroundImageFix" result="shape"/>
<feGaussianBlur stdDeviation="2.25" result="effect1_foregroundBlur_178_19805"/>
</filter>
<filter id="filter2_f_178_19805" x="356.167" y="311.334" width="104.141" height="60.6347" filterUnits="userSpaceOnUse" color-interpolation-filters="sRGB">
<feFlood flood-opacity="0" result="BackgroundImageFix"/>
<feBlend mode="normal" in="SourceGraphic" in2="BackgroundImageFix" result="shape"/>
<feGaussianBlur stdDeviation="1.93798" result="effect1_foregroundBlur_178_19805"/>
</filter>
<linearGradient id="paint0_linear_178_19805" x1="236.469" y1="263.385" x2="277.703" y2="185.916" gradientUnits="userSpaceOnUse">
<stop stop-opacity="0.3"/>
<stop offset="1" stop-opacity="0"/>
</linearGradient>
<linearGradient id="paint1_linear_178_19805" x1="180.678" y1="292.097" x2="221.911" y2="214.627" gradientUnits="userSpaceOnUse">
<stop stop-opacity="0.3"/>
<stop offset="1" stop-opacity="0"/>
</linearGradient>
<linearGradient id="paint2_linear_178_19805" x1="284.016" y1="271.998" x2="314.55" y2="252.063" gradientUnits="userSpaceOnUse">
<stop stop-opacity="0.4"/>
<stop offset="1" stop-opacity="0"/>
</linearGradient>
<linearGradient id="paint3_linear_178_19805" x1="105.309" y1="342.077" x2="156.946" y2="292.974" gradientUnits="userSpaceOnUse">
<stop stop-opacity="0.4"/>
<stop offset="1" stop-opacity="0"/>
</linearGradient>
<linearGradient id="paint4_linear_178_19805" x1="407.176" y1="176.004" x2="449.653" y2="135.61" gradientUnits="userSpaceOnUse">
<stop stop-opacity="0.4"/>
<stop offset="1" stop-opacity="0"/>
</linearGradient>
<linearGradient id="paint5_linear_178_19805" x1="146.236" y1="367.699" x2="188.989" y2="339.593" gradientUnits="userSpaceOnUse">
<stop stop-opacity="0.4"/>
<stop offset="1" stop-opacity="0"/>
</linearGradient>
<linearGradient id="paint6_linear_178_19805" x1="114.855" y1="378.848" x2="151.381" y2="355" gradientUnits="userSpaceOnUse">
<stop stop-opacity="0.4"/>
<stop offset="1" stop-opacity="0"/>
</linearGradient>
<linearGradient id="paint7_linear_178_19805" x1="178.608" y1="402.451" x2="254.704" y2="371.07" gradientUnits="userSpaceOnUse">
<stop stop-opacity="0.4"/>
<stop offset="1" stop-opacity="0"/>
</linearGradient>
<linearGradient id="paint8_linear_178_19805" x1="178.3" y1="309.689" x2="213.685" y2="286.426" gradientUnits="userSpaceOnUse">
<stop stop-opacity="0.4"/>
<stop offset="1" stop-opacity="0"/>
</linearGradient>
<linearGradient id="paint9_linear_178_19805" x1="50.3004" y1="399.689" x2="85.6854" y2="376.426" gradientUnits="userSpaceOnUse">
<stop stop-opacity="0.4"/>
<stop offset="1" stop-opacity="0"/>
</linearGradient>
<linearGradient id="paint10_linear_178_19805" x1="373.976" y1="237.709" x2="406.234" y2="216.648" gradientUnits="userSpaceOnUse">
<stop stop-opacity="0.4"/>
<stop offset="1" stop-opacity="0"/>
</linearGradient>
<linearGradient id="paint11_linear_178_19805" x1="400.3" y1="213.689" x2="435.685" y2="190.426" gradientUnits="userSpaceOnUse">
<stop stop-opacity="0.4"/>
<stop offset="1" stop-opacity="0"/>
</linearGradient>
<linearGradient id="paint12_linear_178_19805" x1="343.976" y1="236.709" x2="376.234" y2="215.648" gradientUnits="userSpaceOnUse">
<stop stop-opacity="0.4"/>
<stop offset="1" stop-opacity="0"/>
</linearGradient>
<linearGradient id="paint13_linear_178_19805" x1="283.231" y1="263.332" x2="331.497" y2="195.85" gradientUnits="userSpaceOnUse">
<stop stop-opacity="0.3"/>
<stop offset="0.951958" stop-opacity="0"/>
</linearGradient>
<linearGradient id="paint14_linear_178_19805" x1="38.2313" y1="405.332" x2="86.4971" y2="337.85" gradientUnits="userSpaceOnUse">
<stop stop-opacity="0.3"/>
<stop offset="0.951958" stop-opacity="0"/>
</linearGradient>
<linearGradient id="paint15_linear_178_19805" x1="261.529" y1="343.757" x2="391.704" y2="290.511" gradientUnits="userSpaceOnUse">
<stop stop-opacity="0.4"/>
<stop offset="1" stop-opacity="0"/>
</linearGradient>
<linearGradient id="paint16_linear_178_19805" x1="385.158" y1="353" x2="431.937" y2="280.947" gradientUnits="userSpaceOnUse">
<stop stop-opacity="0.4"/>
<stop offset="1" stop-opacity="0"/>
</linearGradient>
<linearGradient id="paint17_linear_178_19805" x1="404.73" y1="427.307" x2="452.232" y2="383.197" gradientUnits="userSpaceOnUse">
<stop stop-opacity="0.4"/>
<stop offset="1" stop-opacity="0"/>
</linearGradient>
<linearGradient id="paint18_linear_178_19805" x1="170.105" y1="340.898" x2="206.476" y2="314.101" gradientUnits="userSpaceOnUse">
<stop stop-opacity="0.4"/>
<stop offset="1" stop-opacity="0"/>
</linearGradient>
<linearGradient id="paint19_linear_178_19805" x1="359.385" y1="63.4812" x2="341.46" y2="19.7301" gradientUnits="userSpaceOnUse">
<stop stop-color="#EFF3FF"/>
<stop offset="1" stop-color="white"/>
</linearGradient>
<linearGradient id="paint20_linear_178_19805" x1="213.567" y1="99.2118" x2="171.795" y2="8.43937" gradientUnits="userSpaceOnUse">
<stop stop-color="#EFF3FF"/>
<stop offset="1" stop-color="white"/>
</linearGradient>
<clipPath id="clip0_178_19805">
<rect width="464" height="408" fill="white"/>
</clipPath>
</defs>
</svg>
