<svg width="148" height="44" viewBox="0 0 148 44" fill="none" xmlns="http://www.w3.org/2000/svg">
<rect x="12.6733" width="12" height="32" fill="#2B303A"/>
<rect x="0.67334" width="12" height="12" fill="#2B303A"/>
<path d="M12.6733 32H24.6733V44H24.4988C17.9678 44 12.6733 38.7055 12.6733 32.1745V32Z" fill="#2B303A"/>
<path fill-rule="evenodd" clip-rule="evenodd" d="M32.6733 12.0002C35.987 12.0002 38.6733 9.31395 38.6733 6.00024C38.6733 2.68654 35.987 0.000244141 32.6733 0.000244141C29.3597 0.000244141 26.6734 2.68644 26.6733 6.00007C26.6733 6.00013 26.6733 6.00019 26.6733 6.00024V12.0001H32.6272C32.6426 12.0002 32.658 12.0002 32.6733 12.0002Z" fill="#F9603A"/>
<path d="M62.3851 4.27602C61.4149 3.94446 60.4008 3.76099 59.3765 3.73174C58.5719 3.68931 57.7718 3.8781 57.07 4.27602C56.8044 4.43123 56.5851 4.6553 56.4352 4.92481C56.2852 5.19432 56.2101 5.49938 56.2176 5.80807C56.2106 6.08252 56.2595 6.3555 56.3612 6.61028C56.463 6.86506 56.6154 7.09627 56.8093 7.28973C57.2363 7.72145 57.7442 8.064 58.3035 8.29766C59.103 8.62205 59.9199 8.90134 60.7504 9.13424C61.9616 9.47035 63.1479 9.89135 64.3005 10.3941C65.2275 10.8241 66.0363 11.4745 66.6572 12.2891C67.3552 13.2408 67.709 14.4036 67.66 15.585C67.6869 16.8054 67.3172 18.0015 66.6071 18.9918C65.8683 19.9866 64.8681 20.7545 63.7189 21.2092C62.3795 21.7434 60.9476 22.0038 59.5069 21.9753C57.8414 21.9736 56.1911 21.6555 54.6431 21.0379C53.3008 20.5226 52.0457 19.8018 50.9226 18.9011C50.804 18.8018 50.7218 18.6656 50.6891 18.514C50.6564 18.3624 50.675 18.2042 50.742 18.0645L51.8251 15.8571C51.8728 15.7722 51.9379 15.6985 52.0161 15.641C52.0944 15.5834 52.184 15.5432 52.2789 15.5232C52.3738 15.5032 52.4719 15.5037 52.5665 15.5248C52.6612 15.5459 52.7503 15.587 52.828 15.6455C53.7253 16.3697 54.7173 16.9666 55.7763 17.4194C56.953 17.9554 58.2254 18.2468 59.5169 18.2762C60.4541 18.3265 61.3853 18.0986 62.1945 17.621C62.5066 17.44 62.7644 17.178 62.9409 16.8622C63.1174 16.5465 63.206 16.1889 63.1974 15.8269C63.2044 15.5479 63.1556 15.2704 63.054 15.0107C62.9523 14.751 62.7999 14.5144 62.6057 14.315C62.1753 13.895 61.6631 13.569 61.1014 13.3575C60.4897 13.1156 59.6573 12.8333 58.6043 12.531C57.4061 12.1888 56.2305 11.7714 55.0844 11.2811C54.1639 10.8636 53.3585 10.2271 52.7377 9.42654C52.0441 8.48789 51.6903 7.33928 51.7349 6.17093C51.7138 5.00893 52.0654 3.87097 52.7377 2.9254C53.4474 1.95369 54.4179 1.20547 55.5356 0.768428C56.864 0.232448 58.2864 -0.028113 59.7175 0.00240147C61.1009 0.00190813 62.4766 0.209141 63.7991 0.617238C64.8802 0.937493 65.9202 1.38403 66.8979 1.9477C67.0387 2.03564 67.1422 2.17281 67.1885 2.33283C67.2348 2.49284 67.2206 2.66441 67.1486 2.81452L66.0755 5.163C66.0363 5.25529 65.9773 5.33778 65.9028 5.40465C65.8283 5.47152 65.7402 5.52113 65.6445 5.54997C65.5488 5.57881 65.448 5.58618 65.3492 5.57157C65.2504 5.55695 65.156 5.5207 65.0727 5.46538C64.2157 4.98548 63.3159 4.58729 62.3851 4.27602V4.27602Z" fill="#2B303A"/>
<path d="M100.844 0.335449H103.602C103.709 0.335906 103.815 0.362017 103.909 0.411611C104.004 0.461205 104.086 0.532849 104.148 0.620585C104.21 0.708322 104.25 0.809617 104.265 0.916048C104.28 1.02248 104.269 1.13097 104.234 1.23251L97.4949 21.25C97.4469 21.3909 97.3564 21.5132 97.236 21.5999C97.1156 21.6866 96.9712 21.7334 96.823 21.7338H93.634C93.4808 21.7319 93.3321 21.6811 93.2095 21.5887C93.0869 21.4963 92.9967 21.3671 92.9521 21.2197L88.8805 7.64293C88.8381 7.50519 88.7528 7.38472 88.6374 7.29916C88.5219 7.21359 88.3822 7.16744 88.2387 7.16744C88.0952 7.16744 87.9555 7.21359 87.84 7.29916C87.7245 7.38472 87.6393 7.50519 87.5969 7.64293L83.4351 21.2399C83.3905 21.3845 83.3015 21.5113 83.1807 21.6018C83.06 21.6924 82.9138 21.7421 82.7632 21.7439H79.6242C79.4774 21.7429 79.3346 21.6957 79.2159 21.6089C79.0972 21.5221 79.0085 21.4001 78.9624 21.2601L72.2433 1.24259C72.2102 1.14027 72.2016 1.03156 72.2181 0.925271C72.2346 0.818978 72.2758 0.718079 72.3382 0.630738C72.4007 0.543397 72.4828 0.472068 72.5778 0.42252C72.6728 0.372972 72.7781 0.346597 72.8851 0.345529H76.3349L80.7073 15.1218C80.7498 15.2595 80.835 15.38 80.9505 15.4655C81.066 15.5511 81.2057 15.5973 81.3491 15.5973C81.4926 15.5973 81.6323 15.5511 81.7478 15.4655C81.8633 15.38 81.9485 15.2595 81.991 15.1218L86.1829 0.859573C86.2275 0.712246 86.3177 0.583029 86.4403 0.490617C86.5629 0.398205 86.7116 0.347392 86.8648 0.345529H89.8733C90.0256 0.346343 90.1736 0.396931 90.2948 0.489659C90.416 0.582387 90.5039 0.712224 90.5452 0.859573L94.7672 15.1722C94.8068 15.3139 94.8915 15.4388 95.0083 15.5277C95.1251 15.6166 95.2675 15.6647 95.414 15.6647C95.5605 15.6647 95.703 15.6166 95.8198 15.5277C95.9366 15.4388 96.0212 15.3139 96.0609 15.1722L100.223 0.859573C100.261 0.718966 100.341 0.593435 100.452 0.499772C100.563 0.406108 100.7 0.348777 100.844 0.335449V0.335449Z" fill="#2B303A"/>
<path d="M124.11 20.9071L122.907 18.0245C122.805 17.783 122.635 17.5769 122.417 17.4318C122.2 17.2866 121.945 17.2089 121.683 17.208H113.049C112.788 17.2089 112.533 17.2866 112.315 17.4318C112.098 17.5769 111.928 17.783 111.826 18.0245L110.622 20.9071C110.53 21.1519 110.367 21.3633 110.154 21.5142C109.942 21.6651 109.689 21.7486 109.429 21.7538H107.122C107.009 21.7531 106.899 21.7244 106.8 21.6701C106.701 21.6159 106.617 21.5379 106.555 21.443C106.494 21.3482 106.456 21.2394 106.447 21.1266C106.437 21.0137 106.456 20.9002 106.5 20.7963L115.245 0.75864C115.299 0.639976 115.384 0.539036 115.493 0.467635C115.601 0.396235 115.727 0.357328 115.857 0.355469H119.216C119.345 0.356768 119.47 0.395575 119.577 0.467161C119.684 0.538746 119.768 0.64002 119.818 0.75864L128.423 20.7459C128.468 20.8484 128.486 20.9606 128.477 21.0723C128.468 21.184 128.432 21.2916 128.371 21.3856C128.311 21.4796 128.228 21.557 128.13 21.6107C128.032 21.6644 127.922 21.6928 127.811 21.6933H125.334C125.076 21.6964 124.823 21.6236 124.605 21.4839C124.388 21.3442 124.216 21.1438 124.11 20.9071ZM114.613 13.6904H120.129C120.236 13.6904 120.342 13.6637 120.437 13.6128C120.531 13.562 120.612 13.4884 120.671 13.3986C120.731 13.3089 120.768 13.2058 120.778 13.0984C120.788 12.9911 120.772 12.8828 120.731 12.7832L118.003 6.16114C117.952 6.04245 117.867 5.94144 117.759 5.8705C117.651 5.79956 117.525 5.76177 117.396 5.76177C117.267 5.76177 117.141 5.79956 117.034 5.8705C116.926 5.94144 116.841 6.04245 116.79 6.16114L114.012 12.7732C113.968 12.8732 113.95 12.9825 113.96 13.0913C113.969 13.2 114.005 13.3047 114.065 13.3959C114.125 13.487 114.206 13.5617 114.302 13.6131C114.398 13.6645 114.505 13.6911 114.613 13.6904Z" fill="#2B303A"/>
<path d="M130.599 0.335449H146.644C146.825 0.335449 146.998 0.40766 147.126 0.536196C147.254 0.664731 147.326 0.839064 147.326 1.02084V3.29876C147.326 3.3883 147.308 3.47694 147.274 3.55954C147.24 3.64214 147.189 3.71704 147.126 3.77988C147.062 3.84272 146.987 3.89225 146.904 3.92559C146.822 3.95893 146.733 3.97541 146.644 3.97407H141.379C141.289 3.97271 141.2 3.98951 141.117 4.02348C141.033 4.05744 140.958 4.10787 140.894 4.17179C140.83 4.23571 140.78 4.31181 140.746 4.39558C140.713 4.47935 140.696 4.56908 140.697 4.65946V21.0484C140.697 21.1384 140.68 21.2275 140.645 21.3107C140.611 21.3938 140.561 21.4694 140.498 21.533C140.434 21.5967 140.359 21.6472 140.276 21.6816C140.194 21.716 140.105 21.7338 140.015 21.7338H137.268C137.088 21.7311 136.918 21.6578 136.792 21.5295C136.666 21.4013 136.596 21.2284 136.596 21.0484V4.61915C136.596 4.43737 136.524 4.26304 136.396 4.1345C136.268 4.00597 136.095 3.93375 135.914 3.93375H130.639C130.461 3.93375 130.29 3.86261 130.164 3.73596C130.038 3.60931 129.967 3.43755 129.967 3.25844V1.02084C129.966 0.847468 130.031 0.680358 130.148 0.553178C130.266 0.425997 130.427 0.348197 130.599 0.335449Z" fill="#2B303A"/>
<path d="M61.2899 42.8501C60.8927 43.1751 60.4052 43.4188 59.8274 43.5813C59.2677 43.7438 58.6719 43.8251 58.04 43.8251C56.4511 43.8251 55.2233 43.4098 54.3566 42.5793C53.49 41.7487 53.0567 40.539 53.0567 38.9501V31.9898H50.6733V29.2814H53.0567V25.9773H56.442V29.2814H60.3149V31.9898H56.442V38.8689C56.442 39.573 56.6136 40.1147 56.9566 40.4939C57.2997 40.855 57.7962 41.0355 58.4462 41.0355C59.2045 41.0355 59.8365 40.8369 60.342 40.4397L61.2899 42.8501Z" fill="#2B303A"/>
<path d="M80.7597 36.4856C80.7597 36.7203 80.7416 37.0543 80.7055 37.4876H69.3577C69.5563 38.5529 70.0709 39.4015 70.9014 40.0334C71.75 40.6473 72.7972 40.9543 74.0431 40.9543C75.6319 40.9543 76.941 40.4307 77.9701 39.3835L79.7847 41.4689C79.1347 42.2452 78.3132 42.832 77.3201 43.2293C76.3271 43.6265 75.2076 43.8251 73.9618 43.8251C72.3729 43.8251 70.9736 43.5091 69.7639 42.8772C68.5542 42.2452 67.6153 41.3695 66.9473 40.2501C66.2973 39.1126 65.9723 37.8307 65.9723 36.4043C65.9723 34.996 66.2883 33.7321 66.9202 32.6127C67.5702 31.4752 68.4639 30.5905 69.6014 29.9585C70.7389 29.3266 72.0209 29.0106 73.4472 29.0106C74.8556 29.0106 76.1104 29.3266 77.2118 29.9585C78.3312 30.5724 79.1979 31.4481 79.8118 32.5856C80.4437 33.705 80.7597 35.005 80.7597 36.4856ZM73.4472 31.7189C72.3639 31.7189 71.4431 32.0439 70.6848 32.6939C69.9445 33.3259 69.4931 34.1745 69.3306 35.2397H77.5368C77.3923 34.1925 76.95 33.3439 76.2097 32.6939C75.4694 32.0439 74.5486 31.7189 73.4472 31.7189Z" fill="#2B303A"/>
<path d="M91.7152 29.0106C93.8458 29.0106 95.4707 29.5252 96.5902 30.5543C97.7277 31.5655 98.2964 33.1002 98.2964 35.1585V43.6355H95.1006V41.8751C94.6853 42.507 94.0895 42.9945 93.3131 43.3376C92.5548 43.6626 91.634 43.8251 90.5506 43.8251C89.4673 43.8251 88.5194 43.6445 87.7069 43.2834C86.8944 42.9043 86.2625 42.3897 85.8111 41.7397C85.3778 41.0716 85.1611 40.3223 85.1611 39.4918C85.1611 38.1918 85.6396 37.1536 86.5965 36.3772C87.5715 35.5828 89.0972 35.1856 91.1736 35.1856H94.911V34.9689C94.911 33.9578 94.6041 33.1814 93.9902 32.6397C93.3944 32.0981 92.5006 31.8273 91.309 31.8273C90.4965 31.8273 89.693 31.9536 88.8986 32.2064C88.1222 32.4592 87.4632 32.8113 86.9215 33.2627L85.5944 30.7981C86.3527 30.2203 87.2646 29.778 88.3298 29.471C89.3951 29.1641 90.5236 29.0106 91.7152 29.0106ZM91.2548 41.3605C92.1034 41.3605 92.8527 41.1709 93.5027 40.7918C94.1707 40.3946 94.6402 39.8348 94.911 39.1126V37.4335H91.4173C89.4673 37.4335 88.4923 38.0744 88.4923 39.3564C88.4923 39.9703 88.7361 40.4577 89.2236 40.8189C89.7111 41.18 90.3881 41.3605 91.2548 41.3605Z" fill="#2B303A"/>
<path d="M123.471 29.0106C125.294 29.0106 126.739 29.5432 127.804 30.6085C128.869 31.6557 129.402 33.2356 129.402 35.3481V43.6355H126.016V35.7814C126.016 34.5175 125.737 33.5696 125.177 32.9377C124.617 32.2877 123.814 31.9627 122.766 31.9627C121.629 31.9627 120.717 32.3418 120.031 33.1002C119.345 33.8404 119.002 34.9057 119.002 36.296V43.6355H115.616V35.7814C115.616 34.5175 115.337 33.5696 114.777 32.9377C114.217 32.2877 113.414 31.9627 112.367 31.9627C111.211 31.9627 110.29 32.3328 109.604 33.0731C108.936 33.8134 108.602 34.8876 108.602 36.296V43.6355H105.217V29.1731H108.439V31.0148C108.981 30.3648 109.658 29.8682 110.471 29.5252C111.283 29.1821 112.186 29.0106 113.179 29.0106C114.262 29.0106 115.219 29.2182 116.05 29.6335C116.898 30.0307 117.566 30.6266 118.054 31.421C118.65 30.6627 119.417 30.0759 120.356 29.6606C121.295 29.2273 122.333 29.0106 123.471 29.0106Z" fill="#2B303A"/>
<path d="M140.772 43.8251C139.598 43.8251 138.452 43.6716 137.332 43.3647C136.213 43.0577 135.319 42.6695 134.651 42.2001L135.951 39.6272C136.601 40.0605 137.378 40.4126 138.28 40.6834C139.201 40.9362 140.104 41.0626 140.989 41.0626C143.011 41.0626 144.022 40.53 144.022 39.4647C144.022 38.9591 143.76 38.6071 143.237 38.4085C142.731 38.2098 141.91 38.0203 140.772 37.8397C139.58 37.6592 138.605 37.4515 137.847 37.2168C137.107 36.9821 136.457 36.5758 135.897 35.9981C135.355 35.4022 135.085 34.5807 135.085 33.5335C135.085 32.1613 135.653 31.0689 136.791 30.2564C137.946 29.4259 139.499 29.0106 141.449 29.0106C142.442 29.0106 143.435 29.128 144.428 29.3627C145.421 29.5794 146.234 29.8773 146.866 30.2564L145.566 32.8293C144.338 32.1071 142.957 31.746 141.422 31.746C140.429 31.746 139.671 31.8995 139.147 32.2064C138.642 32.4953 138.389 32.8835 138.389 33.371C138.389 33.9127 138.66 34.3008 139.201 34.5356C139.761 34.7522 140.619 34.9599 141.774 35.1585C142.93 35.339 143.878 35.5467 144.618 35.7814C145.358 36.0161 145.99 36.4133 146.514 36.9731C147.055 37.5328 147.326 38.3272 147.326 39.3564C147.326 40.7105 146.739 41.7938 145.566 42.6063C144.392 43.4188 142.794 43.8251 140.772 43.8251Z" fill="#2B303A"/>
</svg>
